<mxfile host="65bd71144e">
    <diagram name="Page-1" id="w3pBS63NbeZwZ4am3wOo">
        <mxGraphModel dx="912" dy="568" grid="1" gridSize="10" guides="1" tooltips="1" connect="1" arrows="1" fold="1" page="1" pageScale="1" pageWidth="827" pageHeight="1169" math="0" shadow="0">
            <root>
                <mxCell id="0"/>
                <mxCell id="1" parent="0"/>
                <mxCell id="Lm2ICUbB4t9jHjoM_-Ms-43" style="edgeStyle=orthogonalEdgeStyle;rounded=0;orthogonalLoop=1;jettySize=auto;html=1;entryX=0.25;entryY=0;entryDx=0;entryDy=0;" parent="1" source="Lm2ICUbB4t9jHjoM_-Ms-38" target="Lm2ICUbB4t9jHjoM_-Ms-4" edge="1">
                    <mxGeometry relative="1" as="geometry"/>
                </mxCell>
                <mxCell id="Lm2ICUbB4t9jHjoM_-Ms-38" value="" style="rounded=1;whiteSpace=wrap;html=1;" parent="1" vertex="1">
                    <mxGeometry x="382" y="122" width="80" height="68" as="geometry"/>
                </mxCell>
                <mxCell id="Lm2ICUbB4t9jHjoM_-Ms-31" style="edgeStyle=orthogonalEdgeStyle;rounded=0;orthogonalLoop=1;jettySize=auto;html=1;entryX=0;entryY=0.5;entryDx=0;entryDy=0;" parent="1" source="Lm2ICUbB4t9jHjoM_-Ms-1" target="Lm2ICUbB4t9jHjoM_-Ms-2" edge="1">
                    <mxGeometry relative="1" as="geometry"/>
                </mxCell>
                <mxCell id="Lm2ICUbB4t9jHjoM_-Ms-1" value="" style="shape=cylinder3;whiteSpace=wrap;html=1;boundedLbl=1;backgroundOutline=1;size=15;" parent="1" vertex="1">
                    <mxGeometry x="10" y="240" width="60" height="80" as="geometry"/>
                </mxCell>
                <mxCell id="Lm2ICUbB4t9jHjoM_-Ms-12" style="edgeStyle=orthogonalEdgeStyle;rounded=0;orthogonalLoop=1;jettySize=auto;html=1;entryX=0;entryY=0.5;entryDx=0;entryDy=0;" parent="1" source="Lm2ICUbB4t9jHjoM_-Ms-2" target="Lm2ICUbB4t9jHjoM_-Ms-3" edge="1">
                    <mxGeometry relative="1" as="geometry"/>
                </mxCell>
                <mxCell id="Lm2ICUbB4t9jHjoM_-Ms-2" value="BigQuery" style="sketch=0;html=1;verticalAlign=top;labelPosition=center;verticalLabelPosition=bottom;align=center;spacingTop=-6;fontSize=11;fontStyle=1;fontColor=#999999;shape=image;aspect=fixed;imageAspect=0;image=data:image/svg+xml,PHN2ZyB4bWxucz0iaHR0cDovL3d3dy53My5vcmcvMjAwMC9zdmciIHhtbG5zOnY9Imh0dHBzOi8vdmVjdGEuaW8vbmFubyIgd2lkdGg9IjIwLjAwMTA0NTIyNzA1MDc4IiBoZWlnaHQ9IjIwLjAwMTA0NTIyNzA1MDc4IiBmaWxsLXJ1bGU9ImV2ZW5vZGQiIHZpZXdCb3g9IjAgMCAyMC4wMDEwNDUyMjcwNTA3OCAyMC4wMDEwNDUyMjcwNTA3OCI+JiN4YTsJPHN0eWxlIHR5cGU9InRleHQvY3NzIj4mI3hhOwkuc3Qwe2ZpbGw6I2FlY2JmYTt9JiN4YTsJLnN0MXtmaWxsOiM2NjlkZjY7fSYjeGE7CS5zdDJ7ZmlsbDojNDI4NWY0O30mI3hhOwk8L3N0eWxlPiYjeGE7CTxwYXRoIGNsYXNzPSJzdDAiIGQ9Ik00LjczIDguODN2Mi42M2E0LjkxIDQuOTEgMCAwIDAgMS43MSAxLjc0VjguODN6Ii8+JiN4YTsJPHBhdGggY2xhc3M9InN0MSIgZD0iTTcuODkgNi40MXY3LjUzQTcuNjIgNy42MiAwIDAgMCA5IDE0YTggOCAwIDAgMCAxIDBWNi40MXoiLz4mI3hhOwk8cGF0aCBjbGFzcz0ic3QwIiBkPSJNMTEuNjQgOS44NnYzLjI5YTUgNSAwIDAgMCAxLjctMS44MlY5Ljg2eiIvPiYjeGE7CTxwYXRoIGNsYXNzPSJzdDIiIGQ9Ik0xNS43NCAxNC4zMmwtMS40MiAxLjQyYS40Mi40MiAwIDAgMCAwIC42bDMuNTQgMy41NGEuNDIuNDIgMCAwIDAgLjU5IDBsMS40My0xLjQzYS40Mi40MiAwIDAgMCAwLS41OWwtMy41NC0zLjU0YS40Mi40MiAwIDAgMC0uNiAwIi8+JiN4YTsJPHBhdGggY2xhc3M9InN0MSIgZD0iTTkgMGE5IDkgMCAxIDAgMCAxOEE5IDkgMCAxIDAgOSAwbTAgMTUuNjlhNi42OCA2LjY4IDAgMCAxIC4wMDctMTMuMzYgNi42OCA2LjY4IDAgMCAxIDQuNzI3IDExLjQwM0E2LjY4IDYuNjggMCAwIDEgOSAxNS42OSIvPiYjeGE7PC9zdmc+;" parent="1" vertex="1">
                    <mxGeometry x="162" y="259" width="42" height="42" as="geometry"/>
                </mxCell>
                <mxCell id="Lm2ICUbB4t9jHjoM_-Ms-13" style="edgeStyle=orthogonalEdgeStyle;rounded=0;orthogonalLoop=1;jettySize=auto;html=1;entryX=0;entryY=0.5;entryDx=0;entryDy=0;" parent="1" source="Lm2ICUbB4t9jHjoM_-Ms-3" target="Lm2ICUbB4t9jHjoM_-Ms-4" edge="1">
                    <mxGeometry relative="1" as="geometry"/>
                </mxCell>
                <mxCell id="Lm2ICUbB4t9jHjoM_-Ms-3" value="Pub/Sub" style="sketch=0;html=1;verticalAlign=top;labelPosition=center;verticalLabelPosition=bottom;align=center;spacingTop=-6;fontSize=11;fontStyle=1;fontColor=#999999;shape=image;aspect=fixed;imageAspect=0;image=data:image/svg+xml,PHN2ZyB4bWxucz0iaHR0cDovL3d3dy53My5vcmcvMjAwMC9zdmciIHhtbG5zOnY9Imh0dHBzOi8vdmVjdGEuaW8vbmFubyIgd2lkdGg9IjE4LjMxOTk5OTY5NDgyNDIyIiBoZWlnaHQ9IjIwLjAwMDAwMTkwNzM0ODYzMyIgdmlld0JveD0iMCAwIDE4LjMxOTk5OTY5NDgyNDIyIDIwLjAwMDAwMTkwNzM0ODYzMyI+JiN4YTsJPHN0eWxlIHR5cGU9InRleHQvY3NzIj4mI3hhOwkuc3Qwe2ZpbGw6IzY2OWRmNjt9JiN4YTsJLnN0MXtmaWxsOiM0Mjg1ZjQ7fSYjeGE7CS5zdDJ7ZmlsbDojYWVjYmZhO30mI3hhOwk8L3N0eWxlPiYjeGE7CTxkZWZzPiYjeGE7CQk8ZmlsdGVyIGlkPSJBIiB4PSI0LjY0IiB5PSI0LjE5IiB3aWR0aD0iMTQuNzMiIGhlaWdodD0iMTIuNzYiIGZpbHRlclVuaXRzPSJ1c2VyU3BhY2VPblVzZSIgY29sb3ItaW50ZXJwb2xhdGlvbi1maWx0ZXJzPSJzUkdCIj4mI3hhOwkJCTxmZUZsb29kIGZsb29kLWNvbG9yPSIjZmZmIi8+JiN4YTsJCQk8ZmVCbGVuZCBpbj0iU291cmNlR3JhcGhpYyIvPiYjeGE7CQk8L2ZpbHRlcj4mI3hhOwkJPG1hc2sgaWQ9IkIiIHg9IjQuNjQiIHk9IjQuMTkiIHdpZHRoPSIxNC43MyIgaGVpZ2h0PSIxMi43NiIgbWFza1VuaXRzPSJ1c2VyU3BhY2VPblVzZSI+JiN4YTsJCQk8Y2lyY2xlIGN4PSIxMiIgY3k9IjEyLjIzIiByPSIzLjU4IiBmaWx0ZXI9InVybCgjQSkiLz4mI3hhOwkJPC9tYXNrPiYjeGE7CTwvZGVmcz4mI3hhOwk8ZyBjbGFzcz0ic3QwIj4mI3hhOwkJPGNpcmNsZSBjeD0iMTYuMTMiIGN5PSI2LjIxIiByPSIxLjcyIi8+JiN4YTsJCTxjaXJjbGUgY3g9IjIuMTkiIGN5PSI2LjIxIiByPSIxLjcyIi8+JiN4YTsJCTxjaXJjbGUgY3g9IjkuMTYiIGN5PSIxOC4yOCIgcj0iMS43MiIvPiYjeGE7CTwvZz4mI3hhOwk8ZyBtYXNrPSJ1cmwoI0IpIiB0cmFuc2Zvcm09InRyYW5zbGF0ZSgtMi44NCAtMikiPiYjeGE7CQk8cGF0aCB0cmFuc2Zvcm09Im1hdHJpeCguNSAtLjg3IC44NyAuNSAtNC41OSAyMC41MykiIGQ9Ik0xNC42OSAxMC4yMmgxLjU5djguMDRoLTEuNTl6IiBjbGFzcz0ic3QxIi8+JiN4YTsJCTxwYXRoIHRyYW5zZm9ybT0icm90YXRlKDMzMCA4LjUyMyAxNC4yNDQpIiBkPSJNNC40OSAxMy40NWg4LjA0djEuNTlINC40OXoiIGNsYXNzPSJzdDEiLz4mI3hhOwkJPHBhdGggZD0iTTExLjIgNC4xOWgxLjU5djguMDRIMTEuMnoiIGNsYXNzPSJzdDEiLz4mI3hhOwk8L2c+JiN4YTsJPGcgY2xhc3M9InN0MiI+JiN4YTsJCTxjaXJjbGUgY3g9IjkuMTYiIGN5PSIxMC4yMyIgcj0iMi43OCIvPiYjeGE7CQk8Y2lyY2xlIGN4PSIyLjE5IiBjeT0iMTQuMjUiIHI9IjIuMTkiLz4mI3hhOwkJPGNpcmNsZSBjeD0iMTYuMTMiIGN5PSIxNC4yNSIgcj0iMi4xOSIvPiYjeGE7CQk8Y2lyY2xlIGN4PSI5LjE2IiBjeT0iMi4xOSIgcj0iMi4xOSIvPiYjeGE7CTwvZz4mI3hhOzwvc3ZnPg==;" parent="1" vertex="1">
                    <mxGeometry x="302" y="259" width="38" height="42" as="geometry"/>
                </mxCell>
                <mxCell id="Lm2ICUbB4t9jHjoM_-Ms-14" style="edgeStyle=orthogonalEdgeStyle;rounded=0;orthogonalLoop=1;jettySize=auto;html=1;entryX=0;entryY=0.5;entryDx=0;entryDy=0;" parent="1" source="Lm2ICUbB4t9jHjoM_-Ms-4" target="Lm2ICUbB4t9jHjoM_-Ms-5" edge="1">
                    <mxGeometry relative="1" as="geometry"/>
                </mxCell>
                <mxCell id="Lm2ICUbB4t9jHjoM_-Ms-44" style="edgeStyle=orthogonalEdgeStyle;rounded=0;orthogonalLoop=1;jettySize=auto;html=1;" parent="1" source="Lm2ICUbB4t9jHjoM_-Ms-4" edge="1">
                    <mxGeometry relative="1" as="geometry">
                        <mxPoint x="433" y="200" as="targetPoint"/>
                    </mxGeometry>
                </mxCell>
                <mxCell id="Lm2ICUbB4t9jHjoM_-Ms-4" value="Cloud&#10;Run" style="sketch=0;html=1;verticalAlign=top;labelPosition=center;verticalLabelPosition=bottom;align=center;spacingTop=-6;fontSize=11;fontStyle=1;fontColor=#999999;shape=image;aspect=fixed;imageAspect=0;image=data:image/svg+xml,PHN2ZyB4bWxucz0iaHR0cDovL3d3dy53My5vcmcvMjAwMC9zdmciIHhtbG5zOnY9Imh0dHBzOi8vdmVjdGEuaW8vbmFubyIgd2lkdGg9IjM2NS40NjQ5OTY3NzA0MjQ5MyIgaGVpZ2h0PSIzNzkuMjIyOTk0NDYzNTc3OTUiIHZpZXdCb3g9IjAgMCA5Ni42OTU5OTkxNDU1MDc4MSAxMDAuMzM1OTk4NTM1MTU2MjUiPiYjeGE7PHN0eWxlIHR5cGU9InRleHQvY3NzIj4mI3hhOwkuc3Qwe2ZpbGw6IzQyODVmNDt9JiN4YTsJLnN0MXtmaWxsOiNhZWNiZmE7fSYjeGE7PC9zdHlsZT4mI3hhOwk8cGF0aCBjbGFzcz0ic3QwIiBkPSJNMjkuNzk0IDEwMC4zMzZMNDYuOTIgNTAuMTY4aDQ5Ljc3NnpNMCA5OS42NzFsMTIuOTc2LTQ5LjUwMkgyOS4yMkwxNi44OTcgOTIuMDU0eiIvPiYjeGE7CTxwYXRoIGNsYXNzPSJzdDEiIGQ9Ik0yOS43OTQgMEw0Ni45MiA1MC4xNjhoNDkuNzc2ek0wIC42NjZsMTIuOTc2IDQ5LjUwMkgyOS4yMkwxNi44OTcgOC4yODN6Ii8+JiN4YTs8L3N2Zz4=;" parent="1" vertex="1">
                    <mxGeometry x="412" y="259" width="42" height="42" as="geometry"/>
                </mxCell>
                <mxCell id="Lm2ICUbB4t9jHjoM_-Ms-15" style="edgeStyle=orthogonalEdgeStyle;rounded=0;orthogonalLoop=1;jettySize=auto;html=1;entryX=0;entryY=0.5;entryDx=0;entryDy=0;startArrow=none;" parent="1" source="4" target="Lm2ICUbB4t9jHjoM_-Ms-6" edge="1">
                    <mxGeometry relative="1" as="geometry">
                        <Array as="points">
                            <mxPoint x="622" y="280"/>
                            <mxPoint x="622" y="219"/>
                        </Array>
                    </mxGeometry>
                </mxCell>
                <mxCell id="Lm2ICUbB4t9jHjoM_-Ms-20" style="edgeStyle=orthogonalEdgeStyle;rounded=0;orthogonalLoop=1;jettySize=auto;html=1;entryX=0;entryY=0.5;entryDx=0;entryDy=0;" parent="1" source="Lm2ICUbB4t9jHjoM_-Ms-5" target="Lm2ICUbB4t9jHjoM_-Ms-8" edge="1">
                    <mxGeometry relative="1" as="geometry">
                        <mxPoint x="612" y="410" as="targetPoint"/>
                        <Array as="points">
                            <mxPoint x="622" y="280"/>
                            <mxPoint x="622" y="330"/>
                            <mxPoint x="672" y="330"/>
                        </Array>
                    </mxGeometry>
                </mxCell>
                <mxCell id="Lm2ICUbB4t9jHjoM_-Ms-5" value="Pub/Sub" style="sketch=0;html=1;verticalAlign=top;labelPosition=center;verticalLabelPosition=bottom;align=center;spacingTop=-6;fontSize=11;fontStyle=1;fontColor=#999999;shape=image;aspect=fixed;imageAspect=0;image=data:image/svg+xml,PHN2ZyB4bWxucz0iaHR0cDovL3d3dy53My5vcmcvMjAwMC9zdmciIHhtbG5zOnY9Imh0dHBzOi8vdmVjdGEuaW8vbmFubyIgd2lkdGg9IjE4LjMxOTk5OTY5NDgyNDIyIiBoZWlnaHQ9IjIwLjAwMDAwMTkwNzM0ODYzMyIgdmlld0JveD0iMCAwIDE4LjMxOTk5OTY5NDgyNDIyIDIwLjAwMDAwMTkwNzM0ODYzMyI+JiN4YTsJPHN0eWxlIHR5cGU9InRleHQvY3NzIj4mI3hhOwkuc3Qwe2ZpbGw6IzY2OWRmNjt9JiN4YTsJLnN0MXtmaWxsOiM0Mjg1ZjQ7fSYjeGE7CS5zdDJ7ZmlsbDojYWVjYmZhO30mI3hhOwk8L3N0eWxlPiYjeGE7CTxkZWZzPiYjeGE7CQk8ZmlsdGVyIGlkPSJBIiB4PSI0LjY0IiB5PSI0LjE5IiB3aWR0aD0iMTQuNzMiIGhlaWdodD0iMTIuNzYiIGZpbHRlclVuaXRzPSJ1c2VyU3BhY2VPblVzZSIgY29sb3ItaW50ZXJwb2xhdGlvbi1maWx0ZXJzPSJzUkdCIj4mI3hhOwkJCTxmZUZsb29kIGZsb29kLWNvbG9yPSIjZmZmIi8+JiN4YTsJCQk8ZmVCbGVuZCBpbj0iU291cmNlR3JhcGhpYyIvPiYjeGE7CQk8L2ZpbHRlcj4mI3hhOwkJPG1hc2sgaWQ9IkIiIHg9IjQuNjQiIHk9IjQuMTkiIHdpZHRoPSIxNC43MyIgaGVpZ2h0PSIxMi43NiIgbWFza1VuaXRzPSJ1c2VyU3BhY2VPblVzZSI+JiN4YTsJCQk8Y2lyY2xlIGN4PSIxMiIgY3k9IjEyLjIzIiByPSIzLjU4IiBmaWx0ZXI9InVybCgjQSkiLz4mI3hhOwkJPC9tYXNrPiYjeGE7CTwvZGVmcz4mI3hhOwk8ZyBjbGFzcz0ic3QwIj4mI3hhOwkJPGNpcmNsZSBjeD0iMTYuMTMiIGN5PSI2LjIxIiByPSIxLjcyIi8+JiN4YTsJCTxjaXJjbGUgY3g9IjIuMTkiIGN5PSI2LjIxIiByPSIxLjcyIi8+JiN4YTsJCTxjaXJjbGUgY3g9IjkuMTYiIGN5PSIxOC4yOCIgcj0iMS43MiIvPiYjeGE7CTwvZz4mI3hhOwk8ZyBtYXNrPSJ1cmwoI0IpIiB0cmFuc2Zvcm09InRyYW5zbGF0ZSgtMi44NCAtMikiPiYjeGE7CQk8cGF0aCB0cmFuc2Zvcm09Im1hdHJpeCguNSAtLjg3IC44NyAuNSAtNC41OSAyMC41MykiIGQ9Ik0xNC42OSAxMC4yMmgxLjU5djguMDRoLTEuNTl6IiBjbGFzcz0ic3QxIi8+JiN4YTsJCTxwYXRoIHRyYW5zZm9ybT0icm90YXRlKDMzMCA4LjUyMyAxNC4yNDQpIiBkPSJNNC40OSAxMy40NWg4LjA0djEuNTlINC40OXoiIGNsYXNzPSJzdDEiLz4mI3hhOwkJPHBhdGggZD0iTTExLjIgNC4xOWgxLjU5djguMDRIMTEuMnoiIGNsYXNzPSJzdDEiLz4mI3hhOwk8L2c+JiN4YTsJPGcgY2xhc3M9InN0MiI+JiN4YTsJCTxjaXJjbGUgY3g9IjkuMTYiIGN5PSIxMC4yMyIgcj0iMi43OCIvPiYjeGE7CQk8Y2lyY2xlIGN4PSIyLjE5IiBjeT0iMTQuMjUiIHI9IjIuMTkiLz4mI3hhOwkJPGNpcmNsZSBjeD0iMTYuMTMiIGN5PSIxNC4yNSIgcj0iMi4xOSIvPiYjeGE7CQk8Y2lyY2xlIGN4PSI5LjE2IiBjeT0iMi4xOSIgcj0iMi4xOSIvPiYjeGE7CTwvZz4mI3hhOzwvc3ZnPg==;" parent="1" vertex="1">
                    <mxGeometry x="542" y="259" width="38" height="42" as="geometry"/>
                </mxCell>
                <mxCell id="Lm2ICUbB4t9jHjoM_-Ms-6" value="BigQuery" style="sketch=0;html=1;verticalAlign=top;labelPosition=center;verticalLabelPosition=bottom;align=center;spacingTop=-6;fontSize=11;fontStyle=1;fontColor=#999999;shape=image;aspect=fixed;imageAspect=0;image=data:image/svg+xml,PHN2ZyB4bWxucz0iaHR0cDovL3d3dy53My5vcmcvMjAwMC9zdmciIHhtbG5zOnY9Imh0dHBzOi8vdmVjdGEuaW8vbmFubyIgd2lkdGg9IjIwLjAwMTA0NTIyNzA1MDc4IiBoZWlnaHQ9IjIwLjAwMTA0NTIyNzA1MDc4IiBmaWxsLXJ1bGU9ImV2ZW5vZGQiIHZpZXdCb3g9IjAgMCAyMC4wMDEwNDUyMjcwNTA3OCAyMC4wMDEwNDUyMjcwNTA3OCI+JiN4YTsJPHN0eWxlIHR5cGU9InRleHQvY3NzIj4mI3hhOwkuc3Qwe2ZpbGw6I2FlY2JmYTt9JiN4YTsJLnN0MXtmaWxsOiM2NjlkZjY7fSYjeGE7CS5zdDJ7ZmlsbDojNDI4NWY0O30mI3hhOwk8L3N0eWxlPiYjeGE7CTxwYXRoIGNsYXNzPSJzdDAiIGQ9Ik00LjczIDguODN2Mi42M2E0LjkxIDQuOTEgMCAwIDAgMS43MSAxLjc0VjguODN6Ii8+JiN4YTsJPHBhdGggY2xhc3M9InN0MSIgZD0iTTcuODkgNi40MXY3LjUzQTcuNjIgNy42MiAwIDAgMCA5IDE0YTggOCAwIDAgMCAxIDBWNi40MXoiLz4mI3hhOwk8cGF0aCBjbGFzcz0ic3QwIiBkPSJNMTEuNjQgOS44NnYzLjI5YTUgNSAwIDAgMCAxLjctMS44MlY5Ljg2eiIvPiYjeGE7CTxwYXRoIGNsYXNzPSJzdDIiIGQ9Ik0xNS43NCAxNC4zMmwtMS40MiAxLjQyYS40Mi40MiAwIDAgMCAwIC42bDMuNTQgMy41NGEuNDIuNDIgMCAwIDAgLjU5IDBsMS40My0xLjQzYS40Mi40MiAwIDAgMCAwLS41OWwtMy41NC0zLjU0YS40Mi40MiAwIDAgMC0uNiAwIi8+JiN4YTsJPHBhdGggY2xhc3M9InN0MSIgZD0iTTkgMGE5IDkgMCAxIDAgMCAxOEE5IDkgMCAxIDAgOSAwbTAgMTUuNjlhNi42OCA2LjY4IDAgMCAxIC4wMDctMTMuMzYgNi42OCA2LjY4IDAgMCAxIDQuNzI3IDExLjQwM0E2LjY4IDYuNjggMCAwIDEgOSAxNS42OSIvPiYjeGE7PC9zdmc+;" parent="1" vertex="1">
                    <mxGeometry x="672" y="198" width="42" height="42" as="geometry"/>
                </mxCell>
                <mxCell id="Lm2ICUbB4t9jHjoM_-Ms-21" style="edgeStyle=orthogonalEdgeStyle;rounded=0;orthogonalLoop=1;jettySize=auto;html=1;entryX=0.5;entryY=0;entryDx=0;entryDy=0;" parent="1" source="Lm2ICUbB4t9jHjoM_-Ms-7" target="Lm2ICUbB4t9jHjoM_-Ms-6" edge="1">
                    <mxGeometry relative="1" as="geometry"/>
                </mxCell>
                <mxCell id="Lm2ICUbB4t9jHjoM_-Ms-7" value="Looker" style="sketch=0;html=1;verticalAlign=top;labelPosition=center;verticalLabelPosition=bottom;align=center;spacingTop=-6;fontSize=11;fontStyle=1;fontColor=#999999;shape=image;aspect=fixed;imageAspect=0;image=data:image/svg+xml,PHN2ZyB4bWxucz0iaHR0cDovL3d3dy53My5vcmcvMjAwMC9zdmciIGlkPSJzdmc4OTgwMSIgdmVyc2lvbj0iMS4xIiB2aWV3Qm94PSIwIDAgMjA4LjA1NjU1IDMzNC42MTMxNiIgaGVpZ2h0PSIzMzQuNjEzMTZtbSIgd2lkdGg9IjIwOC4wNTY1NW1tIj4mI3hhOyAgJiN4YTsgIDxkZWZzIGlkPSJkZWZzODk3OTgiLz4mI3hhOyAgPGcgdHJhbnNmb3JtPSJ0cmFuc2xhdGUoLTQuMjQ2MjUyNCwxNS42NzE5MTEpIiBpZD0ibGF5ZXIxIj4mI3hhOyAgICA8cGF0aCBpZD0icGF0aDkxODAyIiB0cmFuc2Zvcm09InNjYWxlKDAuMjY0NTgzMzMpIiBkPSJtIDQwOS4yMjI2Niw0MTkuMDk5NjEgYyAtMzYuNjA4MTEsMCAtNzIuMDc2NjcsNS4wNzUzIC0xMDUuNzUzOTEsMTQuNTMxMjUgbCA0OS4wMzUxNiwxMjAuMDQxMDIgYyAxOC4yNjE3MiwtMy45Mzg5OSAzNy4yMjE5NiwtNi4wNjgzNiA1Ni43MTg3NSwtNi4wNjgzNiAxNDYuOTM1MTQsMCAyNjQuNjc3NzMsMTE3LjczNDc3IDI2NC42Nzc3MywyNjQuNjY5OTIgMCwxNDYuOTM1MTQgLTExNy43NDI1OSwyNjQuNjY5OTYgLTI2NC42Nzc3MywyNjQuNjY5OTYgLTE0Ni45MzUxNiwwIC0yNjQuNjY5OTEsLTExNy43MzQ4MiAtMjY0LjY2OTkzLC0yNjQuNjY5OTYgMCwtOTkuMTg3NjMgNTMuNjg5ODMsLTE4NS4wMDU5NiAxMzMuNzU1ODYsLTIzMC4zNDc2NiBMIDIyOS42MjY5NSw0NjIuNzUgQyAxMDMuMDI0Nyw1MjguMjI0NzQgMTYuMDQ4ODI3LDY2MC41MDUyMyAxNi4wNDg4MjgsODEyLjI3MzQ0IGMgMi4zZS01LDIxNi4zODM3NiAxNzYuNzkwMDYyLDM5My4xNzM4NiAzOTMuMTczODMyLDM5My4xNzM4NiAyMTYuMzgzNzMsMCAzOTMuMTgxNjQsLTE3Ni43OTAxIDM5My4xODE2NCwtMzkzLjE3Mzg2IDNlLTUsLTIxNi4zODM3OCAtMTc2Ljc5Nzg3LC0zOTMuMTczODMgLTM5My4xODE2NCwtMzkzLjE3MzgzIHoiIHN0eWxlPSJjb2xvcjojMDAwMDAwO29wYWNpdHk6MTtmaWxsOiM1OTg2ZjI7ZmlsbC1vcGFjaXR5OjE7c3Ryb2tlLXdpZHRoOjMuNzc5NTM7c3Ryb2tlLWxpbmVqb2luOnJvdW5kOy1pbmtzY2FwZS1zdHJva2U6bm9uZSIvPiYjeGE7ICAgIDxwYXRoIGQ9Im0gMTg5Ljk0MzM2LDg2LjI1IGMgLTk1LjEzMDMzMSwwIC0xNzMuMTc5Njg4LDc4LjA1NTIyIC0xNzMuMTc5Njg4LDE3My4xODU1NSAtNmUtNiw5NS4xMzAzMyA3OC4wNDkzNTMsMTczLjE3OTY4IDE3My4xNzk2ODgsMTczLjE3OTY4IDkuMDE2MTgsMCAxNy44NzU4LC0wLjcwODMyIDI2LjUzMzIsLTIuMDU4NTkgbCAtMzQuODI4MTIsLTg1LjI2NTYyIGMgLTQ0LjE1NzMsLTQuMDg2NjkgLTc3Ljk1NTA4LC00MC41MDcwNSAtNzcuOTU1MDgsLTg1Ljg1NTQ3IDAsLTQ4LjE1MDM5IDM4LjA5OTYyLC04Ni4yNTU4NiA4Ni4yNSwtODYuMjU1ODYgMTMuMTU5NzcsMCAyNS41NTg4OCwyLjg2MjQ2IDM2LjY0NDUzLDcuOTgyNDIgbCA2NC41NTQ2OSwtNjEuOTE5OTIgQyAyNjIuNjA4MzcsOTguNTMzOTEgMjI3LjYyOTI5LDg2LjI1IDE4OS45NDMzNiw4Ni4yNSBaIG0gMTM4Ljg4ODY3LDcwLjE2MjExIC02My40Mjc3Myw2MC44MzU5NCBjIDYuODc2MzgsMTIuNDI2NzggMTAuNzg5MDYsMjYuNzg4MTUgMTAuNzg5MDYsNDIuMTg3NSAwLDIxLjc2NzEyIC03LjgwNDE1LDQxLjQ2NTQgLTIwLjc4NTE2LDU2LjUzMzIgbCAzNC41MjM0NCw4NC41MTk1MyBjIDQ0LjE3Mzg3LC0zMS40ODc1MSA3My4xOTE0MSwtODMuMDc4OTIgNzMuMTkxNDEsLTE0MS4wNTI3MyAwLC0zOC40ODM1NSAtMTIuNzgyLC03NC4xNjUzMiAtMzQuMjkxMDIsLTEwMy4wMjM0NCB6IiB0cmFuc2Zvcm09InNjYWxlKDAuMjY0NTgzMzMpIiBzdHlsZT0iY29sb3I6IzAwMDAwMDtvcGFjaXR5OjE7ZmlsbDojNmY5OGY0O2ZpbGwtb3BhY2l0eToxO3N0cm9rZS13aWR0aDozLjc3OTUzO3N0cm9rZS1saW5lam9pbjpyb3VuZDstaW5rc2NhcGUtc3Ryb2tlOm5vbmUiIGlkPSJwYXRoOTE3OTgiLz4mI3hhOyAgICA8cGF0aCBpZD0icGF0aDg5OTI4IiB0cmFuc2Zvcm09InNjYWxlKDAuMjY0NTgzMzMpIiBkPSJtIDQwNi4xMzY3MiwtNTkuMjMyNDIyIGMgLTU4LjgxNTQ3LDhlLTYgLTEwNy4xMDM1Miw0OC4yODgwNDUgLTEwNy4xMDM1MiwxMDcuMTAzNTE2IDAsMTguNDk0NDUxIDQuNzgxMDEsMzUuOTQ1MDE3IDEzLjE1NjI1LDUxLjE4MzU5NCBsIDQ0LjMxMjUsLTQyLjUwMzkwNyBjIC0wLjQ3NTY3LC0yLjgyMDc3NSAtMC43NzUzOSwtNS43MDc1NjQgLTAuNzc1MzksLTguNjc5Njg3IDAsLTI4LjE3NjM4IDIyLjIzMzc4LC01MC40MTAxNTI1IDUwLjQxMDE2LC01MC40MTAxNTY1IDI4LjE3NjM4LC00ZS02IDUwLjQxMDE1LDIyLjIzMzc3MDUgNTAuNDEwMTYsNTAuNDEwMTU2NSAwLDI4LjE3NjM4MSAtMjIuMjMzNzgsNTAuNDEyMTEzIC01MC40MTAxNiw1MC40MTIxMDkgLTUuMDY4NjksLTEwZS03IC05LjkzNDE3LC0wLjc0NTYzMSAtMTQuNTIzNDQsLTIuMDg5ODQ0IGwgLTQzLjM2MTMzLDQxLjU5MTgwMSBjIDE2LjczMjIzLDEwLjg0Nzk1IDM2LjYxMTIzLDE3LjE4OTQ1IDU3Ljg4NDc3LDE3LjE4OTQ1IDU4LjgxNTQ5LDEwZS02IDEwNy4xMDM1MSwtNDguMjg4MDQgMTA3LjEwMzUxLC0xMDcuMTAzNTE2IDAsLTU4LjgxNTQ4MyAtNDguMjg4MDIsLTEwNy4xMDM1MjMgLTEwNy4xMDM1MSwtMTA3LjEwMzUxNiB6IiBzdHlsZT0iY29sb3I6IzAwMDAwMDtvcGFjaXR5OjE7ZmlsbDojZDZlM2ZiO2ZpbGwtb3BhY2l0eToxO3N0cm9rZS13aWR0aDozLjc3OTUzO3N0cm9rZS1saW5lam9pbjpyb3VuZDstaW5rc2NhcGUtc3Ryb2tlOm5vbmUiLz4mI3hhOyAgPC9nPiYjeGE7PC9zdmc+;" parent="1" vertex="1">
                    <mxGeometry x="680" y="80" width="26" height="42" as="geometry"/>
                </mxCell>
                <mxCell id="Lm2ICUbB4t9jHjoM_-Ms-8" value="Cloud&#10;Run" style="sketch=0;html=1;verticalAlign=top;labelPosition=center;verticalLabelPosition=bottom;align=center;spacingTop=-6;fontSize=11;fontStyle=1;fontColor=#999999;shape=image;aspect=fixed;imageAspect=0;image=data:image/svg+xml,PHN2ZyB4bWxucz0iaHR0cDovL3d3dy53My5vcmcvMjAwMC9zdmciIHhtbG5zOnY9Imh0dHBzOi8vdmVjdGEuaW8vbmFubyIgd2lkdGg9IjM2NS40NjQ5OTY3NzA0MjQ5MyIgaGVpZ2h0PSIzNzkuMjIyOTk0NDYzNTc3OTUiIHZpZXdCb3g9IjAgMCA5Ni42OTU5OTkxNDU1MDc4MSAxMDAuMzM1OTk4NTM1MTU2MjUiPiYjeGE7PHN0eWxlIHR5cGU9InRleHQvY3NzIj4mI3hhOwkuc3Qwe2ZpbGw6IzQyODVmNDt9JiN4YTsJLnN0MXtmaWxsOiNhZWNiZmE7fSYjeGE7PC9zdHlsZT4mI3hhOwk8cGF0aCBjbGFzcz0ic3QwIiBkPSJNMjkuNzk0IDEwMC4zMzZMNDYuOTIgNTAuMTY4aDQ5Ljc3NnpNMCA5OS42NzFsMTIuOTc2LTQ5LjUwMkgyOS4yMkwxNi44OTcgOTIuMDU0eiIvPiYjeGE7CTxwYXRoIGNsYXNzPSJzdDEiIGQ9Ik0yOS43OTQgMEw0Ni45MiA1MC4xNjhoNDkuNzc2ek0wIC42NjZsMTIuOTc2IDQ5LjUwMkgyOS4yMkwxNi44OTcgOC4yODN6Ii8+JiN4YTs8L3N2Zz4=;" parent="1" vertex="1">
                    <mxGeometry x="672" y="310" width="42" height="42" as="geometry"/>
                </mxCell>
                <mxCell id="Lm2ICUbB4t9jHjoM_-Ms-22" value="Retour Client" style="text;html=1;align=center;verticalAlign=middle;whiteSpace=wrap;rounded=0;" parent="1" vertex="1">
                    <mxGeometry x="90" y="265" width="70" height="30" as="geometry"/>
                </mxCell>
                <mxCell id="Lm2ICUbB4t9jHjoM_-Ms-24" value="Massage" style="text;html=1;align=center;verticalAlign=middle;whiteSpace=wrap;rounded=0;" parent="1" vertex="1">
                    <mxGeometry x="222" y="265" width="60" height="30" as="geometry"/>
                </mxCell>
                <mxCell id="Lm2ICUbB4t9jHjoM_-Ms-25" value="Push" style="text;html=1;align=center;verticalAlign=middle;whiteSpace=wrap;rounded=0;" parent="1" vertex="1">
                    <mxGeometry x="342" y="265" width="60" height="30" as="geometry"/>
                </mxCell>
                <mxCell id="Lm2ICUbB4t9jHjoM_-Ms-26" value="Push" style="text;html=1;align=center;verticalAlign=middle;whiteSpace=wrap;rounded=0;" parent="1" vertex="1">
                    <mxGeometry x="462" y="265" width="60" height="30" as="geometry"/>
                </mxCell>
                <mxCell id="Lm2ICUbB4t9jHjoM_-Ms-32" value="" style="shape=image;verticalLabelPosition=bottom;labelBackgroundColor=default;verticalAlign=top;aspect=fixed;imageAspect=0;image=data:image/png,iVBORw0KGgoAAAANSUhEUgAAAUgAAAFMCAYAAACphSUlAAAKq2lDQ1BJQ0MgUHJvZmlsZQAASImVlwdQU+kWgP97bzoJLSEUKaE3QToBpITQAihIBxshCRAIIQaCgtiQxRVcCyIi2EAXRBRcCyBrQUSxLQr2uiCLirIuFkRF5V1gCO6+ee/NOzNnznfPPef85//n/jPnAkBR5kokIlgZgDRxpjTM35sRExvHwA8ABKgDZYAB6lxehoQVGhoMUJmyf5cPdwA0bm9ajdf69/f/VVT4ggweAFAoygn8DF4aysdRfcmTSDMBQPaifsOlmZJxbkeZJkUbRPneOCdN8uA4J0wwBkzERISxUaYBQCBzudIkAMgM1M/I4iWhdcheKNuI+UIxyhKUPdLS0vkoH0HZDI1BfeTx+syE7+ok/a1mgrwml5sk58m9TAjBR5ghEXGz/8/j+N+SJpJNrWGCKjlZGhCGWlX0zO6lpgfJWZwwN2SKhfyJ+AlOlgVETjEvgx03xXyuT5A8VzQ3eIoThX4ceZ1MTsQUCzJ8w6dYmh4mXytRymZNMVc6va4sNVLuTxZw5PVzkiOipzhLGDV3ijNSw4OmY9hyv1QWJu9fIPb3nl7XT773tIzv9ivkyHMzkyMC5HvnTvcvELOma2bEyHvjC3x8p2Mi5fGSTG/5WhJRqDxeIPKX+zOywuW5megHOZ0bKj/DFG5g6BQDNkgHIlSlgAGC0ScfADIFyzLHN8JOl2RLhUnJmQwWesMEDI6YZz2TYWdj5wjA+H2d/Bze0SfuIUS/Mu3L2weAu8fY2NipaV9QPwDHhgAgPZ72maFnpNgNwKUSnkyaNembuEtYQAJKgAY0gS4wBGbACtgBJ+AGvIAvCAQhIALEgkWAB5JBGtr5UpAL1oACUAQ2g22gHOwB+8ABcBgcBU3gFDgHLoKr4Aa4DR6CHtAPXoEh8AGMQhCEhygQFdKE9CBjyBKyg5iQB+QLBUNhUCwUDyVBYkgG5UJroSKoGCqHKqFa6BfoJHQOugx1QfehXmgAegt9hhGYDNNgHdgEngUzYRYcBEfAC+EkeAmcA+fDG+EyuAo+BDfC5+Cr8G24B34FDyMAUUDoiD5ihTARNhKCxCGJiBRZiRQipUgVUo+0IB3ITaQHGUQ+YXAYKoaBscK4YQIwkRgeZglmJWYDphxzANOIacfcxPRihjDfsBSsNtYS64rlYGOwSdil2AJsKbYaewJ7AXsb24/9gMPh6DhTnDMuABeLS8Etx23A7cI14FpxXbg+3DAej9fEW+Ld8SF4Lj4TX4DfgT+EP4vvxvfjPxIUCHoEO4IfIY4gJuQRSgkHCWcI3YTnhFGiMtGY6EoMIfKJ2cRNxP3EFuJ1Yj9xlKRCMiW5kyJIKaQ1pDJSPekC6RHpnYKCgoGCi8I8BaHCaoUyhSMKlxR6FT6RVckWZDZ5AVlG3kiuIbeS75PfUSgUE4oXJY6SSdlIqaWcpzyhfFSkKlorchT5iqsUKxQbFbsVXysRlYyVWEqLlHKUSpWOKV1XGlQmKpsos5W5yiuVK5RPKt9VHlahqtiqhKikqWxQOahyWeWFKl7VRNVXla+ar7pP9bxqHxWhGlLZVB51LXU/9QK1n4ajmdI4tBRaEe0wrZM2pKaq5qAWpbZMrULttFoPHaGb0Dl0EX0T/Sj9Dv2zuo46S12gvl69Xr1bfURjhoaXhkCjUKNB47bGZ02Gpq9mquYWzSbNx1oYLQuteVpLtXZrXdAanEGb4TaDN6NwxtEZD7RhbQvtMO3l2vu0r2kP6+jq+OtIdHbonNcZ1KXreumm6JbontEd0KPqeegJ9Ur0zuq9ZKgxWAwRo4zRzhjS19YP0JfpV+p36o8amBpEGuQZNBg8NiQZMg0TDUsM2wyHjPSM5hjlGtUZPTAmGjONk423G3cYj5iYmkSbrDNpMnlhqmHKMc0xrTN9ZEYx8zRbYlZldsscZ840TzXfZX7DArZwtEi2qLC4bglbOlkKLXdZds3EznSZKZ5ZNfOuFdmKZZVlVWfVa023DrbOs26yfj3LaFbcrC2zOmZ9s3G0Ednst3loq2obaJtn22L71s7CjmdXYXfLnmLvZ7/Kvtn+jYOlg8Bht8M9R6rjHMd1jm2OX52cnaRO9U4DzkbO8c47ne8yacxQ5gbmJResi7fLKpdTLp9cnVwzXY+6/uVm5ZbqdtDtxWzT2YLZ+2f3uRu4c90r3Xs8GB7xHns9ejz1PbmeVZ5PvQy9+F7VXs9Z5qwU1iHWa28bb6n3Ce8Rtit7BbvVB/Hx9yn06fRV9Y30Lfd94mfgl+RX5zfk7+i/3L81ABsQFLAl4C5Hh8Pj1HKGAp0DVwS2B5GDwoPKg54GWwRLg1vmwHMC52yd82iu8Vzx3KYQEMIJ2RryONQ0dEnor/Nw80LnVcx7FmYblhvWEU4NXxx+MPxDhHfEpoiHkWaRssi2KKWoBVG1USPRPtHF0T0xs2JWxFyN1YoVxjbH4eOi4qrjhuf7zt82v3+B44KCBXcWmi5ctvDyIq1FokWnFyst5i4+Fo+Nj44/GP+FG8Kt4g4ncBJ2Jgzx2LztvFd8L34Jf0DgLigWPE90TyxOfJHknrQ1aSDZM7k0eVDIFpYL36QEpOxJGUkNSa1JHRNFixrSCGnxaSfFquJUcXu6bvqy9C6JpaRA0rPEdcm2JUPSIGl1BpSxMKM5k4YORtdkZrIfZL1ZHlkVWR+XRi09tkxlmXjZtWyL7PXZz3P8cn5ejlnOW96Wq5+7Jrd3BWtF5UpoZcLKtlWGq/JX9a/2X31gDWlN6prf8mzyivPer41e25Kvk786v+8H/x/qChQLpAV317mt2/Mj5kfhj53r7dfvWP+tkF94pcimqLToywbehis/2f5U9tPYxsSNnZucNu3ejNss3nxni+eWA8UqxTnFfVvnbG0sYZQUlrzftnjb5VKH0j3bSdtl23vKgsuadxjt2LzjS3ly+e0K74qGndo71+8c2cXf1b3ba3f9Hp09RXs+7xXuvVfpX9lYZVJVug+3L2vfs/1R+zt+Zv5cW61VXVT9tUZc03Mg7EB7rXNt7UHtg5vq4DpZ3cChBYduHPY53FxvVV/ZQG8oOgKOyI68/CX+lztHg462HWMeqz9ufHznCeqJwkaoMbtxqCm5qac5trnrZODJtha3lhO/Wv9ac0r/VMVptdObzpDO5J8ZO5tzdrhV0jp4LulcX9vitofnY87fap/X3nkh6MKli34Xz3ewOs5ecr906rLr5ZNXmFearjpdbbzmeO3Eb46/neh06my87ny9+YbLjZau2V1nuj27z930uXnxFufW1dtzb3fdibxz7+6Cuz33+Pde3Bfdf/Mg68How9WPsI8KHys/Ln2i/aTqd/PfG3qcek73+vReexr+9GEfr+/VHxl/fOnPf0Z5Vvpc73ntC7sXpwb8Bm68nP+y/5Xk1ehgwZ8qf+58bfb6+F9ef10bihnqfyN9M/Z2wzvNdzXvHd63DYcOP/mQ9mF0pPCj5scDn5ifOj5Hf34+uvQL/kvZV/OvLd+Cvj0aSxsbk3Cl3IlRAEEVTkwE4G0NAJRYAKg30Plh/uQ8PSHQ5D/ABIH/xJMz94Q4AVCPmvGxiN0KwBFUTVCloDo+EkV4AdjeXq5Ts+/EnD4uOPSPZa/DOHXTRZXgHzI5w3/X9z8tGK86kf43+y8pqwgntlBqAwAAAIplWElmTU0AKgAAAAgABAEaAAUAAAABAAAAPgEbAAUAAAABAAAARgEoAAMAAAABAAIAAIdpAAQAAAABAAAATgAAAAAAAACQAAAAAQAAAJAAAAABAAOShgAHAAAAEgAAAHigAgAEAAAAAQAAAUigAwAEAAAAAQAAAUwAAAAAQVNDSUkAAABTY3JlZW5zaG904skk7QAAAAlwSFlzAAAWJQAAFiUBSVIk8AAAAdZpVFh0WE1MOmNvbS5hZG9iZS54bXAAAAAAADx4OnhtcG1ldGEgeG1sbnM6eD0iYWRvYmU6bnM6bWV0YS8iIHg6eG1wdGs9IlhNUCBDb3JlIDYuMC4wIj4KICAgPHJkZjpSREYgeG1sbnM6cmRmPSJodHRwOi8vd3d3LnczLm9yZy8xOTk5LzAyLzIyLXJkZi1zeW50YXgtbnMjIj4KICAgICAgPHJkZjpEZXNjcmlwdGlvbiByZGY6YWJvdXQ9IiIKICAgICAgICAgICAgeG1sbnM6ZXhpZj0iaHR0cDovL25zLmFkb2JlLmNvbS9leGlmLzEuMC8iPgogICAgICAgICA8ZXhpZjpQaXhlbFlEaW1lbnNpb24+MzMyPC9leGlmOlBpeGVsWURpbWVuc2lvbj4KICAgICAgICAgPGV4aWY6UGl4ZWxYRGltZW5zaW9uPjMyODwvZXhpZjpQaXhlbFhEaW1lbnNpb24+CiAgICAgICAgIDxleGlmOlVzZXJDb21tZW50PlNjcmVlbnNob3Q8L2V4aWY6VXNlckNvbW1lbnQ+CiAgICAgIDwvcmRmOkRlc2NyaXB0aW9uPgogICA8L3JkZjpSREY+CjwveDp4bXBtZXRhPgq+SmnBAAAAHGlET1QAAAACAAAAAAAAAKYAAAAoAAAApgAAAKYAAGR60Y5e3gAAQABJREFUeAHs3fnXLUdVN/CTgTAKMjsEfC6CE6KiIMQBIoqggigRBQ0SJlnIAl3L3/wTdDksFaclg6+AiibECAkhAkkEARFRQAScglMYHNDEhAwkb3+6872nnr59zunuc87znOfernXrdp/u6qpdu/b+1t67qvs57cYbb7x9NqWJAxMHJg5MHDiBA6dNAHkCT6YLEwcmDkwcqDkwAeQkCBMHJg5MHFjAgQkgFzBmujxxYOLAxIEJICcZmDgwcWDiwAIOTAC5gDHT5YkDEwcmDkwAOcnAxIGJAxMHFnBgAsgFjJkuTxyYODBxYALISQYmDkwcmDiwgAMTQC5gzHR54sDEgYkDE0BOMjBxYOLAxIEFHJgAcgFjpssTByYOTByYAHKSgYkDEwcmDizgwASQCxgzXZ44MHFg4sAEkJMMTByYODBxYAEHJoBcwJjp8sSBiQMTByaAnGRg4sDEgYkDCzgwAeQCxkyXJw5MHJg4MAHkJAMTByYOTBxYwIEJIBcw5lS8fPvtq/76xmmz004bzpnV9c7rPG1MA/PHp7OJAxvlwASQG2Xn0a2swcbdAMj9tIwD5aM7EhPlu8SBCSB3aTQOiJZui243gCi03XbbbTU3Tj/99Oq4G7Qd0PBMzewQByaA3KHB2BYpAZ1l9XNtlfvc5z43u/XWW2c333xzfbzllltmsmtAy/1kv1N3jtqImwzc5DPPPLM+nnHGGbPkO93pTjPZvbPOOqs+uiepK/U1dTUAmWvKpA3nU5o4sC0OTAC5Lc7uSL1ApQSygFYXebfddvvspps+O6v+0uXsf/7nf2bXXXfd7Prrr6+zazfddFMNlp/9bFOmBMpYfOoNCDoCwbve9a41CALCO9/5zrO73OUus3vc4x6zu9/97rN73vOedVbG9UUpoOkIHJMXlZ+uTxzYBAcmgNwEF3e4jgBLSSJwueGGG2rg+7//+7+Z7LcjQAwwpgxwZFG2cxdAqhsI5wgggSJwlPMbIN7tbnergfLzPu/zarAEmK473ute96qB07lnkvSndLlLwEyZ6ThxYFMcmAByU5zcoXoaEOl2Q2t8md0+++QnPzn713/919m1115bZ7/l//qv/6oBkrUosxYDhI5xtUt3W3uxIGPZ5RgXmystl9YlwCyBEije9773nX3hF37h7NixY7MHP/jBsy/6oi+qQTSgW7JZm/Iyq7gsP51PHBjKgQkgh3JsR8sDvsp4O56Alms333xTbRX+93//9+w//uM/Zp/+9KdrIASGn/jEJ2rLkYUYyxEgshRLAHTe1Dd31/O7PKZx4JgUSxIwBuRyzW/XAWcsSxbj3Sv3+96f//mze9/73rMHPOABs/vd7341cDqXASkXPSCcY9qcjhMHNsWBCSA3xclDrAdIlSmgxdrjLv/7v//77J/+6Z9mH/nIR2Yf+tCHZn/zN38z++SnPjX778paFPfjAksBmgBZLDPXk8rzXMuxTUeu55hnQ58jqzSWYJ53RDvg5H5/8Rd/8exhD3vY7OEPf/jsEY94xOxBD3pQbWXGZU+97XbyezpOHBjLgQkgx3LukJ+DicGtWHssPxYgS/FTFQByof/lX/5l9s///M/1bwsvn/nMZ+qcuGIsuHQnYOOYnHuOuV9ecx5wa19f9tszZU5Z1/RJWyxLViWLkUUpc7uBpHz22WfP7n//+8/uc5/77FsNX0Rn2piOEwf6cGACyD5c2rEywLGCpBpcAAlgFC/83//939l//ud/zv7xH/9x9rGPfay2Fv/+7/++BkgLLiyyLJbE5VVTCSargK4s61lp1TNNqX7/p/4Ap/6xJrPdSF+52axKFuVXfdVXzR760IfWMcvPr9xyQMoi1ldJfamzHwVTqYkDcw5MADnnxU6flRZjLKysQCeuCAyB48c//vE6zphVaUeubGJ+wFEaAxzLntkkUGYwApRxxR2z0p1VcBalBZ2v/MqvrMHSIg9LU/gAUJ52mlV1QK7PqXk6ThxYzYEJIFfzaCdKBChYVKwplpRFFvmaa66pY4wf/vCHZ//wD/9QXwOKiS8CxLYlNRbMDhog2+2FD46s4s9WC0z3qizHBz7wgbOv+7qvq2OU4pXc7/tUK+L3qNzzWJQmiAoiJ5DcCYk+GkRMALmj49S40fstHm602CE3mtVoscWiC4vx3/7t3+p75dYc1lMWXDbVzTZgbarevvUE2B253ixKcUqhAxalWOSXfumX1os6gJJl+QVf8AX1yrf7DUg2ranjsPvTt99TucPhwASQh8P3la0GCBQEBIDPAosFGIBoVRpAfvCDH6wXYOxf5HqylgKKUf6yrpUNryiQOlcU29rtrr6wqgGlyUPfudhf8iVfMvuyL/uyGijFKLnhYpcNj+5SWJGTRbm1wToJKp4AcscGsbEcG8sGGFB8W3XsW+RKizParsOdtiptYQaAylzpxBe31a1dBEh8Cq/0OxvQvcZoMecrvuIrjoMloGRR4hMwLfm9LZ5N9R5dDkwAuWNjR2Ep+223NRYRq9E+RrFF4Ph3f/d3tQVp6w7wBFhRdl3x2/PbSrsIkGVfS6AEgFa2geRDHvKQ2prkfrMoueI2nCsjJx12/0LHdNwNDkwAuRvjsM+Sibsozvi3f/u3tcXInQaKLMkbvf5XWYzAIAqd47a7c1DtLOpHH/AvywA/E4hVbZZjNpzbIsSyFJK4053OqnjZvC2k/GH3cVHfp+sHz4EJIA+e5/taLJWZ4XfrrbfUr/1xp1mLgDF7Gb0u6JVAKfv89lW25R+7ABwlv/p0N/FJbrc9ktkSZP8kkBSrZGHiZ8IT+rkLfe3Tv6nMdjkwAeR2+buydgosx80Tb7QifeWVV87+4i/+ot7XaNU6H41IhdtW4G3Xn34MPQ4FSPWXzwBK25+sbnO7v/3bv312zjnn1G/ruG4spMmSrNlwyv83AeQhiwDlpZT2LbIQ86601Wkr1WKQVmdLxT0oktsgidYSbEJH1zX38nyO5bU8O/S4qK1V9YR2tAA/Czjik1/7tV87e8TXfM3sEV/91fX2oOwEUK6ke1X90/2TkwMTQB7iuJbK7r1pLvXFF188u/rqq2tX2mbwcgHmIEgNKIS2/NY2kJZzL/T4HQDPtQBMLLH8dr+sM+WHHNvt9322bDd7KLndYpPnnXdebU1ywS3epI3ymb7tTOVOHg5MAHkIYynWWDl+dcusRosx73jHO2bvfve7a5AElhSYkgLIg1DSAEIJgMDNJmw0NK/sNe/puR7gdt5O6mrngKsFqDKnPfWkrj79Db3ttpf9LusNDfphA/nXVFakN3G+4Ru+YfblX/7l9efVWJNS+dyy+qd7Jx8HJoA8hDEtwYPVaKX6da973ezSSy+tFxIoZgBjDBCM6VJoAsxAS/vAMa8rit357brzvL7XBZSfY2lWQKiu5PJjEza95wMbAaoAcWhfBUpj+NJVJ/rQoB8syac+9amzb/3Wb63f6/bx3jyTY+ibjqcGByaAPOBxjiXlzRdbdv7sz/6sth59fccbMoBC3rRCpr4AC1BAi+vAASizpIBfzv0u/xyC3+4BTZlVKQPNAKX61A148s64Baa8AinWmj/lYEVefNU1x5wrGzrVG9pzNGS5P2T4yufzXMbDb59Vs7LNmnzUox5Vbwny9o1+n346OvLUdDxVODAB5AGONNfaNh6A4as7FmTe8pa3zK644orj20yADUUeAwCLutJVn/qBAzBmDdonyGKycOFcFovLH9UClLKYXQ2UFWjc6Y6tMWiWA5axGh31FSAGAK3Sy/mjYPk+pe9Xeo1SyMHbQSxM9KlXCj/avxf1uet6F0CmbrS6r79WuL/5m7959shHPrIGTHwxIaTtrrqnaycnByaAPKBxpeAsK5ajbTzve9/7Zu9617vqmKPVapaSvK2kbRYdJWcl+jMGrCOA6K0SGRDIAcf8wSzlk+MKBwyBSrK6nccqc9RuLEogBPhiWToHlvmOpe1MMqBMzt/IAbChPe0FNPvyzHOLElolY2BiOFb9TRyfT4sl6etArOeMkbaX1beonen60eLABJAHMF4sx1tuubm2omwAt4XHgsw73/nO2r0EFJRfHqr0y8hv10WhWX+swL29vfqVO3E3GVAGLB2VY1luOwE+FmYsSRYkcMyX0PNtS9cBbHgE0AKUfWlcBWj4pQ0giEdA8uu//utrS5LbbfIwaczrMTn0bX0qdxQ5MAHkFkcNMFqtpnhcSqvTf/3Xf11bjmKOwJJ1Jc2Vrv659n9Rdkd1sxiBYv5Mge0svnpD6QEiC7F57a75dBhLsQEjpDQr7msTVVSQ/gIkPIhlKf4oJsmS5Hb73mX+dATL23vpYpdcdzTKfVPaXFY+wKvv+OItG2/dWN32dSDvceMVEM34LqtvM/cmIN4MH4fXMgHkcJ71fgI4UX7KTMnFHN/73vfO3vOe99Rbeyg6pY3b1rviJQW1GSUHeFlwAY5ffcdmaK/XcaljKbIWK4jutIbUt420DKyAJpDkeptYrr32E9V76B+vwxEmFotbrMyAq7qSl9G6rM3yufBQGAFv8MvijZgki9LfwOGGS9viT0nPiefdY3ViuenKuhyYAHJdDnY8H8uCQnIfKTRw/NM//dP6M2VijkAzQNZXcTua2ndJfbHGKDZrx+t0MoC0+MCSBI6soMQTuwB6UzTtI3DBjxJktHvbbSaW+d+hwUNAyXr0wQ5bo2R85IoDssRE44J3NTWkT6FJfRan8MwEIybJ3Za3nSJHaAk92tSP5G3TcKrXPwHkFiSAYPs6DLCyCRw4WpSxpYclKd5G4LuAaQw5saSABKvRSiz3mUJbaACQ/iSBxZcmtmhFtgmeRQnb7Q4Bk/azQ3+3ld/z82u2DTWLOyxKlqPQhM+/4avvYrpusSc0A7V2yr329WW/0WDSMU4mExMMN/sxj3lM/f52whPKyRkH4+65XE89jkkBOLQ6d5S1JRtL15s6GnlqPxurf17vZFmGR5s6TgC5KU5W9TTy38T84ib6Eo+tPD48werJ13g0O0Zpu8jljrJIucwWXCiwd4y9ESKGxh3MvsUo4rye3VSqudI3YOk3nloBx0OTzEc/+tEaJP/8z/+8XvhyHzDFMp73cfyZdgNmCVlwtb/xG7+xzixJbWo7C07GQizVNWDpmPP0CwAGCDOxpX5jJTTielKea343YxZ5c6+kc1NylbZP5eMEkBsc/QixI9DiAv7VX/3V7M1vfnOtzFZiKQzF2IQQq0umSJSKdQMUuYG+dQgsWZNtwAidur4JOjbIwuNVRfmPXyhOgI1FnWuvvba2yFnn73//+2t+W9TBE33El031T33J+RKQhZtHPOIRNfihx5gLBwBHvwFnxiggGd6jTQ5IGqMAZOLGxjSLZ+6x/q2iu+68bUGe2NfdnPyKodz50wkgNzhEjQL5qMPn6hVY71fLtvNQXMLOgttUiiJaRDhWbUl5/OMfX1uPVqjFzChfCcYnKtCmKDmYegKaAaoApdgk6/yNb3xjvUPARASgAAkQ2lTSLtALqOVbksZBBo6sR6ConBRADFDmdzk2xoVcoDWAiHaxT16BsZSNqyxcYg9r6ij7Fxpdi6wd9XEv+3fQ5xNAbpDjFNibMrancP8uu+yyGfcvf3GQFbAJYaV8MtdZXNHKqg8tJN7Iyrjzncs/TLW7luJQ9gck8xw+cLltKP/Lv/zLOotLWsyxsAMoA0AAYx3+A58AkCPr3H7JWIfcf+fuJaW9jFmuo0VOWeXkgC+wjEXJWgSYwDKb+I39A+7/gNl979ds7ncPLdnMrh6vRybWnHan4zAOTAA5jF+dpaO0BJwV8YEPfKBekLnooovqD1EQcC5UlKWzkgEXKSFlzNYTH339lm/5lroNihWlWxcQBpB0KEUDOuErMLQIZmKyY8CGfMCJD/jPOkvZsQSHt54vLUW/1d3Orktd7aor2f3UnWs5GmsWaupRFgDmq+gmRjsWzj777NqyJG/AlSyU7Tb1T253zcie/00A2ZNRi4rNjYXba2vFKusll1wye9vb3laDo98R1kV19Lke5SHw3C1u1qMf/ejZN33TN9XKwd2LMpSAnWt92jhqZQIg6aN+X3fd/9Z/w8eGfPtNLZLZSQBglFc25cf0N+Pg2QC089RZ1p9r7i9KZX3K5LdjMiDuskztx7Rti1VJJvwWd7Yw58gNZ2nyKEwOzSTNim6oaeQE7Yuom65PALmGDDQCxp0iYbfX200szLz85S+vF2biRjmuk6Io6mE5WIABjo973OPquGPqjnL1Ucw8czIcy347B1wsSVakjfkWyoCkVWYJD8emtDX2+aHPtceybD+ehH45B4RfUG3venj15g/rkmVpQclkKhzgPhk67TTyOA8DoKndzlA6T9byE0CuMbJzgBR7vLV2rVktLEgrq+JGZu51UqkQBN2eRjFH20z29ppXB9V/qlsD6T/FxzN7I6+p9kv61qaQB0vSe93ilXFX8W0MMJRjoo7DSugwGXDBHbnUd6u2B33+HV9iEpf0aqk/dcvDcM7aBJa8GrlJcxNysib3j+YEkPv5MehXo5SNkJrFraLa0mOxwKtx97jH59UguY5CEXwWD2FmFfiYK+vRFpOAb+gYo+yDOrzjhUs+c0utKFsg85chjYlJy1tN9lBK+DWGZ2U7h8WSLrrJin6bAHwc5eabb6lfGIg16QgkrYQHKMlWaVF31XtYfdyFdieAHDkKjZI0AW/bSuzJu/DCC2uA5M55swOolcI3pilCL84kCA8UxRxZjqxJdZd0jKn/ZHmmDVp+A4tPVzHgf6isx7zJlK8D6Tf+jQGEdluHxcM27ehKv/VdJoMsxsQoyQ6LkusNLPNeufhks8CnN4373a7/sPp5mO1OADmS+6WSeO3tIx/5yMyqtcUZghXhynFoM+oXL+Kmc6t9wNUGcO61/XFnnJH9fc3Cw9D6T6bysaD1ybnXPIU8WFK+CmTLjzikVz0BpMnMuJxsAFmOacCS+y1LADB7Zh/2sIfVk+6xav+s1W8gmrd3ypj5WPktaTnK5xNADhy9BhgbyzEuTf5sgqPVU4LYBMPnsZ0hzWiDggNCs709jgDSmzJWJ1kFjeA2dAyp+2Qp24xDejPnA77ZasWqt1ADHC2cmcRsJude53VPPBwDAPvbDg0Hf2zT3kVXZBR1ytsCJPNKrHJ784p3AiitfrM073pXb+nMF3Ha7Rx8Tw+vxQkgB/I+QkhoxB1l++4uv/zyWgHzdZmxrjW3SAKyPjjx2Mc+9njMETia5bMKeaoKbsYgQ+c3vgFGizP2PhoHCzPXVAs1gNLm/bxhA0STxvKwTUPqO8hjm/ZlNLknA0z9J0c2lseizLcu/Ra+seJNBpPabeX6yX6cAHLgCEcICQyl85qbhRl/V8aeRxbK6VVs6/Tq/tCkbgsLwNVsLqj+bd/2bfWntQgugW6Ad24xDW3jqJcP/8t+2CDuPWiA6G/9cKNl1qMxcY+bCUQ9X9ZxMip+2b+ST7nuSI5kC33A8IsrN/tYFZ+0hYzcyVbBpaq4/0dZ2548ymkCyIGjFyHzGJfNCqm449VXX12DW+I9YxRP3ZSdC8StFnO0ai1eJEZEmJUZU/fAbu5k8ShqiOMqyxbFrE7b0gMkWYzefWcxsvABI56xiNq8a/9O3Uf5WMpoVz/SZ+VYk37bUH7/+91/duwhx2pwtCC4VwEmV1xIp4lLnnoT8wSQXRLUcS1CR5icc1V8wuyqq66q39hwTojKAHdHNQsvpX5KbGXxCU94Qv3NQV+L4fJEuSPcCys6yW6EL+lWw3+/bq+tRZMUYLRIxmJk1XO1TVSeTfZcF++6rqWto3ps86zdj7LP4Q+5tZJtUTDfEjVBn3POObU8AskqilnlU2uCngCyLT0dv0vLhXBRwOuuu776Ss87Zn/yJ39Sf7SV5QLEGhe4o5IVlwAuIRVnZDF+53d+Z72tx541izVoqJo+5VKUHX+EH1iEsRiBoj/BABjtdxR/5E4rKxmLVRNWCRYnC3PDs0X96eoznuU5LrdJ2bv+XkgQn9yrrMl8DANQniqyOAHkIim643qEJsUIFyuFUnqVDUDmb6RQxi7hy7PLjlwdLrRtPBZmxB69KmZWX6Xky+o9ave6+E15ucniiYCQte5P5lqZtgiDP+F9yf/yfBEf+pRZ9OyuXm/zsE3noj7nOfwmjzaTi32zIn0Qxd5JE/ipZElOANmWnuI3gSEsMpdNfJAVQym5dRTV58xYLa5Li4SvqPaEU+0AQkFxwCju6Ivg9qedSqmx1C0KNIAYftvLaO+iBRgutaOtO1arLYqx3PGvj8XY5ueY8Uodxi0y4iipL3QEuJd5FYBfjpzV51VdFvny/FAaQ0vobB9X1YcGvMdXVqMFG+62cI8vqPNoZPWsqqvd9lH7fcoDZCPXhLtxGyJcBt65mZSwcO0oI2X1vUGvrnHvKKw0VlDSHnDkTj/taU+rP0DBxRE4z/2x9dfE7fB/c/43ROonBTXheBuJO+3bmiYie0y9V40nrG0AAnz8Hsufsc9pcx+oVZOohCZgXWa0drWjDrIlZwK2uV296gnwO+96vuHYif+rd1nqU5c6yD56yKG4pE/qPfGJT6ytSpM3uuSTOZ1yABnZqfTweHLNb0IRQQ0oWgmNBcO9s7/uE9WfIf3Upz9VAybQlPoI3fEGixMCSBDFe6xcE0B/U8ZK9llnCYw3tBWPHPnT8DsdiTLiPX7kLxiy1IGjLTu2UwllCG/gNQDahIL2GbcADuA2VgDPooUxsqgRMHRdds1911O2tCLVF3ANQDrqu/i2I15oSzZZ8FICpOpS99jUp8/q1l90aMu+SVuAWJHk1B+Es8INPNXXt86xNB/Wc6cUQEbQw+wMaq4TWoIoU9JsOObScakpq7gXoaUEUYjUN+bIStLed3/3d9fg6F1rYBmaQuOYunf1mbJvwJJLzUIHDiYkE5GP3Xp/+t3vfnc9QcWawnM8SR3r9rEPf7UlB6AsYgAGb6LYcWALFlfUdUfAmdf2ACVZQT9AVw85C/gAIFndeGDbUmQif62RFW1i8PvGG2+oAOusun5970N/m0dDnyHv6NNnb9r4zJ4wkMUbMcpMVEPrbdO1i79PeoCkgN2pEXpKSTCBVPbU2UNnLx2rReyLBUloCSjgJOQE3kxeWgbd7XRfLZWOspx//vmz7/u+76tfLRQId186GYSuawyAIqDAc3wFAHhtAhJfZKnjP3BgUVFCvHbcZFrG34AYUAZ+Fi38qVeWE2C8733vV+X71PG4AGMmzoBGrL2S7oBkrEjtJOtrCZR4Y6Img7IJhCwGSB0l/ejLn2V97uJtAD2WMmBkTVrhFpM0UZgkQkdXHUf12kkNkAGZcnAilHFfCJzV0WSr01w623acE04zPIuAohBCAjZUyEoanIcOQEupXvSiF82e+cxnHt9KEdrXbafd7mH8Tl+0HXCI1ZRJiDuN52KMQBIwAA28Cc/z/Cb70OZvaHXdGJETyg8EvBcPHMSKxeTEjVlVJTiu4/qGN21rEi/IaSxJk3cmcHKLRrQCYXS3+9Tm16r77fL5HWtXv00SLEkr3HZb+DJQJoWx9aedXTqedAAZAW+Y3Cy8OI81wFIkbHGhxbVYjKwXykrg3Bf3SVZnLMY+ArhogNUT4QlACHYfO3asBsfv+q7vquM9AKGyCaqyi2ra/evzcdjfj9JixPds1alju9VvYKAMkFBH2yqa17sZHmQ81AZkjItkQmQxAkPKn2y8XAeM3GeTZiyr0NpYzAtdl7r+/f/NeaR/ZBXoocWRVSnHiyGjLO5kchtrW5m48wHM/W3NvZKSlyUf2uXzO5O6fuq7CYMl6UMqdl0ATd9AlY6y7Ka/dT8qc37ISJbP7tx5WzANKGGjbMCO4hGugCEFBZAyAfMbgCqfAHzNpB6zch9mlAIZV8r2CXFHizOOKdNHYPu0eRhl0gdtOw/w6HNcaW60zGoU4zUulDuLG4voLuteVGbo9dDoOaACHMXaxNfEg33txjkA4GKzatG5KI2hsc94k8sSKOP92E2RHRVkGLCS+9ChT2XSVu7lep/2Uzb12+pjt8W5555bW5K2AwkPAVD1Dakzde/a8chbkPsHej4TExCxHKvMgv4Eh4sSi9GRUgJE4Enw5LgrrIJFM3AGcYwAoFcW+9T2U5/61NkznvGMelXQGzTpz5i6Q9dhHEO3tkvaKZO+moAAYT4kEauHxQgYKb8xixW2qA9lO4vKtK+jx3N5NoDhtzbRKLMGff7LOPgGJ1BkMQJGgJn4YrwJ7aRO52W//V4nVaRVab/tkgk/1iW5xVuxSfJ9TRWmMOlYTOSCu+4ZYF72eR26PKtO/VYnnuCV1W2TfPZJalOZTfJkXbrHPH+kAbItRAaO8BAaiid+GMXkwrFeEux2n5vtGYlijpn5hgqA9mSAID/72c+ePf/5z69nXooYhRta75jB39Qz7XFQL8BhsSd2xpW2fxRAmrBMXO7prxz+r6Ip/FlVrryPl2nHuQwYA8iJA1t4YdFTclYja4grHYux6zNzJT2bHLOy3rIvzXljCJAjfTCxk3kgib8+DozXJiQ8JmfSqgm/qbv//7UxUY3d3atV+73qVcTv+Z7vqS1JgIlvAeVN8qU/dZspeWQBshGgucVIST/72WabhC05NnATFjMpy5GgEKJYKgZXjiCeVs2GQn5DB3No+VgsrBWu3HOe85zZC17wgvrc7+P0VEp8FNKJ49BYZfhNSb0vnQUvCgw0jQPe44WkjiHKGx715U/GyHM5RwMPg4vISvT1GsBI0cUdLcwAxliLALySjur5vq1urxxZj3WpT4ASP+N+84zw3MsMNtcDTBMWq67vRNSHem3LxhEg2h/pNdknVB9awcdYriXf+9S7S2WOJEBGQDKDUjrWILeZdeITZGIyFJIVSRniPlOQMZbiokGLwi26375OUIE0l42F8sM//MO1FRnBTd+G1ttu5yB+h9aMg5ABy5yVzmK3l9E4mKgApvuZlABiAzoNpUP7S+n6ppTVhtCJySlWIWuHSw0grcZagLGlB31yntXWUBr70jemXBddrhkL8kUXGApA0l5ScXdjg//K6EvymPbzjDa1ZyIhzxZrLDaabKz0Z9LfJd6F9j7HIwOQpUDoGIYDPXEYSshSef/73z/70Ic+VL3l8unZZyqFzKAQdCl15Hp9cc3/htZFmNDtxX/xLnsfvV4YhRxa35rkD348PGwebMypm2++qQY/8S+WO4vF0QRFKfWZleHZ8vmyr+V5H6LKepaVD3irH49ZhkCQIrN4Emu04GBhLhZj6MlxWRu7ci88CUgyDBgMrEkg6eMqJiox30zI+rduH9Mu/rK+bf2xsi1b1DrK6UgBpIGgaFwjgy++aK8icDRbirmwXIBmgu4sBkIfkCwHKwNbXht6PlS4gAX6WC2+3PPkJz+5ztqNsA6tcyjNY8uHX8aAJaIfrELjQBGzkireCByNk7J4r09dYxBahvY5tOT58hgLCQgYezJgryJg9KV2W3by1Wz7G0slrkSsSrFOd8OlLvu27Dy042X4Awx5Uax5IAksr6kWc4wbHSrT0DEon9UemTABkW2byH2y71i1hY37XXoL5XO7fr7zAJmBNnhRSjFFCvne9763nhWBpN8UMMqI8QbFc8ntwUjd7etDfg8VqgAkBRWv+Y7v+I76U1KUWirpH0LHtsp28Qgwytku5atGXDkWpGvlOIQ/OS6ic9X99nNddCnjOlBWnxgYy1A4Y6+KibHYudF4T5FLizH1D6Ujz+3SEQ+SyZX8mc/8TxWL/1T9cWd/XI4xQW/cU3YTcqcukxGe4zHZfuQjH1lvrhfS0E5lBlRjs0vcWk7LzgMk8gk8YDETWnSxjYErzVKRxR/NlNm0m8GOsOfYZkUzYO2rw34vqntRLU1Y4MbKxfu6+n3Wc6s9ZN5ImAuq1+l2Q4Jqea46ctttzVYYtLM6xLeMA96zSLIYlngvJZEzDot4UV4fysdy7MI79bEYgR+rxa4AcTGLMKxGYQ0WpByvounj0bQYS/6V5+lTeIS3PCqTGitfjJ7+OBpL4yYpN3QcynZzbtzx+tGPfnT94RXWJOtdPHICyHBp5DGDWw4UcASAlNFnr8yA73znO2vQNDPVZQ0u9t8xPeXYl4wIU9/yKTe0nYCMRQEfIfXSv5hNlPz00w8XINt80D/8B4wUyVYpyiXO6LVASgYMAU5AZyhPhpYP73PkWcgSV1pcMdl2HS6fLTzuBbjz7FFT2Dnd/c6iTylNj2Telyxuz+CI/MXrSvmhR/WQF2ELb9qQbavaANO1rq1SQ9s4yPI7ZUE2g6n7zYxu1jOY3DZBf8pIMbly4l4UixvlWCpZed6XmW1g6PucckPaE5cT/zGrij96e8bnzSKghwmQ4f/tt8+3jaDXqrQxMEGxQMR58d92EvcCjpSL9TA0DeGfuo2VDBQ/VynkvSqLkdXIYrRyChz3Kpea5ciCdJ07DRwbBZ1TWInOSZ8yrjp6663NLgo6xANgcJjojKcFHGMxdDxKBhoXHh+99M42F9tHoLnc3mPPGBwVvu8MQDaD2MQoACTAACRcOfvp/NXAfKSWYrAGYrG0wW3MALfrKAe9z3nfNlliVnYBo7doxCFtTj5sgCz7jxbAiE7x3muqoL4xyOfH9AEQUgIW/LqpL+/SDvooIWvc8Vi1EAAUxRfFGb0Bw41mNTZuXfNk2ceT3XIMr8pj038AOKt1S2iKFQkkxZHFJfFWGjomZTvO1cPAMSa8pMc+9pzKmnzs8b2l7fK7+nsnAHI+wzVWgVgJ6yR76ShnuW0E84HjokFcdH3VIOxXoLmQtK931dO3zQCkLRABSO522lBP37q66BhzLfxnOeI9YDQxAUZWRhbBWJGyCQpAshiNw7ppVX/DG+1SOtYgixEAWoXeq6zFZNtMxB9NoMDxzDO7Pyx72ilgOXaNS8aaJWmsxY+NsRVuK910DnDG1cb7VePT1U4AkkUvzAEkudrGSzzyqKQdAcjGpTYYNn17De1jH+NSf6geOG6dQYvpjrnOlY/ylAwfM6B5PvWVdZTtlNfzjOOi62UZ5wFIn6//3u/93tq9tt0nqW89Kb/usVGY+dsY4ozcLcqSYL7fQBPPoziborNPPeG/9gGkt19YiD4kIVuA8Tt/piI8yVjmd5+2UvZkPjZ8MUPcXluSjJFYku95z3vqybHNq/bvVfwBkCY0kxRXG0DaQC4uycKXhta5qs1t3N8JgNQxgs9lMqMx9bnTFJT1IjaC2RIFlQzAthNBopRyrKZ2kH/ZIHfdC0BaubZJ3EqfDctJXc/k3qaPURSWIwCkKPaUZl8p3osxCnUYH+XRtykaV9WjPeMca1UsERBypy28BBhZjCxK7r6dDE1qTMRT1VJcJSuZGMk1mbRNzl5if6VTTFJohT7i/aIxXzZ+Gbs8y0sSixST9JYNPVrmBa6i/6DuHzpAZqAoKCDMu6MAklvNDYjlYrC2mQxqmQ1uLKZcdy2Dj5ZlNHUJUADy3Gp7z9Of/vTjfy1u3q8mRjT/vZ2z8B1vrTrG1RJntErNvWZN6quUfub3Jqjq4k/4HGAU5+RS21vHVfPVGOAo4M9Vc90YyW3auurfBN0nQx0ZfzzCa2DIvQaQdolYDDX+MQgy/mXf+/A3ho8xA5IMA9mYsi771FG2edDnhwqQBNrgyFZIbTfw944NDmsGaLqnHEZuk5mhBViYVQEHi8T2BCuhrBSWFKuKuw/o0BOLtmvguugNQIrH+MwZ65HSp58Eseu5rvrHXmuApAFik5KtO2JQwDGbvfUVL5JCU/Nsrq5/TL1qUjfeUyqZVUixLLwARK4ZqxEwctuy71UdTT0HM7ms3+vdqSFASd7tGOG9veMd75i97nWvqyfJWHpdcl6O3aIeqdeY2qwvZuxvL/nqT2KRab9PXYva2Ob1QwNIyoA511/f7MsS+6CkzHuWYxRxLvybZUPT/txiDDDFGmG52Ldle4LtIgCSG4LGfJUGbbFcQm9JZdegByC9ZfBDP/RD9TvB2jhogCS4QAivuVb2lQJI8V80hh9lf5x39bNdZujvcizwk1LepbIuzq7caRMIlwyPxBhZjO43fK8pOt5cF7+P35xOOjlQAhQgMzFa0X7FK15Re3OMAYk+tFMffmdsoysAUuxdLPJBD3pwNbE1tfapq93+Qfw+FIAM0xzNWGJeV1xxxeztb397bbVQ3DAsx00yQ7sACUgksxatfLIYWSrcuWPV9hExL64AV18g+4/+6I/qlVw0SuhLHW0au2gPQHpP1Zd8/PlMn60PTzzT9Vy77jG/tVFRXAsl65zw4/tb3/rW2r3yVoW+KLeIhqaOMa13PxPeUU6gzFrHd1ufgKLxEHsEjMYocauGvqYv3TVPV4dwIPJnPHhJ3Owrr7yylg1bvrjExqdMi2SkLONc3caXR2Kx5vGPf3y9vc3Ep85Fk3G7nsP4fWgAaaaipEDHHkezFusRGFEEzO87AH0YFwEwGJRMZolw08yOzH95b2+vVlAAGcuR0ACPq666avba1762tiRdC40B2zYdXfQHIG0S97FcIMCNrLGrWlXseqZd79jf4QF6hTRYjm9729tq/t9QKcHNVRyKZdZWhLI9dayTQoM2Yi0aA+POSrcAY8KweMXK4GbHegmP0v42eZU2TpVjeIunJk7bvMj761//+lregZsxK2VjCP8ZFOKcZJ3MP+UpT6kXbYxtJr1d5PWBAmSUC2MFhFmOb3nLW2aXXHJJPbsAnSjoEOa3GZt2yuuuqZ8yshQTEwGCMmUEju7d7W53rxT2LsctFmBu/x8LV2wG7QacsBjcRamrDwFIrsYFF1xQgwFQKAV0UX2buB5BZTleeOGFdcyRMpTC30V32u7ibe71OWYyMQ4mQpMS1xkoijXiBaudxQg028qzjLY+7U9llnPA+LL2gNlfVR/bvfRNb6pDL/Yiu2fMIgNDxsK4ywCRjj3vec+b/eAP/mB9bpzH1Lm8J5u5e+AAifEAR7wL4LAcvQ8aK2II0xexALPlWHksRQPjQ6iAMfvoBPxtZOXWUUrHEihSv+C1+CNrq7QglQXoUhfdXdcCkGZQf2ohiw8VuVXargWphWzAf+Mb3zj7gz/4gzreaEwAUfqiXFeKEHfdW3TNMxQjvKJgFMJCS76yI6SRCUrwniWZVLbZxc+Um46b4UDkUG3XVDsZeHi+I0lXya6UccixvtjjP2NJ1ujlc5/73HqRkg4KoWSch9bZo9m1ihwIQJadt3WABfamamYCNtzsWI2UaBNJe5RS3BDDWSMUL7FFoCTOxWKkrMAZiHZZg54PQIrVveY1r6kXaVxPTv/atLvfTgFIgeof+7EfuyNY/aBKQJTcDkCGPvTYwhOBt6XDxCG+JHXRW9+o/ksd+d33aBxYrXgLHE1OlGLvjlAGq1E4wzi4r1wpB8to6kvDVG4cByzY8S6urGKRF198cR1mogvGxBiNGZv8yQ17gBkJXpIw/pGvMXWO612/p7YOkI3iN5/MEsewamorDyXFeLMJBd0kY9Qpqdd2kCikgRD0ZzUCTBZMwDnsClDlN7qAOEEBkL/9279dCwpQDc0Z3DyTY+7nt2MA0lfEX/SiF9UAyXpNu13PlM8PPQ//ffVb27ZwWGiyCd8rZnF1l9W7qH+LngGKsnEAerEWWQoZC2GNWO3cbAonhw9N3SahRa1M17fNAYszANEOEyEZk6uteCYxeYysqhMOWITzkRahpkc96tF3jPPujfdWATKKhZFMa8wGjr/3e79XA6Xd+spg9qaS+mKx7FVWiqCwrSICwwAy++eikO12M+gl7YLWrF5C8spXvrJ+y4DFk1k0ZRfVVV4PQJpBX/ziF9eWrPeHAwxpv3xm7HnoUqc+eGXwsssum/3O7/xO/Vu97i1rM3WsokEdyspiWLJxAIpW6o1D3GiWPNC0AJMJKu0so2UVDdP9zXHAeJjgjCNQ5GoLMTES6KuJb8xYZfI0KfLixOGf9KQnHdelzfVgMzVtDSAbheeaNe9kin1ZNQWQgMaqsJlEwugxzA4LopiOFE4skYXClZYBI2uFxWhgAdv+NDdTKlLqVCpsAPLyyy+f/dZv/Vb9+h3rVFvLUlefApDf//3fP/vxH//xWkjQ2/Br8y52eGPrhreTxJLwX/hh1cQUHizro3tp46abbq7GcVaDX6xGFqMvugBFE4G9pSYp43DWWV1761a1tvn76WeOWmjGbi4X+1ttJoKyTORmf7mj/eu22/Tzttp7ApLA8c1vfnMtO1nV7pLxZb2OrNAd+shI4E3RJ+GeXUtbAcgIGuaZhZjVtpWIeTHXvU7oWtzUsvwYBnk+MxPF8wkx20R8yMCqqNnKACSlveY3cM6d+TFl9CEAyfr6zd/8zeoVrP+sVt+aV9yWCUjXvQDkeeedN3vJS15SA4e43DYB0hjYQvXHf/zH9eIY99q1ZQCZ/s85sv9M31Im7rTFN4JvUgKKpeUopCEWnDbT39Taxavc2+YxdOhD+oOW5K62lVM+HkTKHFYf0v62jt62yi6OSy+9tDZueH/G+kRjYzUV+CdsJe7/spe9rF6siXyUY7C6pu2X2ApAlmRTGu/5UlAzECvSmyhM9zEWWFm3cww1SOoChqxFf7GOS80yM0sBxzPPHPbZq3KgAKQVPQDpDQMLTZS9rSDoWaUk+CHU8AM/8AOzl770pXVMFIBHUVc9r40+SX2An6VIwLlIANLWKq42BQ//09dV9eqvrLznudDG0bYNK8+AXnz32B0LYHt7e/U1FqOQBAuh/cFabaLzIFJ4jP6Gz2m42ds550MmzdxvU3eiBdkucVB9are7jd/5s8reIrNuYIL1hS2TXSa8Ie3icxZnzz///PqzfxbrHvhAnlS+R2kRaEit2ym7VYCkRL4GY0sP5toQbrsMxZL6gEGfMqxGW3js0PedRfEurp3rZqm54DdM7FNnnlHWap43fgDkq171qhpwxM+ARZlW1atOFuT1110/e8YPPqOePYUCmm0OaorilrUOPy9pD7h7ldDOAYtNQFoZ9KZsn1YAKoVIbAo4yvpg8cuKJKudKw0sudOAMXzZ31ZAqE/Lmymjfblt/eVaedSi3+2UvjhmgsxxUdn29aP2mzttomXk+LguWeIJrgOQWQ33woTXbn1AmoFjbKRFPD1o3m0cIAkV4aFEmCD2ZUc+C8bMw5pJirDld9exq4w25AyQ2Ydi+lqIDz+If7HwKHQDYsOVsVQOILMIILvo6+qHa+q0WAUk42JvGyDFen38w6tj4o9iwcaGIEYYF9Hbvq6v+Ol5kxy3iJXOlWaxJ85o8mC1m6DmFsbwMWi3P/Z3xfY6VeTXY+C3c0k/AIBJkFUDCGTAr59yZEHfyRRLWHjIpCzrr6P7jbxpR+1zgB0iJ57cpURO8EOYzIZxnqBdKHiHP2OSEBuemFSFxGz58epheL0r/NooQJZCAQi4chjqbRlKyrV2nZD1ZUBXuTARCHLtfHyW9ci9pqSeKZ8rz/sOZtpQnvLYEiNA/epXv3qfBTmkbnUSKjzwqTMBaotHLK3wbkh9i/oS2h1NUCx3i2NmfZNWrMAxwq1ONAICwGiHACE3MXGlAUUmptAROjfRt9Q15FjSQdEDioAxIQ8TSb4gla0oyimfiSQTMqtY1l9ZiCQLgAHP7Kst+1yeD6F/V8ry/oSa6DOQNKHg35h+4avnGAiAkatt249rY+rbFo82CpCIJIwEStzCV6lZjhZn7H8kcO5Trr5MKMt5Ns9TQq+n+QAny5GSAkzxsPkz460W7SSJOaIfQDZbZD5TtdVsUUmZPkd1RkF96gxAssAoWdNcAz596lpUpqGb69z8dTnAjv9CHBbHCDTelWnOr/LqieexJFiO3GhukcnJuWusKiAyZHxPbGX9K+FlatI/tMtCPsDQti3hBqDoWpTd5EVOTR55JrKgHn3TRwDIQmYpZ6I2lngh3CDEADSbuKvxQM1cpvryPH04rKO+h1YLM1msEYvEP5/Ky4Q4hEb8VS/r26Ket8p8J5IMqa/h19zSH1L3JstuBSDNwBgnVsG1o5xmnyhQGN6nI2VZgyUTyPvc+z6zxzz2MfUL72KO4hcR5NRbPptrfY+py0BZtba4ZObM2z9dMchVdauT0hGOACRgUZd2KNAmaFYHJQeG6BY7FQcG8saGAKYdx5wvoz/8UDYTE4AU8wUCclKf+lJ2G0e0JuMD0AOAPAHA6JuXFg5lACnso5zcBsX0u6QzPItFSa4BpQUqFhFZ5MmIg/MOyCswVS7PVqpfnZe17uZ50/+GVqEmPORey7xDvDRZtCfdVb3J+OAhXr3whS+c+UYqXpGl8P2wZWnjAEn5P1mB4z9VixrZ1kMQP1Mx98xKMUvlXMXERfe50qxGfzpVTgxoXn594csAURhKlFCBTe7c1LEAiUZ1i0F6k2ZbACmOZpISWLd/01sQZn9gESVFRx8BVA4fgICQBmD0N72Nw7FqxTr1HablmPGKDJBDgMf6F+oxUbCgySLLh3vNmpeV9Xxy6shYlb+dt3mWfpPtWJbcbhvjTSbCD8AyVrZyVXNV6sd/JXch4Se+MXq8kcXwIVcJJwylMfw2sfj0H4AUcmoMhsbabvN6aBvrlt8oQBI0DBTMtSBDMX2IgruNuRGkoZ2mnARZ3McCjD2OVr7staOkp5/OZWwYiiFD6+9iYgbPkWshXGCDtQ88jAFI9YQ2CmKjuFmTIm3DgmQ9ij/iv3GwLYOlhI9JoSm/Fx3x39ii1Wzvb4t4RczqO8B0X10Z30X1bOt6wAaNkUFjZNwAor4DSJOcSQMfKHUsn3LSHiI7+pyMBwFdNJhMuNusSQtYFhLlxCtZTml3SJvb4mGfesNnYTPx7CsrN9vHZvTD2I9JkSv6cO6559Y8EpqIbB42bzYGkDpEQCimBRmMY0ECSoK4jvIAV/WK8bAcLcgASMIGNLkrDUCubzlmkCP4jmJWrA+B6T/8wz+sAX+oBZn6KAZXy9sD4i5AZhsACSBMVMYBsFuFd41AlgldyxIB9YwxAI75Q/BPfOITaxCgHEkHKcz76W62K91002frEAKrETCaHFjQ9n5yD/UjYI/WUibH0h46Mr45pn7jTf5N5hYh7NGVAahsX+jpp89jlGPpyBhs69j0s9EvPKXj9MG2n/B1TNueFYbwFw/FIPGGpR2+HjY/NgqQLEXCadWUGe7VNlaMmAJBSaf7MjLCRqhl7grLxbaACJm6MrNtkpll21bfIxAXXXRRDdZjAFIfgCNQB5AXXHBBDZDiLpvqA7rxASAAhiySiRWJP6KhTKvGRF2E2ORnK5VZ3sLMOeecU42pzfcAdnMTU0nbovPwCu36I2yQkIKxsjBlcpABpfi3cuRwHWtnMT3zSSYyqD3WetxSbqRYOWuSy22ysZhj1Z880A+eUMXunUyNnDTjHIs8i3+2rRmDoUmdZItXyL32tXEhM5Z35DL8HFr3pspvDCARZDWQMHpjg/nN8hIcjyuRTvclPkJmBsZESvmsZz2rBkorv+otB65vvX3KqVc2gGJ3rBEzpi/hsGbHAqRgvZV2+75+9Ed/dOMAmb4BSPEhrhC6AQWQw9Mh41ACJOH1kQ1WJEU/4wwfGTkYgNxPc6OoxgYAcZm5ziYEoRBWzTXVdhT39bdOLMYqb0Ph9tOWETBxNwB+nIbqFq8HWFrcIs/OrXgDyXKhK3Vug945hf3PGnoavjN6eCQ8E4YQ/vNOhtKqTpMIXcqOCN6hiWNX+r8RgIzSsVLMLr4QLohLIQmphHnpdN9hUS/LgAnOtWa5cO3MMEAzrvXQgenTPlpl9Avys4YBjb6ZMccCJLeKxfjUpz613vulbwBTqprbmAVhtVFYIABp9RaYpF99eJAyASL8t1+NJckCmsd+G8VJ+U0f8aUB4qbmWIxZVQWGZM8qPeuRAlNaE6jMOtuGjKSfq+Ta/ViT2RrE5eYRiVHu7e3VMg08yQegbOhtzMlKdQ49NX1sxtlkxBAS2+YtMiDIWxmy6ENw+EL+ff4MSPpbTceqhb9mzDenD33o6SqzNkDqJAWSKaTtJF5pM4tna0MabpicX6uP6uQWYphVLgpqUQbAJG1L8NGavgFIsTyfe2IdrwOQhIH1y4L8kR/5kdoy5mZtIoW/eAIgWL1WGr1BY+WWkqZfQ9oLQFq5fsELXlDvWxMnat6r3o4Fmb6EznKcKaMFGEDIMiZ3Yt3GSb+FMeK1lM+lrk0f27Quq98YyCxGsgAkgSW3mwvOorTwhX6Ak7oPoh/L6G7oaADSxGRnhw9XkC0TlN9NmODExZr0IfWnL67jhUnBZnEA6U/C0vGkPJtncv2gjhsASK9r3VxbJwCEay3uxZI0EzaWXuNu9O0UprB2CIlFDG9r2BbjaIXrrLOaPXfbnFnRIAMHsyXAJww2i3OxCTcB7pvUxSIG7voAIIULgOW2AJLV6w0a4wIgY+n3pVm58IAgm91tbrd95d7VPtRGaDcPkNosE7q1z40DgPoCGFmNsrgjq0Y4h3VJ5ijrQaY2zYva1hcyFcuWLLAcgQK+Mgay0Zys0KHGUp/XuE25n7ey/6zpXwOQ+XgFgCRbYr3GAN/bOrGIL2THvUwWJglrC0I4VvuTiMJh9Dftrw2QKuIGE0xbYFhY3DkzPCElCIuYFCLaR0LEcjTL2tIjeGuVi/CwWjBs2zMKmmXCrD9cVe+UC0wTELNeWxja/Sh/65PMNWd9WWzyd7G3DZBiRGgG8kPHITxAtwnLGPgCkXHQj2oUqrxZgOyiUdvkATByocUabdtxDijJgmw8ti0X5Zi2z7tob5fxG43hLd3BX5YjYAQUQhgsquwJjJExr0t/578O4qzpW9Mumk1WjAUAaSzIVxsgl/EjPACQJgETBID0AgUe7EoaDZAlsnN5LND4cwS2wYg96vgYgQ1TCY3gNaUEkARGvC4KkOO2GKn9ZAAJaAAkK5IFORYgASJl8BUTnzybAJKV2j2Kn/3sjfWuCDEuY3DNHbFGrrRMSU1WkQXHnHfXuP2rkd++LdETz5Ankw6PCTACDBORWK+Yuy1uza6BE2s+aLBEszCTN7RMvhYDTV5DADK9CECKxVoEBJAWAMdgR+rc5HENgGykmkASVgLsY7LeNOEajHUbgZJEYLgcYo9W/AgOizICuE1FoLC33dasgGpPrOtqr1dVAWkgSTjGAiSXyuto3FWbY3cZII2D/icGuQ0LEq8bK9SxSWTAJGvLWCzGvNZGEfPeNA+ltK62KROhrc8xMtqnbMros+d4XPTHJEr+WVM+CiIL6+hvu5/t36lzm0fjY63BSrYYMP1vxyBX8SGyJWa8t7dXL9TwqgCkycD+0MNOowBSxwyogZGZ2DaPsh7NKmMBUr1cKXUSDCvXLC17HgmH2GN1a+uJ0pYAyY0DjN4/tToPIIH1UBfbbAnouVJW48VbACSw3YSQRyDVJVYnBrmOi43REWK0G4tNutgNvY3bpi0yJVQDGD/84b+t4tgfrbeTAEVbxliMrHcuN3rwvxyDTfAQHeumjMOQevKMPgAa8kU2hGMApcWcZIuf3NI807Qz5+OQdseWBZBWsbnY5Ix1D9zL8dhP34ktuW/yBZB0gr77W9lCDE3stfkjbgeh8ydS11xZCyBVISb4rnf92ezKanGG+2kxA5hR+lUMahOlPAXAaCum51abkpndzG8Mc/0glKAESEpr8PXNxzcsegQgh9CiHopN4Peq2dKbQP70awBSPG9dQQi/0bUpgDRGsSA3CZB4zHJEswwY8dVqqIUXfLYyzXq3auq+RAH1r4v3Xdfqh0b+F36Wj/dpo+u5so6u89QbfpgAyDswFGoCILbCiNORIeEmwFJalKmjq/5NXwOQ3Gt6YeeKfZHtCWsVH9wnW1cmvAoAACQ6SURBVPrgXXUAKezEWjZB6H/qOMi+lbwaCZCqmAu3P0L/+7//+8eD5sBMp9O5ssFF58qGYWIx3E8g6VNIBGKZYiyqc+z1ipTaggwwAEgTAKW1Qg/E9XHIoAUgCTvAB5BWsm3pMJnsKkBmTDaxSLNfHpoJgaLxGiiYPwxlO5VFGDFtfAaMwAL/JDxfxPdF1+sHB/6X9kqa0/aqdspn+jZb1ul57QMIeiSzKoFiXrcFJkBTfFI5+tG0u/5E24fmTQOkuKtPFgJIW57ohD6HlyV/+tC3qTKjADKNE1yK4xNg4o8C5qyAzCTpXMovOxII5TFG/EWw1utHBAJgHuTglwBJQVk0XGwAyZ2guGbvIYOmf3ilbwLwwN9Ktr6ZLdU1pL4uXobf6tmEBak+ObSvG4Ns10fJAKEtOl7ltG+TB4LfAQV8BgB9eNOnTBffXNNHSR1y2uyqU1myn0TepfA/x9zvc2y3ow71ooPckDllgAZwtLtD6EkoyiQr5u/eMrr70NG3zKYBEtCXAJn+hJdt/vSlc91ygwGyIbiZpcz8Bs6fQv3FX/zF47Pd0M4oTwjUbdXOoFNGL/fPXdB1u9r/+YqMSmGaze8AknUj1vIuH52tFNkkMBYgCYJYEvB/8pO/q4rX3uMOa1Q8bb0AaylMuwCQ+ChVw1sn9AEWPA0wCvB7PdC+WbFevCULFD0TbV956luuoWb+f+jiMWiXdyCOzr0F1AHAeBRkXjw0CTApAzgDtLm37lGfQl/qQhcAASgBSV6JBUDXA5KRh+a5zVqWywByf7uh+sSjcnGxTwqAJPA6ReANnO09Zn8A+cu//Mu1NST+ODSpi9IQrsyO+bIHixIYHWTSzxIgraReccWfVNbNiX+yti9dBAE4EARBaJ8ME9Mj0PoXMOhbX1e5CCZ+tgHSQsfQpD7ZuACtoRZk6HH0vP1z4olZnfZqoAU+rnXe288ChD7IqaMP7cr3TepN3XhvDO5SWfJ3r+SNVQ9sApIARyKjjAK81QdA6TewMLapbwgdfelVLjRrEy1A0QKOmB2jYm9vr/ZQQjfgLmkpz4e021VWn61gX1mFnoRFGBGZ1MKHrufKa8oFIE8KF1uHKAtGW5y59tp/r3fR/+7v/u7s1dXfamHqA8i+DCqZZdDVLTYHPLgQXr0yg2dGLMtv87zq5gkAacWO+8faQetQC5IgECpbfAi0Pj7pSU86EIAkyDbyDk3GMWPeByDxTWw6iZwYU323NcfLAyYb1qJQhaxe4KKcHCVLHUOOQwAATXLAUTzPQoEJTFhHvC9AE4A07sJIFpJkC0i2t5h8ACZZlRv96A/WQ/qY8cAr7WhPXJvnZRHH5Hus2j/p7ZzGTc0Xl5pWhvBoGV1k2Rf2LdIASGGRoWOnL8ZAH+gF+o/0Ik0GB+NOP/2MChz/ro4d+YDDG95wUQWOzd+EUW5oMuBmPFaK+BwQaT6IsHjVcmgbQ8qjx+Cxelg6ti9ZoLEfz7UoQt861UWoKKEgNIC01ecgLMixAKlvEeLlANl4FCVA6i8rh8vM0wAirIx8hsy5nAU9yhUg6svTdrlVyp++oE3cl3cihGPrlbgwi0yM2KKgiV6ZWPfaigUJJFnCFu/SJ2AZy844a2sTXkG7j/mtfvSYXPTD165Yk/rBmtQXVpnr7uNtw5/1XW1t66M3aaxkix3jBZ3Q574p44HH9AJAnrjN53C/uj4oBqlDgEMCkB/84Afqr3mIz8kGQlZuSDJwnuPasKrOrbb3GGgzedIq4U+5TR0zeMCQC+gVSgAJLAlm231Z1W4AkqUibpSP/u46QOoX2gHk4m0+Te/LMcI3VpWXCICIty0sxLBkWV+xgEoQKZ9fxc+u+8ueN56ysZOBh7Hw3i9Phbz5nZh3AKVUeM9n4nTUN/2x6s4qBv4sSi44fgH/1NNF75hraEhKn/x2bpzQn1cVfbsAaLKKm20zeT99XscynqWd9lHfjW82itsDrd8AcsgkF5oB5F4VHuA1PvOZz7zjU3oB9HbrB/t7MEBmgAiOL8V4YZ3r+b73/UUlEHepA9spM6QrZnGAyKry1R4zCjcndY0ZyCHtt8tm8AgCBfAdSK4EF3EMQJrpPUcQxFnFWC3UmBhipZTK2Kanz++SV2UMchMWJPqXASS9veWW5g/Mc6fjggJHkwoLC5i4x6o0wQy1wlfxoEtGKDPatQewTMJAhBuaGJ4x4ZKytrIws6ot91mRslchWchAknzoq3CChRxtbxIkM8YlfbcB7jssdv2kR7wvoA/8bZXjhusjoNTHeRpuUbIejaHtfWSrfBd7CECiAX+Mi/Gw5zlv0uSbC3M6D+dsEEAiMQNEGMUfXv/619cbeglH3KWU6dMlZWWASGCBhg+JcnPENFNXl/D3qX9sGe2akQEkAbj44ouPb4gdA5AsCnXpo9V575ezIo8KQC53sS2m3FYDAqsxoJgFGKDRFbc1phnfseNUPtclI+g2XoDBwgv30wd/WVbGAmiYiE1OvKKKpN4J7QBYG9xuq/CsSHFqoRieB5DMRNBFX+/GioKLeBaZRY9JV3/1U0iHVWn3BKBkjCSlrlW0NeUaMAWOJgYWpG+kmgBNErEgl9WV9tJ+ABKY0wsutjHalTQIICt5qFOESFzuVa96VR2gxSCz15gZBJPMcgaRe/2NFaPuU83m5YLPMqZvi5noCkC+4Q1vqAFSrIXCDbUKCK26CKwJgJUMJI8CQOIDq0F8+GUve1kNLCyxKCRlsW2Hy8l6AhL45BNYLEnWrMmGArWt5LbCrDOWkRGgJWsTfwGFCZiVQs5kwAgo3AeeTRqAjscJbSZ4/MmuDjwwKXy4mlg/XvGBbgAVMoDGoTpyvKniZBHfYjHjM4OFVZyXE4AQHrAu9d09OmtiKFP0u7zWtNcApPFmIYtBXlmtYlugsZulr/6rCx8cyRb+P7xaczinekvInyJh9e5K6g2QGZAIoQ4AjZe//OW1Ipgpm1m4f5BWHcAGcIiX2NfFqhKLsIKIcV3teu4gEgVj+bAG/C0aq66EPwA5hIYAJCH1YVAf4ACSuw6Q+oh2feZi/+RP/uRxgMQf94CB7NVA4QgWhW07hF9qlLBbLjK+dcEN/ReQQJtFFxYj2SJjVksBBrBGVzPpj4vJ5dnohL5okzVpssibQd6HN1m4DhxZd5tIi3gX8HHfGMj6LMbKOmOIOAIi7nbzfdU5D9CWPoXOpq0GIE16+nf55W+p1iCuqkMnPIeh+h/6GELGh15Yg2DZJ6WPbXpyf9vHUQCJaELIvf6FX/iF40FpDBrakQCkd0yBhkygh8SCtsUkgmXmp/gXXnhhDZDiaKyFoVaAZ0wEhDLWIwsy/cS3obxr97sUpk3GIPEB/b72/BM/8RP1AgdwYTkIrXCpuZesCJYFS8oeQTIiLZKL0Nvux5jf2iJLktBMaTVxLVmQYnMsX5NS4wHsB+0uy2kILdELvAKGicOaMIClkAOgxCMADSjXGfdV/HM/NDE29J3lyHpmRVugAkZ4A6T2xyb3g2TTVgOQdMB42+bj+wT6I7Y8tC/qJFuMIfpPL+zuYOFWt46ndcfleEUjTkYBJMtBx173utfNfuZnfqZWhkbghis5oZZZjphjFvHtx0VKNaKPox/RR4r+gSqmdGH1pSLbGbhLrIQxAAlsKau+AkcCQSibuhrhG01s9WAjxI1gbxIgM94syJe85CX1Iocx82bRO6ovHFEWFoVycoA+9KRPuZ7f7fu5PvSoHgBpAgI8e9Wii7gbPrOWAMAcFPe70W2ahrZdlk9/1BmaAKWxIDu+BuXNISv6JhgucNrPsaxv1XnaW1XOffyR6RV5A4y8GVtr6NsXVav6961CEe6Vsh26mrYaGU2M2RYfr98CR3qSsn3oUUaddMyEZtGSTjCQWPnp29A6+7bdt9wogDRDcj29g/1zP/dztWCWg923ceWAjXzuuefWCzQCtYRbOmzmHAfIahsDa5mQs5LWAUiujYUo4CgWeRQAkrDKFMlGfuBoorC1QxZeoSCZ1Iyb8hRSyvX6R+u/KELr8qCf5BHgsIjiQlJ+W3kswDQbppvXAVW8bbmqul7338IVWUEfK8skwooEkOK0gMZ9chYehbYclzFiCO+UldUrs9pki6H4ZN+x7zDycPAsk3bVk4KEBiBZw8JOAUgTkz4OTegxoYoR270CJO3wYP2nb/hymGkUQLKEKAUL8ud//ufrQSaEY1KsDqAhiz8aqF1IAUizvreF7OPjNrlezrJ9aCVAN9zwf5VF89W1MLCUbWvYdYBM3ygVZdqrrDMLMpRbnyi45D7rDV+cE/A+AOnZKIPzocmzFBQfWbhkiJKJty1SLvRtM6Gp+lflvHXWgJI2LV4BGK6pbXLCEXSJTOFXeIHGVXSm7Ji+RO+0SXfFZ1mTDBQLidzxyOZ8y00DkFbp6QKA9KdI1JGxHkIL+j3H5fdXPln8dB9Au97wQNhuSK2bLTsKILkNlMTXw8UgdVQMY0zyrByAFKxlBUjV5UNlTgCS5fia17ym/ihwVmQXKd8iHlBifGMd+4oP65FARgirnq7dV3yUCNamXOyyP7wEsSzAyGLM2KUMnoQv5b1cS7lNHrXDokUXGWKZU3ZxLLxlWbaBpv17k/SkroxFfudIBrikFvuAZbYDsS5NvngLvDLRbItWAJQxMj5CECw5rjdrknzuVZOhlW7jrkxosR8YuPvClfPyXvrZ56h9dIgN2yCe+OM972l7XwDyENGx6sQogDTAXE3fgPSRCp1kro9JmC4Tbq8YesuEqxQBy6CMqXvdZwKQVq/9vR0zp74T4KFKDyA9q39mS0Fplg7hiztTsWGtVPJsGwCp33ii72iOYqRdxJfjlevltbU6uOBhVqwFD7w1AbFC9irlZvHGEmLdht5t09MmM3xorjcToQmG5egtFC43qxJgGjcgqk/0KmlbNKPNuPIKtSceSP+AFaA8Vm0LsrDDAApoizv6sr7MksRbE9GQVPLk7MrFf85znzv79goDWJPAOve31e++tI4CSPugrMb5Ewu/+qu/WjN4rIuN6XIAkoCLgxwWgxojrInVBCB9MfnV1cc4ACThXQcgWTe+JM6VYS0fJYA0JnKENsdVwta33Kp6Ft0PkABJE7WYGhnCa0dbfSg+KzPArq7ImPNt06gNKfKVyYaLLT5pR4C4pBVvQCnGC0D1DW1DJ+SmtX7/4wNZd8QfAMVytNLNyzHhOMc/dNi2lK/r2+FBhoHkkKQt2Zix9l/4whfWGACIXXNPOqhxWUT72gD567/+6zVzMXVMMvPIrEfZqqMAe8OfuTKOqXvMM+XABCC9g21DvJnezE9ohwpsLEhbmPwtGvFH54SBUFaiUAnDGIrnz5S0b8OC1BKBTTvzlpefHYSQGxNWEOChZEDSZCtcI6bmN+vEvbje+8dwff4v58L8bsO/pj10c6vtG83rih+rQPLvqwwkGSNkh0WJj42szOva5Bm60IOH2uP6AkeLczIXnCHEo+JaCz0B9DEAqR3JhGYSe8ELXlDHIKMPJY822cehdY0CyLjY/g42CxKQbBogh3ZkU+Wj/ISRkLAYvWv+ile8ot4PSViV2a9cq1sPQLIazzvvvBogCR2BaOpaX0FL2rcFkKt7emKJbQNk+k2xKZ7fLBoy6UMNtlZl3x+gpPisITnPhupt05p2YgD4HZAE8KxJQMnltsfUxntAKT5JToDRNmnEDxlN2sPHbDB/0IN8Eu7sGhTRBxzROsbFhhn6IQzClb/gggvqLX7a3Gb/wv++x9EAaSBtfUkMcqyLjSFmRdtHLPXHguzbgU2Xi8IYJADJzRGQ9lFgAXXXpKGDGIDksvjmndV6Fg7hwoOjYkHWnR/431BeDay+Lp5xc6R8AUsxSC42N84CxLEqpiaLq8nkFlDO0/oT1byu5WehuSl1WkXzrfX2OZObRRs7BQBRtgSxJrOdattAEj6yboUnTCq23+Al3c9LAWilv40ML+9veVe95IK3yGjwkQq6sWtpLYC0iv1Lv/RL9Yyz7iKNvxMtByAzwx6EcpWDEqHVLjBkLQtK+5s7ALK8Xz636jwAybX2Qn5iOxNAruJc//vGpsyRHUdASNG523mDBFCyjih/JqiMb1pNHfm9rWPaZbkBeCvzwIf1aO+kxRAhHjIIjOJ5lPSljvLaOvSGl+pImyxYk0/c8FiCQ9u0j1qd9MCKuff8GQyb7sM6/ffsKIDkdnr30t5Af4vGoIrtjE2YwnoEkNzOw12kmQeHA5CC0r/2a79WC2pmyqECEYC0em1LgxVs8bH5NpT1LZdSuE4lFztyl/7naIzIJmVm5QAVe+y4dYAxVuVeteLtus+giU+atJrUBIWrag4kNXRrrAF6MsOD4cZ61x1QyuKVrDjWJCBtu7hDZXNV5/BQlsi/+tMGmnO+qp7yPgxRl8VZK+Y2iT/0oRZn5+2U5Q/rfBRAipWwrACkjeJmkbExyDAfQHKzLVwc5jafUrkCkFbsfJRDPIiilQLSd+ACkGbL888//3g/59sjJoDsy8tF5TJ27fvldbIqW7DhMnLxTMjiYI7Z0pI68uwYEEgdQ45le87pB2sLUHoH2v7JbLNhXdqPzDgp9W9btIY2/VmnDfXojzosWLIeudleCW0D8RDebaPsKICk7GYvAPmzP/uz9SqcOM4YphFWQGQWAZBic942STqo2TvtRQj0pQTIX/mVX6lnb7O1e0P7GoD0Bk0JkAC3SSc3QOKrjKdykv6bJBxjnefe0GPGbtFz7rMmM6Fzu4WGrM5arTUxsyot5ABPwNPQtN+EPGiZDM+Aim1BFm9Ykvlyknig+GQsSTQPlc9FPGtfx8N161YHA8uYP/vZz673BeP9Ax7gFcPGgpy/vdOm4GB/jwJIA5Z3sX2sgpmf1bWhzPMs8Di3ehcbSHpZ3YbfofVsim1RMu3rp4FkQYq1EkhCOEYAA5D6Ryjs0bOyeqoAZDwFcsO9Cp/vete7VLLjk1tnDd5s3B7z1Nm+3vVbWTShxTizHo2HsIdYGE/GgkQTArGI1oRemrrWn8y6aOq61tUnQAkQ7a7wqp83WsQmWZH0EM3rTjZdtGzqmj7RK3S++MUvrnd1mJSEONLfw9L/dh9HAWRmYYs0Plahs9IY4AhAsqy8JuaLHoQTEM3Bo0329n6XAxSAFIOMi50+Dh3AAKQN4lmxY7U0CshCWV/pStp3IQYZUCQvxpOXwTLztZa4heJrVmzRS47wVTb2Q3mc/veVDuXJHzq53OKQLMq43txv2SIOK9NYGaekg7IkKzLvSM2JFWB0c7F9LMS3AgAk95s1iY+s5EzmeXpXjviORpPiT/3UT9X6YGM6gM8YDh37bfVtFECGGG/SiEGKgwAA4DF05jLQskULK7yPe5wP5jbvKJsNDzqVAxSAFPP5jd/4jdqtKe8PoQ1/zPxiLeIugJKlnNXIkwkgwyPHgCTgAUL6z4p2TilYQDYdcxspOzCVMhGpo6+ypN0h45JnMg7i68AZSLIm0WpnhdVvoB7rLDTlOKTNdco29DaTqXMy6nNzvBuv/gFLQMkyBpDoSx8PmtaufqJFFqIzYf70T//07FnPetbxxbFdohX9awGkv/RnfyDBtqpGeAhXOtnFoPY1AyzbzMu14WYDSuZ29lZW/KwGuv3kdn6HdsKELgNJidsbxd0fInDq4l7qpz5arJEJCUE+GQAS72QghzcmOCAo+G4PojjT3t5evYIcd9Arq9de+4lqv99H6v1++bYkCwO/JHUFMOsLG/gv45yqMrGzvLRnNRuoW7QBjhZxuOAsStfRT9bz3MHKKKoba9IEZOK1qwQw2jMpPunVRZY5Vxwf9XeZVT5ElsOzMcfICFrw1hfqn/70px/nZcbloOhZ1Ye1ANLnjizUmL2uqd4fpehAMp1c1bj7lEm27YISed2Qu20Gt28tdR0Uwwg64dMeZQGQXqnysQofFhAkR68BlvrS5RkgqZ+2MuWvGtrIDCSPMkCWY4QfMnDMXw8UMjH5ya65V/INn21j8WYGHlNwQEnpuZN4V6by2fL6kPPQnGf8llM3mrTN8udisyL1w7699ts4nmmeayy71LnNY0m/tgElT4yL7ZsB9kw6xnjRl/IZtKWv7fNt0o1OdABHC2LPf/7z61VsbZb0lbRtk55VdfcGyFTUdKIRBIsX/hwqACHY3BTCX3Y0zy06xgXjcgmK+5sUvgtHCMV9UtdBMwxQ5s0GguatIe+gmpUpz7LZuKuv+kHRgb6+2tbE1TYRNMFpT80VtKuOVddKXh1kDBI/tJ1VYbE8r/glhscCAzL6SUYyuaQ/ns3Cgz1+LCEK7k0SFqYQjv7gXyzJdeUhvAoNjq6p11Emm/pGpvUteygBvUW2vcoaZh27Hxe9eb6ptarqQFJFapUa+QLoeEVOWZNCFx/9yEdn137i2trLcx9YxtsLgevyM/WsOgYgGUMmnWc84xn1uoPrEjoOipZVtNb0VOZ3Y6v3KJ2BqB+sOgIw3vrWt1Wfkr+6jn+whOQu4VtUfYSRywI8nvKUp9TbfQifDb2p66CZpl0KaVb2utcll1wy89EKAuda4juL+tV1XZ0UHECwlLkWBIVVGcFYp58lr7YJkNqRQzNlAxKsAkDIMgCOwgn6ZkLgskrVY/73XysBpsYKYjmyIlmUXEXWJEtIXI1yAy1jo/24uK3KVv4Mr1YWrApoz5hLxs7iGoDkdjvXb6EEIEkuMnmuM5Z1Yz3/C0/L9kw4JhuWuQUcvHROLuQYJhlDTZXP92x6cDFelLFjiQulMYjEpQOQmQAHV7ylBwZZkIRKRzBSRzD+PdVWg8suvXR2aZUFseUhwqdfqZdwsaowjXKxIpMOYvDSlmMEiHJQUn//l8Vsa4WYjolgDE1RNu4aN9tijb2fAEb/u4S9pGvZefiOrm0CJAHXD8CIZuNkZXqvmtSOVa/vsRhdYzGyvPRtDmT73dDQnH7hOxCk4OLaNkfnU2ABSn0T6tA2UBozDu12037XMfKZe9rUJ4s4MpA0IQBKfTbZoy2paWt/v3Nvk8eyT5EzMUgWOHA00bPKnfv4hevA/CABXcjKZGPPs2wRDP9OSoAksPmLf/78AgtwDEASEqY/JvnLedxPMzTrqhk8G183KUqr6wpAEjruioWaK6u/AewvubFkKMFc6VfXlxJmUAISFxRInlvtAWUtCylkBl1H6bcFkOEJYJSBAbfTHkIAASBZjPrGotIXuVTcyk45YSzL+2W/TUTA0HYWskax8wUZ1+Iuel4O78LrVcey3VVlQ5dn0HXjjTdUk8DZtYttMtd/fTdRsJjFloEoPqGrq9+r2hx6vyKtSnPrHM2A0oQjVJFFHF5QLHOr9voTXngmfR3afp/yJj4g6YMtvotqJ8dDHvKlVftNbHLoGPZpc50yAy1ITTUDgIlmITO8BQzvKncBZF9mGySWSf7an3eWzc4stXI2XqezQ54lMBEa/TQRsCJtbWK9jAXIgAxBoDwWpPTZhGCVd25JzgUd3X34GHqV3YYFCdwpGyDnSgMGY7R3BzC6TgbyvcXQnGMf/qcPyuJVJhSTkonqmmoxkHKzhMTYnCujLH7GGurTljJle13PdNFOTuVYkowCE8WXVeP3sAooTRiA0qRXWtBlW131drW/zjXtJZuUTSjNroHmAxgsStnkY1zxEP/IZmgNnX7nfB2aAOQNFUD+6HOeU4OknQG8jXZ767SxyWcHAaSGm1mKws5qS4oJ72OyXsUjMHJTbhhDDRCho3BWecXo7I2kcEDyoFPTzwak9JFisiB9A5OQRWCGCk0EIWDDHQWM4jHcbtYHoNHn8FLf+7STupXdJECqV0aTLS7HKjeaYAMCGc0Awn0AHzqaMTvRYlw2liXf0+9MKsaB2w0obTC3e4I1ZOVW3BIIsJiGWCH7aT2RsmV8D13KmBQoukUb/NmrJg3nFuG43oASf+b1DePLiZStvtLwstHV9NNEA6TIs8klsV4yjYfu42Es39Cb5/N7devdJWJB+qKVcJoFL/zaVP3drY6/Ohggy6ai5P6glY3UcXnKMn3PgaMEHLgqzG/up1mYUh5mIjQC3r4LadWe9UKYDKoZt2+KECgf5YolKVAtJ57FTTU5JOXZZQJaltkkQKLV+FB6li63yDExN0DOym8D0zJa069Vx/TJEQ2y8QCWFm5YPz4FxsKn5Kz7KPequt1P/YvKLupDnsvR82SBZ4EvwNLkx/U2ifgNLNEmdU0E9Y0t/FfSGLkDVOEhecZDuzVY5ddff10F6PeoxzT9L+sIibmX332ONUBW4/cdVRiNEWTHCoMo9Y+ps0+7Y8uMAsgMLmbrGNAQgzSriw0RlCHAgXj1yJ4DkgDShuoEvzHusJgH+CkeIeJm29bEepGyOlv/WPFfhECxnJtkKD1rQ9ZfWfyVm8YyY300AOT1u8WNpE582jRAohOA+4uMBJrVG4uxBMbQUNktS2ld3Iv9dyJrzdWmTt6GbExMVJSaJWQBjcuIn2Szj7zM6d3fbn511dF+xu/kgKTJzeQOGPeqieXBvsb94AfVW9mEJ7p0pKut0LHOsYuHxpPFDSSFkPAQ74AkwGSVu5+whTFupzH0CqWpl4zb5mPNQZip2Q/c/NmWZTLepmHbv0cCZLOajThf3bjqqitnl1122cwft8JgoFG6h306EQEDRp73CSTfiuN2Ag4CZUDGDEqf9heVQReXw8BaIPBe9tVXX12722hh3falSV3tlEnGPcJIqfRXfI81SYgApTgXkNxfx34Qyj30bBIgAQ6FMh7Pe97zaveaNXT66QHs/XS0+7jJ3+mjOtEls0pMzibpK6swiN+UEB9WjU1ZXxedXc8veyblHYGKcTPhG1OuZD4Qm8mlXVee76JlE9cCljmSP/JtsYZxYz8zGbcYyWuKLnetA4yhVXvGzLNA0Z8f8R1YgClUE36MqXsT/GnXMRogy45gqtnbVp+3v/3tx+Mt7caW/VafzDIAFGITtr/Y8gMkDNQZZzTuScXbA00GlBBRQq4cJXzzm99cC1Wspz4DGp6VxOdagJK1CHQJi43zLEmZAPnNfZsLa5sR8wW0bQAkQfb1Fa7jve99nzvAR5sHCZD7uFfJzKwC7+qPXlUWz+/8v/83u/zyy2uLKO9UrxqX8L+stTzven7VM3leOWMFDFmUgNI4mvyA5V5lWfIQ7nnPeSjFs9uWbzxrUnOCTvJtdVl8lzXJ2OElsSZZ6gwXsj6XPXS25S/1Lj5qK+2pyzqDV25NvtYf6D6jSxpR/eKGR94ZBZDa0kkJk2wfwEiLNVZ5zQwUfUhKfYBCnUCCG+fTYExwv1mlKTdmcIbQ01UW6OgrgPQeOjeEtYKWLhekXUdob18vfyuTWZ0AUSB88KUjLq7JAm+12QzBcWk/Xo172wDIJz/5ybOXvvSltXIb42r0q6z9gwNInWz3W3+52nZT8GTsrDAulG3VuKwaE3W3U99nlEtOHYDS9ijjKQPLvQook1J3V7sps8lj2kud2jW5WAyz7/eiiy6qgZI1yYsr9XodGgEyOccPC348E2sOJhPjFrrWaSN9Wue4EYCkjBhKQAGkzrO6Yl0hsE9HI0w5itU87WlPqxlndrG3LqlPfSm7qSPBEbPx9RmWstfhzLL6mRDAqrYy8MvKKUN41GtVGBhxaY9VVgeFIlCy61w4M27Dj/mktSmARIuxvOWWW6uwxy4CZAPONj2/+tWvrr0YrqKFnD4AaRwWjckyGVv0jPryXMrk6DqaTPTGk3yTa2PKSxCvZAjwlprUgHP12FZTM+HMm7j11ltqkOQxkW9fCBJ3x1fxSv0odXv+ZP8z8o0v+IEXQmq2uwkr8ZJ2JW0EIMV7mOCvfe1r6xnHbENBdR5wJEVw8nvRkUKyAKwIZiO1FS+r2w0YzIVwUR3buB7LTjDba4eJRWor/ezTxyhMF43l88rhBf4CZxME95ZLYgELP7jdFA6v86zjJgBS+7J+i0ES4t2yIOeWK4B85StfOXvTm95Ux864i3hCkcPv8KeL7+tcS/2pI+10XTeeDAgxbeEk3gFQ8EYJD0Gs0jhnwk1dOaaNbR1Ds/Yi78DRh2m8WgwsXQ89OY6hR1s3V3J190rPrTXwFIXUyPi6ADyGnq5nRgOkyqr++b8ecIMtsIuRGMrlprhjYhYYBxQIidmF4Ng3ZXsJq+nMM73GNWyfJUrXSekr4TCTequDC3Jl5W6bVQFS30GNEHbR0xY47UWp8JOFwe0WoyRUgv4WcWwLyiZzdIgbEWgB9yuuuKJ2O7vaW3YNnTIaJoBczKll41k+ZWzDz3hZPABupsnOdiDjyTswnsY6IK+etmyUdW/yPOOefkXerTP4Nqo4pfBS6MlxKA3qJ9vkmgxbdxDGcWRFsqTpXcW2Q0v/HwAA//8DM6UbAABAAElEQVTt3XmwLElZN/6eGURWRRARUDhXZEBR1gEUBIZVWWR1gQDFQFEj1NAI9V99Q/29L4ZKsCMgOsAgLiA6gOw4CIiKsu+bgyibIPswMMPMrz5V872dp251d1V1dZ9z7u2Mk6f2zCeffPL7LJlVfdpXvvKVy2ZrpMsuu2x26aWXzr7+9a/P/u3f/m32pje9afaKV7xi9u///u+zK17xirNv+IZvOF76aaeddnx/1U7Kveiii2bf/d3fPXvEIx4xu8Md7jDb29ubXfWqV501ZZ1WbVeVNM119Ejq/cIXvjD73//937q9r3/DG2bvfc97Zh/84Ad7V5Syuh5YxiN8vuSSS2Zf/epXZ1W/zW5zm9vMfuiHfmh28++/+eym33PT2TWvec3ZN33TN9V8/9KXvjR761vfOvunf/qn2Stf+crZf//3f3dVt/QcOtMPF1988eze97737Fd+5Vdmx44dq+upuFE9jy/b6wcEN12xv97PfOYzsz/90z+dveQlL5l98pOfnH35y1+eXeEKV5idfvrpdRs8t4y3ro9Ny/qzLLNdv+cuqvry61WffuM3fuPs27/922c/WMn4WVW/ft/3fd/sete7Xs1nY0g7tsXn9Dl65a997Wu1vBnT5Ontb3/77F3velcti8a91G5bfbLHPzKtbVe5ylVqubrnPe85u93tbjc788wz67an3Gx7FDnpLaetC5CowVD5Ax/4wOy9733v7EUvetHsDRVwGFQYqHHJQ6jHPJ1z7Wtfe3bb2952dsc73nF29tln14IEfAmMAbpt5mkX4P7whz88e08Fjtr6z//8z7MLL7ywFqRVbcWrRWlZW8JnIClf/epXn33zN3/z7MY3vnEtUDe96U1rZXLd6163Lv6d73zn7F/+5V9mr3rVq2b/9V//tajKhedTn344VQFyWV8tZNyCC119a3wEJK50pSvV/fld3/Vdsx/4gR+Yff/3f//sJje5yexbvuVbagA97TQguR15L9uNPvL2sY99bPaRj3ykBkly9fGPf3z2P//zPzXAdbVtARv2nU49QPLbvu3bZre//e3rrP0UBuWwzXbvI646mAQgUyjN/dGPfrQGyNe+9rU18774xS/OzjjjjFFMxDwdQ3C+9Vu/tWbcgx70oONCw0JIGttBeX7MltVCSM4///zZP/7jP9YghAdJi2iKUOS+crvomfIe+8oAyBdWltJ1K0vjO77jO2qr43u/93trsASe//Ef/1FbkWhDJ0EfmtRjEJ9qAJk+yrZvvyzj77Iy1KN/eAY8gZvf/Oa1UcCaOlZZ7IyEBiwYBQyOZTVNd61sP3ljmTMGWJLveMc7aqMI3fKy9i2jSB3GOe+HkmcM3f3ud59RFOTYOG/o2F67Q+9kAKkBwBBo/MM//MPs9a9/fW2Kc+1Yexo5lIHKlDHfIP2e7/me2X3ve98aKLkgzPKyzHI/DdzklqvLkiQo3FltttXZEZhN0qQefMFfLto1rnGN2XWuc53a8rD9/Oc/XyssLtGnP/3p+t5G0IZxJQD5Iz/yI0fSxR7W2kb56L/IHutG1pfyGB6iYZUsKBev3ac/b3SjG9Ve01lnnTW71a1uVQPIQXhOFVlVamhDn3DS+973vtoo+Nd//ddazoBneOTuISl8ZgixIikHAEnZ3+AGN6gNpIbnRxQgw0DuMEZhGhOc5fL+979/tAWJyRjDelGumExc7Tvd6U41M2mYUvDK/SGdtM69lADXgyVJu7LWxCibTm0GxibpIrQyAaU0aF4Wh3PipdxrystxaBrSXs/pg6MCkJ/61KdmYrCJQQ5pK/7g4zzuN6sVHtl2Lf2Y7ZCy+z4TeWdJMgq4m2dXoaUb3vCGtQJEX0nLEBrG3tvITQNQjKBPfOITtby/8Y1vnH3oQx+q477a17eNoaMptxnnPE3yK2R0l7vcZXbrW9+69oqudrWrjQbf1DN2O4kFGYDUWIJEu7ztbW+rJwdsWVmsnSEMDOM0LBbkla985dr9oFFpGMJjAofAlGloJ5XPjtnXPq6RwLX2AkpWm/NoLwfbmPJXPYNXyXhBE6dO9aMDyNkfmpQbgDwKkzR///d/PwOQXEEDbqgs4BHr7VrXulY9GQhkP/e5z9XxN8ClPOXO3b7+HF1GSynv4bmtZ1hUd7vb3WqgJPv69iBSRU6VGoOFvL/lLW+pJ2PF4N/97ncfl7Fl7WzT3W634+/8zu+s2/qDP/iDtbdIUeiTIeW26xl7PAlAqjydaTAJ5tIqZk/NarOwWDBDNHrJuLJ8wgkUzeASFlsTFbRMmbbNTAPLwGRJspzN6Gs315YwuR7QKumcYj+8spUDhGMAoqSnLA84HCWAjAU5RA60l/ySJVb49a9//dpLUdYFF1xwfFKCEUDhk2e5b1pGi7rbCc/JDjpM2Nz5znee3eMe96iNBDJ/ECl0krH//M//rD1Eq1Z4jLwm9FLSy9pa0p3ynFMmvvJ+uNcs57ve9a51+8Un24ZQWc6m9icDyBCowcDQZMXrXve6OphreQC3k2XTd9CWjCvLdp5wiLEJYN/lLmdXgHmj2d7eXg0Oude2byeVz4zZb2S7CTQLBZjdplEFslmUJku++tWLKovkavWAmpquNq9yvG49ypEJ7lEBSMt8xrrYaadZ41ve8pZ13E/sDw8ovje/+c31igXlsyotN5MlvA7fF8nQsv7oeja8F3fkPVnFIczBc+KGRu6WlbuIlnXPo41nwgB46UtfWntNVrCY1R5iCJTttk9B4anxbUabUmYQmdGGHdtOGwFIg8kEgQkLFqQZbaCh8VIfTVAyLkxxTiYwwNZaKZM1rEhZPDICm2e2JTwNvadVbbykbjsrmsttqQ2wNLtPw7I+JJ3dV1mkLYu2XbxadO+Q8+F3gOMoWJAByLjYfWQtPNFOE28AkvI1QIESi1IsVzw9M7c8JCDpPCtSX66ynJbJ4rI+dA1tZB1N1gOzroyDxoLd/uRFRVI9Fr/85S/VrjY3G+8t9QPmfS3rst2RN3zUNjHI+93vfnWIAUgOAd706brbSQES08QoJNqF1n3H298xe9nLX1YDxWc/+9naElklSJ4vGee4TGEks5s1KT5jgSkrkjvSfnaZYJblrrufegkzIPzCF75YTZB8tBYgLgiLWoBb0tlAPrRlO4aG1Dvm2WXPhM9HCSDXiUF+veq3iyoXEUAGiLi1JgcNWO4jxS98YnLChBwjQD+KkelTQLkoLevjZX2I/1xPVpRZXYrKag4GAfDOs8vKX0TTmPPzcd4YBBS/eOTjHve4mi/owq8+9IT2kg5KioITVnjAAx5Q9wWLPh5oZa9XZZdPbG5/UoBEJuYhXocSJu4lC5IlafLGOYwby7ymjsaSJJA64li1TozLwYoU0LZUwJIXWuz00xuB3RZD0+EBFRYGa5JmNXGDH2aV8aGcWaY05LEp9Y59ftFzymX5X3zxJdXAPBrLfMpJmiE81U4gaFIg1iOApHQNzig+/Scm+c53vqt6UeDddf9yLQ1qgzt90Zbx9nGb53mu67y6zfACHzO8YpE8qL3KKJAy7uqDLfwLrejSZhb1ueeeW8ff8cK50uLL/V08yLWQzQNlYBnXLGVvi+kHBtGVrnTlrYEjeiYHyDQyWxaTZT/icdZHikV2MSn3t7dt5pXXdU6E1vZe97pXPbt9i1vcol5DxtTXSSljSL1lPUP3u+oT6Cc4YpKZ9QOaYwP+Q2kae7+2NAB5dJb5jH3VcBVAtj0fS12ETsg1axJwknflSO3715W/9IOlbpnAEAo4qJTxxwj5zGc+PTu/Wr0hm6SkpAA6izrjIXSu4oNygaSXQyiAs6slTixmkzfbnpzaGEBGo9GqhIgJ/rKXvax+FZEQsTAxbxWz2swNk21dywAmPN4msURArOZmN7tZ/caNYx0FKJu6Gtv8tGZTFjfpvvaX6eKLm/dZDV4DyWJbMS28cQxA8aps7yrelOVvaj/8JbCHZR2ktka+0m4yte672KsBMu5zI3f6S78JJbEo9aktI8DkhesUYABz3f5UjiweZ5aXFSkeyc0m49tOGX/apa2sSIbQ85///Hq/rSBC3yo+BHhZ7axGM9k//uM/XocXeIdSu/9T9tTbjQBkAw7NGi4dylwGBuJDXG3vL3Nl5qC1uFklYCy6Kx1FWAGv91e52jQPa9KMGNcEIJedtqqjFtXX93yb9rI+SyRYkIL+rEpAaWChX04qn8m5bW61QR8GIH/5l3+5dn0aTU7L0ARCJtuk6sS6Ng2QvBGyE1kziB3nnNULZnFNyJmcMykptCLEQtbdv25fBjiAhPftxd2520IAwgKRt3XrOZG7q8+QWTxgCP3Jn/xJvXWMJjwq0zL60gb3kzvlWvPsYzVCCje4wQ2rK431saycsr519jcCkCEIUF52WfOaIMtJDE5wmxnOBDfopDYD87xtybDyfHvffcojRAYvgWFRYiqXhNZlopvlbhad6rSG0craNLPxoqxP/FEcEihaL0lpAExuG1fcDCnFkhnSTdOHuq6Er3iKt0IYv/ALv1CHL655zWtdzrPwcLsgia6SJ9sCSDxSd7t+A9kkJLkGjBQgi4p1aV9fLwKMLr53nUu9wJrVCCBZVwwCsn6QKTJChv/u7/7ueBiJDLNuy74q99s0a2MS6xvPxCAf8pCH1EuvWM6ehxnLykkZ6243DJBNYzVEQw18s7m+9oORjjF22cxfybBVjVWP+2keGRPNQJ5dWZKWDABJ1iQANbmz38Xf/ABvtwW9rAu8YXUEJA0sFqXZwbYQtI9X8WTd62jWRwCAtfLTP/3TtdIxoxrwTh3boq0ZQ/OBpK/J0jnnnFOvybPP5Wsm6fp/7kw5iyZpYkGmrbZtOrSfIuHJUHRcblYlLwFIOhejYB1e6RPPs6wi2yYpnVun3LJtQ/ZLuaYcMt/w8pe/vLaggXlpBC2jsSwLuDIkTL7+8A//8Cxv1kTulpUzhP5l924UIFOxRhtgGsz1AJKywDaBLBta7nu+ZFjKW7TNswZ0nhPHEOw1I5bPR/kIQAK+YXaEPWUsqmPd86Er5RiUeMNiZAWZ5RbHivXBumSZmBWU0LtpGkNbtqFR2ILVQosbkFYKiBH5HNXpp1NOnghwTatw9vOtKfvSS4F38745hfK85z2vnjBhrZG1tpWxim9DATL8KWmzDwTVjw7xZeElYRQvTOhLAIqWkp5yP+Uu2pIXMi7+mDWR+iRLjZp+4BUtKmHa8/P2n1bJ8Wdr48fE1V//9V/XHlKW/KSN2XZRMS9rdpyPDBsgaTmfuKvyUmZXGVOe2xpAIhpjgAAA8I3Cv/mbv6kFhkC5llw2sGRYeb5rv814QkTomepcbq4IQTKJs7fXrJk0wLnd88E07cDuonN/m+b1EXyhCFoYUAJJVmWsSZame6Ro5Habu+pb91wsSG6ctziSxb6ue93rVQuDr1QvDkZT6FLnlLSVPAtgAyE8wS+8YrEAIUoXn9r1t4/bfBkPkEqKYpi3G80UHyVn7aR1sMBS3/JeKLsyraIv9xovaLU2ULYExhs/4uwMgvCqb3kpd+w2ilF9+sMElbY+97nPrQ2iKPf5GFtcU0m7Nmorr894vc997jN78IMfXLdRO7fRvq0AZNih8YkreH/TuimuB9AkLHIYlGf6bruYpSzZAFe2WAhm+yrKjW98ZvXtuZvMjlWWpWMMp4HLzu5b9zr3pT5loNWgN8ATzxLDClAaWMCS4NCgJSB18a2LJ2NoDR/xBw8BJb7R7KxxKwWEMlwrB2hT11wBDKm75IvnyraY+GCdcVmBI9CRrbMFRotSWUbXPWMBsl1W2RcGuP7Uh2+rYvCvqr5P4NW88LL9bPu4i2Z0qgNoiLFztS334SkBydTf9Wy7/CmP1au9LGQK4YUvfGEdXtAnGYNDaIqBw0UXFhOHfPjDH17HX53bRto6QKZRtL1lGQSHoAOwcs1i7uu7XcV4zNZ5BrE3JbyRYICzKn2k08wgAYubsqq8vnT1uS8C3dzLVW3exBFHozwoEbEs1qQsNpkZe4OFNdIVx52yDWhUF8uMa+1rNxSLbJD6uAPl4zweA/CkMXSUPEndgAZPWNkGHU8kS2woDtYaC6ZUHKHBdhUd0wGk2vZblKwq7javiWFAHqVVVlUXzfghk1fKSnzORAaLXt+Ed13P1pVu6F/6icVITvMRCzPbeDvU6ks7tUP+yZ/8ydmjHvWoWsa0cxtpKwDZ1WG0qOUAhFxQPYM89w5t/CphKJlNKKOVaGFWkPga1zFv4bTpWFX+UHoX3Z96oz1Z3AFKvEo8yytuBh1rCiDJEjpTxpQ0h3+2+Ke/8FB4AjjKlI3YJJ4KaaT+0NO0eblFWRVfpf3gEisMKIphyyZAAI5zgJPlbRDiW+pt6pv/X3Q+d0wFkCmvbLc2oNH7yn/xF39R084wYBQs85y6aE65+hxIel/57GoiEt8pqFzveja0bWKrXvynRHk7XhB5zWteUwMl3pKXITSlHfGqHvrQh84e/ehH194KZRxZGVLm0HZvHSA1WrYU4PGPf3xtPRLwDLowZXBDTjut1yMBHgOccBrIQJEVCSC5jqwi57kr7bTJzkhdeJB67BM4WpnlyKV8d6Wd31G5a8DSagAgKhtosuT5lJFy19mW/VLyEB9NeBFYvAOULHMWelw+Vrn+TVpGV9XcKjUAqc0UAEUATCgIwMhaBIwsRjm0rWrzsnrVOj1AzttiT/3eovLChElKltU8tDNXCu5NWkSzNuOpGPoDH/jAevIC3/VFyY+Us42temXyYfmalRk+efiCF7ygVg6U6aL2LKJPefCBx+TnVn7qp36qli/KYBvt3DpAZnD9+Z//+ez3fu/36mn8DKByEC1i2KLzfRmfTkw5npMJlsW3JnBYk2bNDHgpnd7ca/1Vnt78tqEXDY1mpk3F34Cln3jwnrvYG/CwFAUvgRZe9uVJn1ZEGHNvjg3rK1yubCgUFsxeJbwUDh4CTMoGXXmmKQPftcvRHBxKmrVR2yy+9lUk7jQFwY3+KouxGoj7y2xKXvS/LLvrnqkBMnWERvVTatpihtdyNzyL9Z/7y+0ymikQAPtjP/Zj9QcsWPCNZdXwc9mzZR1T7aedytN3ZJIysLqAzI6deSbzF130lUoJ3LMGyXh7qW+T7dw6QOpU2gDTHvOYx9QNv+pVm3VS2wBInYexYW4AG7jQcPliinWTXlc0AWGAE0TAozM22SHoKxMAASQSmtHLXcNHg42WFp9kSYrNEUzXDPbQmm1Tyrj/4Vf5dM5lyyLHJzFeAxU4crmBpVgZSx1QNvw7ESC1TTjBBJW4qwGmXYCRxei8dXEsanWmXU15DWWhpaTTfnlP+1qOtwGQWUj+9Kc/fXZOtW6TBQggF9G36DyaKQqgY/JCHJK8miyTlj1X37Chf5FXgEiZvfrVr5791V/9VR1G4+VIQ2nzHJm2pMmElPWQt771bS4fw3M52ESTtg6QXCYD2fuaT3ziE2vXUGxiSotnVQe0B5HjZNoKENLGQFKHWD/ZTOBcqeqDubVTdXXV2ZvolsVlNnS63rjehAeYmOwS77G21MQOoIkluYi3q/jURUWbd+U94WG2rh2rrPCzq/iYjyt4o8ls5BlnZHkLXs55qC1cMwF+rhkX1DEXK8op9Y+hvaS1a38bAKktgO0P/uAPZk94whOOW5Da09WmrnOhXR8LqXCxrU9lWVHoi/o7z21jS5GZW+DlsJQpOXKp/4YaQgwCsuG1YbP11kL6TSoKVdpkezcOkDQK91CyoPjTn/6fOo4kBkmDEkpuxjJBqB8e8G9VWRlkZZHOYThNJZkl43LTymKTsSYBJWszA9YAT9oGWOJnO33+85+rLUfAwqoEliYwMoljULK6wpf2tl3esuMu3uV+18JHvNS3ANGgpXCEL1iVe3t7NX/1e6wD1gag51KnDRQpb0M5gKAcWGlD6p5iuw2AjPX/2Mc+dvbkJz+5joOzvMu2lW1Z1E58BpCu+2ai10CtiRT7Vdai8sqyN7kfT0CslZutT/WvZOwMSWQX36yWIEM/+qM/WiuEyCIeLOLTkHq67t0CQDbAo3Kd9tFq4L61sgzMYlvyYCBxM6ZMq5gVxi6qE00sSVvCa5abJckCYk3G5W7X0z5eVP4U57vaQJBY6H4awJsbXnEz40uTaw/6ktEwht6uepe1h8L5YkXT1as+NnhZkl5ZPFZZlibDWBrCAgaSWU8WMGtDuCPx1JLO1F+eW1b/kGvbAEh16Cfe0x//8R/XMqZNxoY2pX2he1E73aevXb///e9fA6TF4ngaz2HRsyl7U1u0kTcfjH7zm/+99mzIIgWOpkwk9q0fzwAk+aFgLfcxc5+0yXZuASD3W5Af+tAH65k8sQnrpCSDYcq0imFtIWzX7TohtiVsANwaM1YQgDRbSBBZR8IDjTVZztK2S5z+uCKtSPMQAYuM5cUis9RCHA9IOhb/AkhcPDQD/6FpFe/a5eEjkBQrw0cxMoLOqsRT9Igt5lNhwJzV6P6Gr3MLvV32qn5u37/qeBsAGQuS9fi0pz2tJglPF1l8i9romS4LEl/Dt0XPruLDutfRRg7JGUWdH7HzlpN2UnxDUrwRMWxenZlsb9REqQwpa+i9GwdIBGVQ6TAzkuJLYhOWPLgGIHPP0AZ03b9KMIbWlUFu4oGrTVOLT5p40GE63IBOWlV/7ptqS4Dk0083e90AClDiYnNraO5kkx1ACI1jaB7KO/cnp73qJuwmxAAkS4gVacC3ebmqvil5vQ2A1C+sKwBpoib022Y/fLLtOpfr+MUa42KLQYrRAciUtezZlLGJrT4zZrTTeDfWfcDCeAfeQlRDkvLIN4NE6Ovnfu7nZtZEAshFimVI+cvu3QpAlgTQKH/7t39bu1TMbo0387lqIJRlrNpfJRjtutzfPlfW4ZoON3jFzVhArMisnTTQgSfAkavbqxQTj+CXpU2/jz51lvUY7AQUAAFEMUmxSdak/N+VRfnxKkfICG4fYVvGp0UtI9xS2S/6XGZRySwO23ascVGZOV+WmXNjt9sESL/f8tSnPvV4DHJROxad18ZFAKkflz03lj99nyMjeKk/rbAAjpajvbb60vgZFW0Acgh9jXxfVs/2M6Z8co8VWcpsW/770rrqvq0DpDiTJT5mKLmAGt+ASgBlFcnd1zNww/hsu+7Ovbnm3va58lr2DWKgAyStm2RNmjnkeufrNlzu9iBfRkvKnmJLSObA3AAScCKs3FhuNleWNUk5yYQ4AOZptC6jdxGfPNtO4WueCQA7RpPsnoD0snrbZTseen9XGeU59JjQEmNu/yaNQR36y2f67Kf96I0F+Yd/+IezJz3pSTVYLLOolrWxBEiTNCxIXs1hAMjInUk3Y15IzQdqgFrWfS5rW5uveCgkJPto88/8zM/U40x5JX/bz617vFGAbAYsQW7cbA1hbj/zmc+sTW+WjaSRYxMm64wMcsdjBCRMXkZHOh0AAnUmv8GUmW6TOWKTFkuXE09N2Zu3JNu0p022BqbBj+dilKxJawxZkxQVAOXqspK1b4jwtustj0ODc2WZzuNnzmVbPrtsf+j9yipp6SobPZsGSOXLlvkASAp1DGCgH0ACDG+YWAcpPg4gm7R9ebu84prP6V8y5sMVvr3gFwWMm2VzDov6VXlRpL/6q786+9mf/dmTASAbq1CjCR9rxXfiBKcxTgdLQzVzBJ2Lhtl5XnkCw7k+BCjzTDp50VZbYv3kGTNrwDFAeayaoTUZAWwIcOhb1PmL6lr3fOgr62UB45FX96wx9JV3+YJqMoeFqZ/k8tny+TE0lWUtej73LLrePj+GplV1bAMg8Z6csiDNZFOkZHhoe7RFWeTL77UASEtgyF3aObTMNo/HHqtfxk8K2KoK4HjeeX9XAWQTplpU9iKa6/KUW5X567/+6/U72RS5vMn2btiCnAMkcCQYTG3LGwxIcT0MWcSURUzEeCAlIG1tFCGjhb1VAngJDnc41tCicsrzYXJ5btG+e8v7CSmwBpRik4CS2y1WyZqkNUtXQLlD27yIliHn0Yx3CaDjk0mbrD/kDuEf4HSPRAAD8EPq6nNvycM+95f3jOHfqvq2AZDGgFl6AGmiZh2AZImSLQDpt7J961Q8PO0cw6OSx2P31S/jJ+/EvIOPdPj8GXqFqBalRTQrL3Hq3/iN36jjkMacsbfJ9m4NIA1GK+kBJBfbwExaxJRcb28xXqYxraznVpgkoalYQz5mwJUEopjXZ5CHye26+hxzXwGKReQEVDwSQMp7e3v1ea4U4SjBZmi7+9Cy7J6mjY3rhX+OTeL44ANB5naLS1rUq6+43CxO9wF49E5J81iej6VhVX14smkXO/z2oZanPOUpowAy7dA3QAJA+sVJk4aHDSAZQgFI657XAUjtNdZ+8zd/c/aLv/iLddsZQeHHWLlYNma2BpDezWSpcLF9qEIcbJ0BhylnnXXW7OzqNTaxF8LBnGcBWWxsEsjMLW3NhdExy1KYvOyeRdcC2LSZeoChSRwA6S0c9N1AbLKKV17xitaAzSekNtGpi+jM+bTVlhKJda+PKBcTOfjHIsdTHwq48pWv0kvRpI6+29DS9/51+LWqrm0AJGVk+ZX4o2U+LEjyMiSlHSwqEzx5F/uwAKS2oBE/SwtyB5CtXk5HEmoWidnT86tfNPSaIQtv7OSM51iFeS/T7B1r0lo6wMsKYkka4DQYS4gweY4FJ7cHWmhtNWHQIYGQlM3lp833KgvyJje5aZXPrOOULF2DAv0NDdsPpne1Fe2AEkiKT+or/JPFJikaPASoaWO9M8G/Lnq6ii37zDPJXf3Zfr5PHdsASJNhFuxzr30PdQxAapv28FrImUXTZrEBJPlKW0t+tfmx6WO8lCnYWJCW942xINPP5FNmQVrqkxj/Jtu7NQvSoLOS3nooC8WBGZAYkzCG5vTamlcAxV4IB4HBQO68+ry+5mdmzZw7DkNZepsSHp2lbNnARafZbtakr5CwJu0TbO2vbq/S/PuPY/gxxTMRwliUeCgWaaGvj/OaicRDMTT3alvSpniZ8ttb9WcA2uJjSU/7/r7Hytq0iz0VQGoTenlHZrF9wIFcHQaATP+QJQDJG/Fq8dhJmpSXPgeQP//zP1/HHxk9rkubkMONAiSi0V5hRe26ASrZD/qwVGJFpYHuX5XcSyhoXp8/Ihgmao5VM8eupSwDWecY4NZhcRu5NiwhsQyd596A2ap6h15Xtg5VPq0pPolGLre1k5YDiZ0CUHEkaRMd3Jfu8C33ox2vgCQLgOWPl96Tdo2SSdo23fpOlgAjBYSP4lMyJen6ULq0a9MAyZPCUxOVfnJkrAWp7frMhEcAUuzbG0rpy6HtV+YUKbKvD4S8sszHRA0jZegkjX5RFjCUf+3Xfq1+mwZ+HHmADMPFIrx77XUjlqTBNxQgMV4mVADH73BY3gBsvNeLkXKsCRYl91rsk9vNmtRhXMZMPhCi3B9ap9xGWNFi8AJF4QDg7pNNNL61lO20beEOneioWFzlhpf4adLGp9T0HatcWwLq7t8mreiMpwCkDTh9Tx6AD8VLtoDkULq0ddMAme9BWur2rGc9azRApr8oBy62Vw0tNcOHXBvafn05RVI/XgI1KyPMCfAarYUcA5DK0eee5Xn90i/90uxnToaF4iWzAdN5572oYtYb6y8qc+GGAmSYbumMQeGrMADS2i+CcemlALSx2iIcBgqQBIoGug6TuYssSpamQUETbQooM6jF8DKBA9QJtPipDCQBP56cfvr+hfMs8KkTEJRSNhpl/KI8TCaIE1tt8P73f6CK6b6ttsgd64dtWpChLVvgbKDocxYTD8K+UIDYKaAkX/ozctC0dvn/bQCkGLnJw2c84xmzZz/72aMAEh8k7fNucr4HaZnZYQFIgEbe9UdeNeSFkBse4KLU1V8AUjZ2WJ9msB/xiEccH7PhR9ezi+rpe34jLnabYMcY5SO5LBBgyZoaCpCYZACzuqw3PLuawbb+C7jQpKn3xMafVmmg+c9vMvlNPnAZCSytruPKQX9iGeuf0YGxfrTFgEQ/AQeWQJOryCVvt2XKzt9fdjNJ5Bx6KAxxMha/nwYQDtFf+OQ6cGorkilp6+Kyesus/ylFMTeZgrFq4PnPf0Fl6b66BqCEcNC6v71dNTTn1LFpC5Ji5tFY6vac5zxnLYA0fgKQYvGHCSCBIyVFhoTVWJHGPkOk9D7avdElS/rFeNFWY91bNOXHKtK/Xc+2yx96vHGA1DjMAkh+hwM4iWM5p4OHpACkwWFShlDc9773rbUKpjeK9XLTaLbf7Lr00kYLGfysSfFJA9/W+j+TRrKE0UOtj77t0JkBR/tc7r1qptvXgfKqmNlvWlabmk5v2lKRNTo1vDnx8Ysvbn7wC6Bov2U+F1Qz/3ijn/CKNUnY0UuJtAWxfXxiLcPPhE94pU7Wg8HBYqRIjlXxXC8KWIzvnHTuuc+twjgvr2m23rCxxg8WILVDlsgUCxx//+zP/qxe7tY3BqmM8DllUqR+3sL3IA8bQDKAhDpM0FjaZ2tlCR6ge1FKG8vrZEDWz8a+D1VY2tTcu/7YKOtq728cIFlMrBLMYUFilEHHEqRNuhjSJjLHmOQ5AwOYWNoAIGPVNHI4F6Q8FwFVl32gzSICAICblsvvuqjD9dA2hL7Ut2qbMtGCN7IZbsuW8vELIMkqBg6EKinP5rjPNu2f34sPjVWmbiEIbp+BK1bLshaOAJiEGS8kdXfV33VuXtewvdCafiI/3Cqflcvv29jKrEagKXGrTXqYCNC32nVYAJI84ZF+pIAoZfFHP/86BCC1UznKwx8xOeEmAHnXu971UFmQwjTkygSpuQfjjCGCfv2SftamMnXJUjnuKUbWo6+KJ3U9k2vrbjcOkCxFVpv4kIWigFJsi+Bn4PVtBMHALEzKInEgaRCvYlIDnmpqNDqLiIYD1rQ6gBSbBBJmGblaaNSZq8ruS3/XfQBfTjxN6EAWV9urLEtAaRBpYxObjIXcDJauMstz+wVxDoz6RD9w+eRY0/gh5JCJjiiKlNnFi65zuX/IVv/iRQY/64jFwErEC5ajfbwCDAAiVvYygETDfj50U6X+qV1s9cp4JFPKlM+5555be1R9AbKkOAApDktJAMizq3AT/uDLQaaMswsv/HKtYLnWlBb5Ms7wgEwt6o8uWSITLFLhFAbEkf/JhTReY2kSA47l6F1M1gnLBNCVltGqTlWWcj0HPKyBvPOd71xP1PSNHYau1KVMQCDT6pYCeV2RtkMzDZjkXnlTCZ8IPkuJhex9bus7tdWEFGsSIOwHLDQtpqhsr7LxjqDJBiqNbntBlT94uUvN8iKQ6qIc+qR1+BIa0SdL+tNAB4ZZNyq+dp1KWVy7AkfXGyvE3Q34rALI+s6MXgcdSf1TA6Rq0kZ8Imfi8T75x2BYByBZ1txOAGnCEr8olYNKZTuFOIwh8cfzzjuvljN9hAfGfe5t09olS+RVv/hQdZb2WcGiv5Szf0y0S1zveOMWJEuNVQJ4MIqVJqbFOhsDkJprLaElMtxS2YDBqC7mLmJPM1aaJSNoQRPgJsCAw9o/ViXagRdLJdbkos5dVFef88BLuYBJ/JHgi08CSO4kq5I1aQB0KYQumkp+AL7EX7nTlAGtznrkkuon7cQLgkfo+vZPWU+ftpb3aLfM01AOKwgYijHbUhZ4ATBZTAmnNHXOFcRRAUh8ZyRwr71Zsg5AUpomrPw+C2PhMAGkmDaL0fIwP/sKLPWxtExeuq7F2zPmeYx3vOMd699cPykA0sA0a2ft44tf/OJ6ULLMDIouZpSDp9zPvbasCjEXMTs/Tn/GGSwdrud8wJTPLtovQRU9LCcDDSi+6U1vqq1e8clPmMGtrkub1FboQYfEpTZrR+iBo7WTZroBhkFlthststQGSMfAjlDK3GnxL+APGC+oQgmsR6DJgga6Ad7wui64578hz6CNcAeIKR7tYBGZkeZG6WNtxwNtpTgC2NXjWlzleX+XAGkwapNy58/MQxOLmoSeqS3IOa0NMHCvxXlNWDIYxgKkNgBISlMcHkCSjcNgQaJNf1gJYe3jX/7lX9brUyNfri9KXXIEQ2CGJX0mZ/x6Iw8rAKmPu55bVMeQ8xu3IAkqRpm99roRDepcgKAvsRggG0gGkVk7cUiDaSxAlnVn0DLnaSxxSCDCkpRZwDopric60iltcCrLHbqvLFmnG+DAwUQENxtAsihZVrKZXVZVVwKKtDiwyAQMcASSFIA+iDsdaz487iqvz7nwY9m9aR8gYrEKKWib+BJLWRsBI6tR+wwqvJYDiHPQOREgfXdQm7UtfdS3fzYDkI0ywBt9yitJPJ7BsA5AXkOMtuLffe5zn9qjApAUykGl9C0+fqwaP++sFIEF4kIJxhVZXSUjXdcDkBbEP/KRj6wNhr0qJp36PNP13BR82DhAikVwW1lkfh/XINXgMQAZ0BCLYGrbitMZCJi1LqOagdRMZBjAXG6ADiCtB2RxoV1nB1SAWPPcFN0xLyOdT9hYkwYSMDlWTVBlIgdwsiLQIEvuZwmjn9VIUD9SAT0rHlBqk3CC+6bg2ZzixkIqj8v9r1f1ff3ysApatYmyAYrAMbFGkw4Guesn8rYBxKMIkHhBTrnXlC33GpiPAcjIxjWrsMP1q0ksa2m5nxTNQQMkuTI2jHkTNJb4+KkF413oaBWQta9ra2KQZq8f/ehH1xN3FKhrUvuZ+uRE/zYOkKwuIGO6nzbBOBYaJg5JmEDAWBTWDDK3WZLika41g92XepbMWvSoMINPhwIagChOpw00v8WuLMtPfeqTFS3LPx/fo7qlt0QA3KSN4m+sKoMAOAITsTnnWJoSAQWArEduDhcaKGoHi02btK0su36w+LcJgVO3ftcGoC5koP/EGlnFXEPnA4xxm7poSR9VXKn40hB+eF3sxoJEJfkVsuFNca8ZDGMBUnlm84Gib0GKywUg07ddvPPcppJ6yRZAowi418aLlSvOU4irUkmz8tIW8uD3sP2iYQyDXCufWVX+0OtbAUhxl6yH4m6zbjBsaGJRAEhxR1qT1WGAnXaaWbHmHewpmBXGo8++gQ1k3ve+91ex1H+rZyHF8QI62iKre4r623xBQ8qPkiBsgNEAA46ARd3uQ5eM7riyzksljWU7U+cU9KdcW4KNNv0mm1TgQoshCY8Y1CzjXK8eqVLihXMADH311eP3zK+XANleB9k8kzLLkvbvUy74ZQBO9aNdeKBcSd8BC5aVcBPLSh8ue/VuP4XNkTJlCpJbzVgIQFIyrklT9GVTY7//6qWAhW+Md3FWCkHIAw/i5SwrraTZMzL+aJf4o1cMHeNb08xhk7PL6u66tnGAZMkASJqExmR90TARmi6iFp2La1YCJPfMIEwqGZxz62x1OlpZvECnAcr31dakzqcpARELyQCQN5HQoW1yBkDqQV95PedLvuRcuW2X49oU/ENPMiAn3GbkM9kkyM7yZQkHGNO2PvVnYCyyINsA2dXOkg/ZR/OmAdJyNx/9AI4+/ScuF+s/dKzahrfcTMqGsQAgKZqDAMj0h77DP8qKa+17l8Y7OUz/rmpb2f+Uukyp7lUxR7FWr+XyQuTy3lXljr2+FYC0tIdGoTUxzASCTh6algFkF0AMLb/r/qbzmyteV6QhudzikdZLmpE06WFSR7wVWEYgPLWJTtRWOQOFENmPEKpfBtYlLe32dQHHGHpTTvoUKBr0ND0rxyA+VsVOTcAQdEt5XAeOGVwNbXOLsE1reTx/Zn7/Mgsy9JVldO2jf9MAaTXHP1a/D52vI+HDGIDUJoCIl1xs6wMBCY8i7R3Tl118WXUu9blPeIdB5KdVrPVkPVIC5LBPKmlmlDCmyI2w2t3udrd6cpZ8kZ3y3j5lj7nnQAASyBDGkrGriMcMA567xoLkVnDRGhe7ef0qwLCqrDHXS1oBks4z8ZFJHBM54qsmQmJJLgOnMTQsewZ9EZhyP+eWPbvutfQlnmizeKLBavA2bz/cogLGG9bnaH6Kbk7XHOT60jEUIFNu2Yc5V263AZAmK1lXrEef3xsDkOlfVrnVDD51JiRAGVkqlXbOeVy2cvr91Kdkax8tDqcAvGLIaEBTX8+qpDmTM2LVwJESsO6Z/CivvHf6VjUlbgUg2zFI7mgGVd+GYUYAMrPYADKz2MrbNCA1A3NO8Re+0EyEfPjD/1GB44eOxyZpTa54FIEORdsmUltISmFtX5u6/vThFStt/o0V8LFexO/yeiCrEUhm8kDc6PTT94cgqm4dnMYAZMmXRRVuAyCFmlhXQMQ+gKQ0hqS0RfyRdeWj0QcFkBkT5gDIO2/RDL1PnNk31rWxryyW91G4vE3A6PXCrH9sxjm3fQjXxt27cYA0iw0gaU5xl8xis8LS0X1IxzgAybTGKOsgmd2C/VOsg+xDg3tOpPm0Skt+oXYtBOBZktwo693EX7WTSwAkt51KYdtE3QRY+wKMWX6ULYAUZ2zoIM3lRMlwyzFtGAqQJ/ZZStq/3QZAshqNAwBiNhs4ko8hCZ2S0MVBAmT4qn/Jghi9JUy+dWkcAEf3xDjI/cvaGpkt72U9PuxhD6tj2Nq8zbRxgGRi1wvFK9B4WRWDtA7SLBeG9k1hGkYDSJYjpnG17W8TINEcrRn6v/a15v1mlqN4pLgk7ZlF2eJj3IW4lmlPnt/Udup6DExZuTJr0WQLV481AxAJMFfPEhQTBnPraL+6rx4fnY4yQAJGriegBCZjARKAsM6tI2UseKts2y52QIwsAEdjW7u8Rin0NMZzUpZyKV4xbOEab835WQkypo3bTBsHSIwDFIShfNUQQGLGkAQgWZGW95xdfb3ktre9bb1YPAA5tLwhdS+6txGSxhqyDwgJh+yjBPmcGpAsBWZKWiOobRqnqiPlByApKTmLvPMWDKA0s2rQu57nQtd09CiRNTq3Qo/KJI0ZbKs5uNdmtMcAZLwvCskaUsaCsXBQAKk38B84nl99NdxkrIlMsccuOXD/okRGyBl3nSyxkH2Iw0SU9vFWtpk2DpBmdVlVAPJFL3pRbVmZ6dLJQweM+2VxR1/z8EUfsRedcJBpbtHM6nZlkbZ2s54tBcoEjpAD10MC9lOkNhClzKH8zXPlVtmEFfDT6CxDlsve3t7xbDaVMBsQ4k3alVhj1V2Tpzm/jx5AmsH2Bo0wDE/DpKM8JBk7MvAwScnC8trtNgGykbnmrTNxQqs6fK1L++IlCh0wahbJZ1ebySzjibxRACZlxCC9KUS+KJQp5Lqr7q5zGwdIyya4nrSl38MGFt7uwITEJroI6zqH0TKLBeOAJMYdJoBEdzpZKCFv4Wg3Hpj59ls4QCf3rtvhiwRwbLnhc8ql0Q1Iky/ii7e4xS0ry/2W9TITH0uwjEOORZfnxtZfM2bJv0UA6WcMfHuQvPFcYrGHniVF1pe0c1PLfPCCvLOweFLeyuJdZBH9KtrK68aO/mDBMxZ4U8JNlBcQSXs3zX/lo8V41pZzzjmnXgRPttGQ8R16yjYs29c2oOttK6tVhA9MzAJHyndT7eqiaeMASRNgIHCgYWhNAIGxQy2oDFSDNB/MFX8ZqoG7GDHlOQM4s3oGnPazJmlWgmQyx7GBbBD3CdITskWCsUgAF92/qq0RUPymfIAgpcRa8Wpn3n4xK81i1AZ5nuaW3fzcdHtdAEmm/JQqL4WHwkofOphKgKSALb6mgCkG7cyAH9ISfZO+0x+WvzAUyICJvDEACYD0kf4QbmJBAkjxOooq8jC2/4e0j3xri7eDtEtYiTyXvA89fcp1r2eVARQtgjfPQBl4tXfdV4n70FDes3GA1Jm0uVktP7lAc7KqYkEO6URC4TkuHuaJvdAwNMsY4S0ZMeV+BrC2XXqpgPMl9cSUj0ewJM3oE6QsgwgvSoURvhCYUsByvqS3vF6e77q3vJ791AEgUhbAM9jMQhuIwhmslXxFKO4Tvqe9Ka9vvbl/6HZeXwPE5MLbM0960pNqC1JYh9yhbQgtygGsJp54JwBSBpBp71Ba3R+eosUMtq/bUJRWd4wFSDJjBYc1gixIBoP4HCAv6xtDb59n9IHJScvZgD7LGEhS/EIxpdESelaV6z59QO6+rYo33q4KnwFI4KgPyvGxqqyprm8cIDWYuey1PB/OFHsxaUOASy3Tp0HK8hwLxqBlPXr9iCUDJCVMHjIo+tQ79p4Ihi26WdMEymBmSYvL0r4GC6HQhtAfi0ybAVfSkLatulddyfoIjRFQYJgs1mUCxqw1XqMt4LOqjtA95bYiu0rNJI1tJgKf9OQnz/6+crGT0DaEPm0PQFK+rMe8oaLNQ8oKDbZ4LHneDDZDgYI0kbcOQOaDHwCSBbkNgIx8kklvj4mx+yiFCRqLxMXYtSnyUTe85z/8Z5FSUDwVvLfGk+xR1MrcdtoQQGpGA1QYquEE4gUveEH9yiHBABZDhU45NKdgNEuGYNAwWVKSgTNWkKdmfugpy0U/MOJuc7HMZsoGpuyae7oAUruGtK3r3gzWuocqAlMmZaVOAMiltsY0X0tyzCooFVoGStm2be3P+dpMEhiorHE/2sWaERYoae1Ll0GvD7wF5O0UAJkF2OFT37LK+8JzZZjB9gFZ1iNwASbp6/KZZftRZvrHmmCzvLe+NYBsJsnK+paVM/Ra+E6R4hPFziM0McMAco7sBsi65G9Znca3tjGAhDgS5jC+GQ9Dy1tWV99rGwHIduU6jED4xBMzHGNpiqEAqRxMpE0MWgLsu5DWRzlOBx4EI9ttbh+HNm0wELmB8gXVu+lmuIEki9IMuMkdKYJuX5uGtiv3pxzH6pZzDZhwH81E09T5LiOempkGmAZxACfPoemgUnhpUkj4ghUubGGChocSgBxKX+SLOwcgudksM5ZzkxqXfky5nsE7M9jeUaYgTdgZA0MBEhABKWEmigxA2s8qgrK/h9K66P6mzKb9YrzCRV6XtK6Toudax2ocIyPK99wZlZX43ZVLzXK0dIk8kkHydxBpKwCpYbQl9wJDCTEQyKDr23BMlFkz3AkmOFfIWjBuoBRG9y1zm/fNB3ZTK4EAiNzuuNuZvHGe6xhrAajRzhSE/bQzwmjrXFK5XwteJWD4nSxWJWex9161bOdYtazCZIwYbwZbWV7qyrmD2oaPeINHBqoPGnszhbIBkLFihtAYPlEOFK+4qwkCCjn8HMOD9BVaTCI997nPrRWj9/bHgDmA1HbgCMB5UgASkCRMo64xtHquncLvKFc89rm/8y+PO5Jf4xnQj+E7/iibIiaPeG5uQQjBiwcJn7Xp2sbxRgGyFCrCABy9g8okBwDROEMbqiMwk4Yxg8fVoGmOQoqwhVaAJxvoeELwhCAIoVgt4RPXEZJgcbK8WQ8ZdHgYPgY4le16+A8UWYkEjXKRWYesbopFJohcG/fJbeU11WBLu8dumzY1lozVASb8LJvxfjPl4tzYgarNlAZFwYKxvITCmPITYryoZz/72bX1iN51ATKrOYClftV36fcp+qwsCygDZ1/m4gnacq2l1JXtkP5Vh7IpZfzGd/wnlwwh/Vn2+5Cy1713awBpSUviFYK6lmUQyDEJs2RakxskTkRQlDe2zDF0jH2mIr1Ksfaawe7cJZdcXE/giKkZPAY/VwZIcmsApVc3Y0FEo0coGyGaHQdMtRAuE0ABRtaQ5SDAkVud7BwgSCppTPm5dpDb8MmAoki4dywZg5UVgzdkYCjNeIlXLBgeCQuGfLGmWWbh7dBy27zyIYdzqvWCDAb9uw5AknlgEgsSuDMcpqK1lAH8IYtkk5GTnyBxPFYhhTfolc0tiDsaz6x3MgrwfRDbeFmX96lvyHZrAEmzE2jCbLIGYI4xxzXO4GBRWeZw+4qRd7p8SQYLCUOPUpoLoVdOmhgrV1r7WJWE0qy3DChZmYAg1iSLsrQcCZFBIgccaWHAaEsIWY+y/QzQWKHh3UEIY+q2zSDPuZIe7Ze9tieLabO48WFMUhcrHi8Sh+Vic/VM2Ix1W9OGknZLfEwmJZQS/g+hOwoyQOIXDXlRAFJ5XfUOKd+9ZRnxcigj65mBo1nrrHoo2zemHrKHbsrIK4VA3yx2qbDXqWMoTeX9WwNIgx0o+hbec57znHpJAMZLQxsPQICkuBlG0qAyhgKBo5YakCypbmIyBBDfWI2sR2AoBxwNFNl9eCIRNkoiIGnQsIBYkfZZklwZW+elOUjXh9W/xqrN0ba3GZypF/CRFW0HjMDFBIeYowHLG6GA10n4Bwi5eOJ6ANJSMjxqQIecDqsh7Sjl2xKfpz/96fVYoPDGeD34QP4z03unCiBvXoWYApDDqDzx7rk8NnKIt3guTs61ZuhcUE0uTpH0K1llLTJ4sjB8rpiG830KulLG1gCSAOpYAPm0pz2tnrQxuKWhlmQGDAuIi2g9pGzfkoCjmNogVQ6qDLS0i3UZK8K+DCQlzwHINkiyJudpDoDL6p3fv729dlu1R9vIDiDk0rEY8yaKwRrrt+TZEIrVST4pDbE8wAMgLSVL2UPKy71pS0mXJT5PfepTj3sDAHKo/FOQ+rxczC4GPwVAljQbZ/iCxxRR5hAib2W70uYh2/Cd8kY/t5oF6U25K1zBRNtAjTSk8p73bhQg0RBtdNllDbMxmQUpuMuixKT9g3c15Z7RebGITNRYlmHFvckGHbdu562mYvo7wqu2pdI+T+sSXNsyo0i7Y5VkmxhRymnum9Of8+1653dsdi/1z2tp4rOUACvLl2I++Um/7/3R+qMIrBdZXFbIQZuHgsy8rmZPGeKP3FWrI7h5173u9aqyG5627+9zXIJN7jeD/cQnPrH2CoC+euUhKQCJVkvdAKUZ34RVhpRV3jvvh2Z84buPUJg7sIzK0iTHxp4UurMty1q1H97oN0aN8eutJWEN4Z91FNOquodc3zhAIibMwEhmuhgk90hMA7PHxA0Dkp63Dsysl0WzXO4xWnkI07Z5b3iXOscIY57dX9bcisz1g9g2gzITVo2s6FPAz7UTW7RETLYvsyQBJ+Dn/q7LE89zr3kgLBgD1UQNwAzPxtTR9awZ7Mc97nG1RRyrfyjfA5DCSgFJABlFOLQ894dW+5QvKxEgZrbaJJhQj2sZX3iS7LkhSR+rUwjjWLVqwE+6AntgyaIMPWP4PoSOVfduHSC98WDd2vnVZI2MUYmFrSK2vI6BsaQEqMWNMNjSH5blGNAtyz/s+21gWUzv4QDCkr79tM/pM/gMQgDotTVxRpZiZnwBZmbxWZesjHUtRzJkEArXAEWf9s/bM+sO1K5BDiAf+9jHHgfIMQATgBRWYhwAdK+FDgVI9JU0Gotimzw7xovXYVmP+sEkoWvuCc22Y/mvDZ43E4/f1jNrg7HLvZaqyweetg6QBJ977a0H8RgMN7GCWUOSjjWgZAt7xYtofwJjycpRnKwZ2v6+9w/lbd9yx96XQel5+2SAxWLQmAzgxpERFgx5AZjcaWDGepkyGfQGuckZy3ry2ycULMAJrWN42PXsOdUSnz/6oz+qY8hkV91Dy8YnH4q4+93vUa8DFjPlOQ0ByCgpvC/7gBLy1puZanFe63IDZu5Lm/TBGNpTBgWHx37rWryXBewNppQ/lCdTykRZ1tYBUszI+i9utq+vEFAW5CJmL2JUGK2DaXozsz5cwdVmspsVa56dWyhlw3f72+dAI/z7+8PgMzMNDLnPwJHFYpE8YAScmRTw/CJ5GNsadQNd6x5ZMWKP5Mc5da1TX9dg91vRj3nMY2rFruxFcr+sPSVAohlAsr6UJa9KZT/Y5+oLWbDU315Zje+qlJOJMFajVRSxstOelD+GN+qSxRn39vZmD37wg2uQZ9SYJBtTZujZxHbrAAkQBaetBxOL0TGYkrhGu5GLGJbOcp0mdszlOLuKy7AEuEvRqIvKMKKQwwAAK/FJREFUaNe1O94sB/SRTKmRgQsv/Eq1zvNT9UDkznHrWIxZ8wkYIxf6cMp+RINs8FOufhSKgt2rBq2vyZTyNZYr7TIc+2bl7/7u79ZAJn66DkDe4x73rGU+n6LrU1ZFQpWaPtB+YMs6p5zw39wAC5IRg//rxnjDu/DCWFWvkJhwGOvRyoH075R9nLrX2W4FIEMgJsmEUvzRj/voFFaDgdCsN5sH7D3Xh2HKU65ZbGupuNqE5lSIRYa3h3HbDMb9sSQKknvFYjQQ9T83jqLk3hmUrrsvlktbBtrHY9oeq9TiZO41V8+EB2/EbPAUdQQUlGUfMDzlKU+Z/Z//89uVrF+xrsu1oXXFgrzXvX64nv0l69ZststJ/fv5o75ZzWPWoTkBX9qioPQHq12cF/8938ci3V9+99HXKaMKHPGXx/iABzygttrxnzWZ1G5Dzh/UdusAqaGYIL4BJMU6ZNZe+cZCGNKHYQRPZ7IELDDFfEt/xDQsHk8Z2abs3XazHNAnMqADeqXFmEHJcuFSsyzcV1pB+svzXWlsXyqPvEjKMMEhZ6lM6htbfklrWZY6ZWGl3/qt36qVN6AYUw/rG8AzBFhgwgIAsp1Svy3eql8/yKx08V7jULzXWkfn3CclxNAuc+ixukOHtlqG5x1rsV5j1JinkMp7htaxyfsPDCDFO9773vdVP8PwN/XXTTBKDKKd+ghQmEtoWKHiSZjPjKehlJGB16e8Ng27434caLBsHifUL4DPgOayWarDUvE1J/1vgLpHDoDopz59NbYf0SNbwsNyeeADH1jHrcWs1/1qT5tLkUu0Ah75ydVHfX/7t397bYAUxwtAclVZweF/6FAvvqrX2JDxHO994V/mvQHGdhrL33Y56sfvjG9WurgpQAeUffq6XeY2j7cMkE3Tqn6rF/haTmCyxswekx4zw7AwYUhHcRkIpRk9cQ0CJB4JeM2YKWtIeaFht+3HgQCdARlXmstmQLIU86UiW5N1+ku/yCWY6CNysCiN6cPQxlOhRA1Q4RiD1TKTLLJu6Gjc0EX19z1ftglI4AkX+3d+53fWAkhAF4C0wNpSmQYgG0UTMLalnLymqh+MN4BIUQlx2AptuEc4aqrQAv6k7fb1pTWmjBWrTBgv4ryNQqrvPrTjcqsAiRVJOpip78s+fopBxxlIhJcQh8FDBgOBiMbUIY94xCPqAcCsL5f9DCkz9O62+zmQ/nE2/Iy1YMAJ/BuQfoPH21NiXSZggIQBk+fbCjG1pMzc1z6f475bskHmWI7CMBmoBq1QTOrLtm+5y+4L7coEavhikub//n//d3blqzTvyI+pDw+1h3tt1QaAPPNMFmTze9LGVerTB1YECGmYmc44y+SXctCZfhhDTxcPlKlsyo+BwlARyvBKoRn3KKSp6uuiYYpzBwaQBpPsS9pikVbsm0HDuHKyZggDdYosiK1TaComvSA2kFTu6adbvjEF607dMioWV2keGwQ8Bi2LkGXofelYjWJbLEYDVfBff3K3DEh5VdKfSUNkIc9EzjJQrZdlPbIauabigHKqmVI2Qju6gSP++FDFY/7f/6sAspmsGNMm1qiyWb/5UAX5Jvd4bLJLzufJKCautew85aUP8EQqaSj3w8OhWzzXt0CYMtqrVgbgtXHom6POqSd5aPnbvP9AADKCo6FMfdrNT0ZaPB7NEiYs6rCUkeuO7dvSXDrHa0ve7XzoQx9aazCTOHPwncaNCp0n+zb8TjvnfJ9V6xibrw2JM5pwYakI/Mtcu0YxNQuiY6mknGxTXo6n2EYWAHjW3bG2vGtt0HrBIPRsqn7tUHYDXl+aPeMZT5/9/u///vHZ3DH1RtZZZIAe6JP1fBqPcoorrU/0gXoAYuqzzX5onJLnxjHFI4yB3952sw+YXZuyzinoXlTGAQHknBzr4Fgcvgr90pe+tI6JiJlws5fNpLUH7LzEefyD8NOsPqGUmT5xDwO2+Qgn4S2f3O2XHIhVVVqLrrMQWDGslViMH//Yx2cXfOSCemDGYinX0sWlKwdlWdei8+U9fffRRz5kngTwMCHAtZMN1HwfsylzM8oyMqpteMVye+Yzn1m/SZPlLmPb7TlxR+3SFqCD30Ay/aI+C+G53O4HkFEIbV6OpaMsB9+Vow4KybI7rjWlRBmZCDOujb3qtiORDgQgS87QrLLfC5bNcgoe60ydvqjjInxlWeU+K5Jbw2r0EQvaVrxGzMmgMWCbMjYzOEpajuL+Iv7qD/Etg05s64LqXWkutBij7FxiZAZDBuSifgxvVl3Pfau26Nb3AUkunQk72WB17L1rdDVpc/0fHmobRQK8zqkmJB//+MevZUGiW5mAkXxrr/5gOTIuGADGjjFEznO/Z0JTfbL4ty7/w3f1sRJNlApx4TulRCGg66ilAwVIFoqfGeACWfrhiyE+5+7bczqszBi7qHO7mG6AKFenGBA6yccsuNy+N8f8N4ArUasfr6rbpcs5sIjPmQ21LIS1wo0DkGJbvIDMTAec+oKjatcdoOoE3GgHGqxGylBf63tuKCvGNYO1qW9z4KhN4aO68EYc9lnPetYkAKl8IChreyx6yglIyY211owj9y9L6/A//V0xdXbtiu/eq6aMZH1g/KFzrpSWUXK4rh0wQM4D8GKRLBA/i2nhOOsPwOlonRdhG8I+z9CuhMdMpXWR3ltlTXIBgORcMDY7WIbQfZD3lnymwMyMGgD4yELRRyZevHUBIMUcAScvwCBowhf9BmXZznk/lGeX74dWWzSSGYMQELJgTAoYrAZp3vV1vXlu8/0d+rQtAMmCfMITnrCWBZlytVlOUk+Zc77Pdgz/lYsWsuF5lqNXfO973/vWkzJ7e3u1QsoY7kPHYbvnQAGyZIZAMivEF8cBpIHISsH0saa5zpMJEbcaKObLxQYQ68L6L+VXt9Wp6udTLmXAXc6BStibPW6bWU/9AAiFPqxn1E/OmZUFjF+trJZLLldmsRqHMHHM4EQzBcpi0r+sJVaiPtW34l8GqD63xIsc+YxWAyBDqBt/b/iqTnzEN587s1h8nRhkyrXNPirDx2yHUD7mGYYHcESDdY0MD7PVvDRKCt+PquUY3h0agOQeGXCW+1g3d3619Md7ugGwMR2YRpaCZNLGjFqWHXDFdKTyk/PcqbBtFMPckifwMnAU5GclUlaJDXOnYzECpSZMMZ5TQ/u17MvQigbxOK8LshopQf0c2QloN2Cyecsx3Gjqa4CLAWDy6txzz63XQq4DkMpP2alr3e2QfqCQUj/e4rPJIqtFzFhzqZ1r0vb4vS4Pup4/FACJ2ZjOGhDwNxhN2Pj6ONAsXe2uRqw6l8601XEAkZazRIILxuIQ0JYDGEMEZlX9h/V6w5e5AAMcM6BiZVxoYQ/utIHtnBlRbmwsh9OqwXFGlZPC5xyv2g7hsbJlNNqSFxMufoWQWycfqz5T5hxrJhNxAccKpioFuIqiaa+HH9rpJyM+Us3yP+95z5v55BmAFA9dJ6X8dcrIs336Qn0y5WlMehmDIhJrNBFqdQD+N9Z6E9/fNs/Tnqm2hwYgdRChN9PHannNa15TLyI3CcA9mQv6+KbrXB0ri0sJ3lv+Iy7JFTOwEuDuIzDjKTn4Jxthn1WA07ybTOhZhuKMgNFHDFiOjlmSeIYnrDXb8CdbLVLmkFQ+2/VcynOf/k/fGICUmf7LhIB9MWXXkvJ8c3ywAEnJUDpereVmx4IMrWO2+9s3poT5M4v6oqwj/eApcgAQGRpexrCllLjUeWZRmfNaD//eoQDIsAljudoGpB8JkrncQDKWw7pMB8LK0sE6UyfnJxtoQV//MdDSyQ1t2x9c4cmU26ZNTVvs40XWzLEUAaIVBLb6QHwx99nifXLoSn80Zeds/22ebz+hPFlf6SeA4jVB7ptYoxgjJSfW5TyvQJ8C0qRFZef6Jrdox9+GX6dXsdsP1R+H8DLEC1/4whrgAco6aSzPu+rs4lX6IFt9gObwHyh6K+k61/n2ahLsGrUCm8KQ6aLvoM4dKoAME4CkyYC42qwZL9U7v+6MWISKxcRd5CYYZHn1jJvGbTMo5XR4lwCF3qOwjZBHQQA/FqN1i4kzivl6d9o57QU4ieMtar/z4ekYPpTlKgd9komzZEqLha9f9qqJFxMxFkmLH4s9JrXpKMvOPdvaht/qszD6Xe96Z72EzSSkrG3zON04qtrtHVdK81TJq5J28s8qRyvl5DVBBgVwFHfUJxkjoacsax2aDsOzhwogMRhzWQ3iXWZOz68ma0zaAEmuNtdKh6yb1OEjnmJoyhNLAY6CzJYDEQRLQ4AkoEjnl/UeVkGo2FilubuLzgAjJUM5AEVWo/ffxXopIFYjvswtn8Vfeg8flN3Fm1xfti35pwwZfc4DRSEPb1+wFA1Glos+AoqsmfRN6ijLy7mD3IYv6LLG1xI2XhF+A0j0S+4bQ3vKX7eN6i7L0v/izOQeOFoipw8oJRZjLHegeaUrXbmivaFgTBvWpX3Tzx86gKz0bdXmxpIAiH5VzQct/BIiV9tEjsSSnCKJrSlTwNzA43KLZ5m42ausFVaKa4C5y3o9jEIRgCT0AE/7gCKlY7LFchOTYWJi3GkxR/cYFInv9W1Xe3AN6RPPBpANRhmfhTgMStYJQKS8ZGDJknRfU6/a9iuCIfVv417tI2OWrok/stB5R2QJSJbA1JfnJd3l8+X5IfvKQKNt+oArTUmRf+NASIOSkhkOrkXOUtcY+vPsYd0eKoDEpJLprAmTNj568LKXvazWvKxKA9lAmqJDCIWsrJQnnmVN160rS/Im1eyogSrORWM2wNyAeLtT83z7/KaPS56pCx3axBIQRshrboDRhyS8tcSCNAFTttszrOkpLPRlbQ597tHH+pNFaNCxTvYqULxRZS2yGGWDFHCzuICK55ukzy7fPUQbfJTQSTFZiWFVhl/xxHdLfvryed7WzTQQrUAcjfqBjFNEwhh4v1eBIyVlm1ivMZBxcNoh5P+UnDp0AKlxjYBxC5v1eGJiXBSWpPyZz3ym5gHhmUKAlAFMZAKt8wlIMkExcLl8wJMQBSzL+sv9KTupT1kZlLasAe3gMmf9HcVyQWWBy/lQqgkaoAN8pG3Qjz58TmItygaleHAGpeUizol7Ac8GtI3Gw20xalf6Aj/1AfkVd/RDdRS++K9rffjd557wss8WbZERwBiPwZbVSBkxCCybIvMseX1A9hklFFQlKVrZi/4+NB3mew4lQGJYhMyWa8j6eeMb31jPAHIJDW7CwyXIvZ5zrjx2bki6lABdDpaExqDlVlh8bPASGG4eoWnHwFLPqvqHCP3ysk60oAg93mS5lDhj3GkudTk4gQ5ahtCTNg7ZpnxtYaUAcOfUbyCKbcWFM2Em/iusgf+UVZ5XZ7k/hIZt3ps+QysrXfz8tee/dvbKV72ynhjL9T40Tdle9cYQIAdfrZToNSvgw+/EePE/IQ0yTnmR88hKQ/OJctenLUfxnkMLkJhZ9WedLr74a/XAFi/zMQuBbr+nkXdvI0TZDhHApob9/z1vEBMKA/ValXt93QoYWTUAMlnMkkXpHtqXdgXYUmjfX7IBvv/Movv239V9lLIy8SJmy7r2GqA3XliKBijlwpJ0DYCiUdvkbSSDMsBowHHVKBk5AxNvKSM8dQ9ennFGw8vQmPbm+DBu05/eYddmyskkI+Uus+yH8D0yPaat5Fh/o8PWMVnFY/JqXx/gO1BkOTrWP+KMvCTgmE8Dhoaj0A+hdd3toQZIjSvBjrvCVXzlK19Z/0yDQa/jCVwTE2nYUT6zLoNSFkEVI+P2ESQCFaAMcHIFCVXflLKX3d9ngIgx4g0FYkACRq60eBdQNAGjnADjsvqmvKbOgCNgYLXgm8XdlolYLhJgjJJp6t/vSjvXhw9T0j6mrPQnWoESBS5+/opXvKKO+1q2Rl4bN7VfDWPbjRY5ypPCR9Pe3nyZlBASGSbTXOgAJ1DsTqeO5Zj2H3qARGjVz3W66KKv1O7j29/+jtkb3vD62dsrgXt3NekAAAzEtjC1j5tSxv8nODQvC4flSNNyQ2hd28zuZbBny1U0KAB5SVPatYiiapzVqRR2gy6ZK20tI3faJ8goD29sOGZNum6AGJTqbde/qN4pzqtT3erEMzwChgYll5or5xgf8VN8y8ckulL40HXtMJ0rAdKkh34wIQYgrTEViySnpTJfRn8pK+V9eCorS8bryIh9QEgZ4iulDvjIJhAEiPiuP7jW8YAo9sQY0Ze2VKrpeNVHpR+OEzzBzpEASO1MhxEaS1VYSGYGzzvvvHqWFmhIpVDZL4/rGwb+K5+PQNqix8AnYARQBpKC3ARPJoSOASkBLC24lJttSVbamm0GgVgsi/CzlbX4uQoAudLcZ6BoG2DEC4OkcVOnWQ5V0tfeL9sQmlks6KAcDEpvKfmYhJjjXmXFxNrOYM9zKbssM+cO+7ZsA4te/NebYDwe4EiZuaerbV3nFrUXgOFbwNCWjCjDlsFA3rjOeC2+mxx5pOwBorK6ADttGULXInqP8vkjA5CYHIvrK19p3gLhsohHWispEA4UCEs6NduxHdR+ntAkKxMAyYTNFhgY+EBTBqABUVvXkz1DMFOG8pRNwLWDkLPAyswqYRXaylxrgy7n3Ou5DBiDqN0G9UyZyvLVm8x6MakFEK0rPVYtFclyKZa1dlMYni/LmJK2gyhL/1EOYsCsRwApbm4hPt4sSn14EPkIj23VR6bIG1eZYo5XQzGxGiloCjyKugTGhv9H5ycQFvFvU+ePFEBiAiGRdGy+U8iSpKUDFoRGzn31zsB/fQVWsRFY+54jgADQPiBwDDiBBqC0JdTR4q5L2hZwZH2J2cnZF8cLCAJC2WDUVs/GQg3t4VVd+Ab/xQpUb/ZZLyxGHwPx2X0DtQuwQ+sGydtq0fqPpc96PL96C8zyNMpbP5IF7e3ql758cB95U499fc4qBI6UkRAGa1EIgwdD7twnl5ZiM4wO/5KprXZeR2VHDiC1IZ0LOFhS3k5gTRJE+7Q1q4pAdA3KDj6ccIpAdaUu4XauPJ96y/MEOcBpPyn35tgzAXhbA0G2H4sh5eY+zzrXbqtzm0ihMTzizgF+FouBaWZ6r3Lt7LNogCOFkPuz3QRtB10mILRywCoLv/nuFzuFPiiyEqCG0Jn+TkxRPJFFiLeAUWY1ijeyJG31h35Rp+fxvC0fQ2g4Ve89kgCps5rBTzPO6iUsrMk3vOEN9ULyfPUasAAVwpHct6MXDeKm3tWlRKjRYHBIgDHlllZnWVqul8Ic2rN1TZZyf1lG9vvSmvtXbdMmdRt4sYC5bqwVFoxXNK0Ztcg4YYTQ2NDT9Nmquo7adW3Tp2KPZq690MCzEXskA66HD2Pa5lkrAPDYJAtlhMdRQkCx0YdRig2f1UuRej55TP2n6jNHFiB1WASCq8n9tIDcMhexH6/U0eSsyQiGQW2/T1p0XzPI+5TQgHgGjidCh/2Uk22uoxEAEer2NfcklfSV+7mebVlGzvXdplxlyAF1VgorJtZLuZaRVcO6KV27lJNt3/qPwn3hr/7izZgws+6Ra00OLUUbInftNiufa84CP/vss2f3u9+PVtZi830AViI+xzMpZQav8/OqofFk5H+bX1MfH2mAxIym84HeZcd/GIl7I3NvrAWk1YFoLK8+gtJ1TwRtaCd4rv1sI8AngnWsTMIut1O7HNe7aC2f63qmvN61r0zPAUV8S4jAYASCJlxYMHt7e7Nj1QQM64YVww2UPJt6G/oai6arrqN6rmqiltbtJF+WWlnO8+pXv7r+ribrsYw9Dm2n/sd/ykhM149hPexhD6t5zDqfp0b+2zxfJGPz53Z7qzhw5AFSAyOoXBmWJEElnIlLAkvnpLiHq0Clvrn6l0Ge401vI9TbrrfdLvUbnPgJFLnR3DpAaHaa1QgkuXusmCxjYi21U19et5877MeRO3wyMcNrsarChKHXOmPRkbkxSWjGpBx++60dvzPtt933g+N+z6Ss52Tle9nGTe+fFACJSQ2gsHrmX7C5oForyYoktOKSWRbDFZK4LtIyQTpIoFpGV034xP8CioplMZYxRuBooJohDTCafGHdSGgNYNQnqgXG1amTOmkvebN6wrIerrVlPW+uvsr+iY9/olIszVKuMUzQFxQ+gPQDc/e///3rrbeQTj/dxMvcu4grvW15GdOuo/bMSQOQGJ8BSnPHmrSoHEi+5z3vrdyf99SaXZxSYvmsig8dJECicVtCr50yi1HiKpt4SXwxrjS3WgxSTAyIyknbojX1HeS2kQtLbi6pX+20eiKvFArp4CPLseRJub+M9vRFU8dsdve73332qEc9ql7CY0mPcsh6FFDfcpfVubvWzYGTCiA1MYJb7dX7YkDca7FIwOh9ZXEiwXOaX+xIbg/2sCtCmuNtbzct/BmM6qEsLOI2yQIczZBmTZ0YWPkWRuM2NrGv8GTTtKaeg9o2vJoDE9kiQzyUZBOFca3b/GgfL2oHl53lSBGx1u95z3vOfuInfqKeFKOYKgqqvN6s+KK6d+f3c+CkA0jNm4Na43ITOOsiLQUClITYmkmfvvfqHiEneHJbiOdl7Wfcto7a9Exdr8EsAzwWtbdevCvNctzb26tjjOKPrglJ7LeKTn43uuT3pZdaMtNMWuFDXlR46UtfWr8t43VP1mP4VD5rv29fUtjklbV+t7vdbXZ2NXt9l7vcpVZeTRmnFt/bfNzm8UkJkBhYuiCOaWQa37If1uMHqjcd3lO5RT7wYEKnfse5er9ZIoQsysZKqk8dyL++A2oMcQF+cUaKgbVoQAYcLeG5VuXOffPl7rRBf6p+9qqxHLO+cFavawVilvH4TR9LeoRxvLiQBeHtvmsfd/WZemJ92lpP+qAHPaiOPeoX/dT02w4gu/i3iXMnLUCWzAoYOMeaFJ8EiFxvsSOzj4TcbLcEGAljAwrNTENZRn3Thv71GUhTVJ3ByJ3mOt/pTneqXwtkNXKn037uXKUvjqdt0Xe8wkOwE15pO9lg3fE6fCH8xS9+cf2hEPJEXsqY7FDS1QNglWHJlN9rf/jDH14vvncsBNLI4f4+GVrP7v7+HDglABI7WJTNtnEp836zSRzZsgzvz7ImzUhynwwCyaAg/ATU/iZBYpNl1425/J+BJgNCcUeD0XvTZkmPVesanTdQmwHZWNXboq2k8zDsh1dZdsNa9IEUH8BlQZqQieVIPsYmyptcWhlw1lln1e+ym6CxlMpSq1jwpcIaW9fuuX4cOGUAEjsy2EvWOMed8b4sUBRs5zrJPjyb+FwsqgAksOgqryx7zP42QSj0A/9b3epW9c/d3r5ab3ezKg4p5sj9zj1p95g2HeVntL/6q9JlteUoROMVwpe85CV1PNubM8BLXjfxbCxBE+owKcOqFxM2WdOkneW4Lo+HPn9KAWTJnAz8bMUnaW8gKZvMiTXJwuRCWQzsPpoecCYDNRmIrGNBoG+bAKk+7UezQeiDB768AyxZkmZQY0keBG3qPIgUmRBekC68sPq0XOVNiFm/+c1vqV5AeHv9vjUwIw8sbd7F2KQ+MkVR6QOxx/vc5z71V9fFgi3C36WD4cApC5DYPR8IjubamSYHhmKUlgVxvy0053qb4AGkWR5km2SQADjlJruWehaB36LzKbe9HXp/+/n2MaDXXluTAQDS7KmBmk9mpW1T192m5aCP01esRjPWgIuCpDB9DMVbMhQoSxKgyesmdapHnJGCEurwqbi9Kh6ctbrr1rF7fhwHTmmALFlmQHCjCCugILBiS5ZtJANHg4M7bj8z3+6TAWviVIBTGbLypNK6BDRlrm+o/jmHhjKX12Kl5tlcc79zY5Jn0Y1OrqI3ZFiQgNJbHHvVQDWZw+Uu6yj3x9R7WJ7R/jI5xguTMZnIE3oxoUdhpm8Tky6fHbqffrMwn8XudULxR4pKP7BOTxY+D+XNYbh/B5CX90IzRubABIgIJgGWAZ0Bw5owaKx5sw8sTebIcbmyNZAAD+BURlIGheNS+Mt91/KM88nOKU/Oudzbft75IQkosCQlH6Tw6TJxMJbksWriBkjmG4MN2M+t7iH1HKZ7m25p+ia81W+8BH3spQLxaJ8voxwpS6CVmONYnqdv8YLiscxKvNGkjJ+nsLJg51ofvKTsALLVB6XguuRYNhBiHbIWDSDZvh/Ikg0e73sDUkCT654LWNqPZWmr7FiY6otVAoDsy9w4A1IZymW9AufcX+9M8A8tAXODllUjJnazm91sdoc73KH+FiErx2e2xCaFJVjd7TQWNNrlbOpYO+dpDvL6hqKj9HwqDziapb6geqffuXgJseKVMbat+hwd+pbiYanLt7nNbWZ7lcXeKCLW45zS3d72ObADyAU8b8ZQA45uMRDag8GbFT4aABABowzAvvxlEz4X1gPKoAJsAVUL1g1EQFQCZeoIMLJSZAMIGBkwnuXWm1332mSsVvcB0qmSgYu2DGLWjYHrp1q53iYOvF0DRNVdAkbaMRUtU5eTfk252qit+kffAUbxRnFnAMmtpviixLQ1qS0POd9nm/IoIErn7OptGQDpgyBc66aeOXj3KXN3z/Qc2AHkCp7utza6b47Lu986NMvdxCCdB26xOu0HfAKSSjbgYkHaBz4sR+AoG8QmBwzat1RfjPHlavv5cGo3dcPOpr3ZohNNwPCmN71p/dkt8TEDGUiaWECj60l5NsfrAEnKGLNt09GUMQcdYOmnhM1Ec58t2bHGETBaE8tK12f6KGmKtoQu/eu3weXb3/72taWOn/p6inpC8247ngM7gOzJu7bl4bE+QmwwGGBAkiUZVzuDBADFmlBmaY3ZZ0ECn7jY4ptm1AGjt398XssAB54GnLxOCl0pw3EsYG/YiEsCR9kCZtYPF9HAZumitc0Xx2W57eupa91tu47yOGXjtf5I+COvnno/H19ly7vEmbOEp7QaU87YLZrQYFkVBXPHO97xuNLBS/yb0hsYS+fuuYYDO4CcSBK6BmOAwLUMjOyn2mXPuUcZBmhAxuDm0hvY4mN5m8PrkvmhptSbOoZsu+gJ7QYuoPamB9fQL+jJFjZzw/NzC7GCU2/abIu2Lvq6zuX5ZduS3iia1NFVJkUiA0AZGF5QxRhZ48CRAoqFr96uMpbRs+qa/uNx+EoSZcO1tqyHkvFGU2hfVc7u+nY4sAPIifhcDtSmyLkrN1EVx4uJy25AW3YCJC1DMXkjDsoKWceSPLEtTdXOG+AsRevzAKJ4JHBk/ciOTe4ku5cVbOCn3G7QmfMr91XV7UtVEVWa3+co95b7Kd+W9ctaZA0CP/yhXKxp5VInZ41rQBbIpxxl90loSfZscs4pO/Fkr3bKVghQMhQPPu3S4eLADiC32B/lYB5abQZryrA14E0siEf6dJtFzG99y1tnV7v61eo4VurIMznONmXmuM82ZdkCEUBsUsGCcj/HACyBpC+QA0yWJst21eBPuWgAjJddtv9Hy5xHb+Pu7gdJ17qSMlnbZqAt2QGC7UypWIGgLXLSGN4AwGTl4I1y0JFJOUpFaOJ+97vf7N73vncdmojl6Jkx9XpulzbDgR1AboavnaUa+GNSNcaOJ2Xk2KBjTWbm9XWve129Zs+Eg0Efa8ig6xp4XeeOV7Rkx4AvyzapAATFIbnfABMwAk3Zmj7X3COzPllSsg8wnH5608A5f+arB9pkdLUlfIjCaFYSNMrDDDSAzPrVLO63AsB9id8C8DFWY0lf+GIrKQ9tXHZgiU9WA3hLJqsCGmt/bjmmb8tyd/sHx4EdQB4c79euOQPRIORGmoFlTfrBep9uc16KJdOucCxAtssJMABNFh4A5GKzjLKMhUVpkocFJZugAKZoKy23dtmrjtUtpggcWYcsRZmSsAWO5RpVfOJ2q1NOfHdVPX2upz9yL/6q74sVGF+t4oX2P+QhD5k98pGPrBUGHuWZqfoide+203BgB5DT8PHASmGscEeBIXdRTM2bH76YLj4JKAxSsUOAUA7Ecn+dBhjkycphjcmsI1YToDRrm7ikLUvS1nWAaps4XKy5xp1u4ozA95JLTHA0a0i1l/WX2CJXmlUo2weYttrOgpMBo+fwQtkBxzF80N6u5wJ4turRFpayt2Ssc/Qaoa22XuEKO8txHbnbxrM7gNwGlzdcB5CsYKQesICAy20ZkB+R8t1Cs7VZBlQO6nJ/ahIDEAGMlK9OmeUIPACnGdx6qVC1vcrlQFkudwGOwCYgB/Rkky0yIOQuB/zUpY4AYLZdluoYHpRt6nre9dAs3LC3t1e/Y+2XCVnUV7nKVS9nRzfIhle77cFzYAeQB98Hk1EAKP3KHuuJ5QgkLV9hTfppCRYmEIkl2TW4pyIGSCSnngCLrXMySyoZKAJNgJaUMmwbK7J5Dx1gaktm9FmHrrsvgJh6U1dZbsrPPTletVV+mcrnU797WMgmqyzlEW/0uqYF9qxlyqGC8Kr9ZUm7/cPIgR1AHsZeGUlTM3bnliTryitzPtMlJsnlZm0ZwAGNkVX1eixgEhBxLAOSgElXQa4BQHlehrWg+++OFZpyXVVXALK8e1F7Q1t577L90JN7yufR7RhdwNEbMrer3pC5UzUpY7KKqw0YY+2njN328HJgB5CHt29GUwYovebIrf5MBZIXVO9uW0huAsc73N41Bj5DLEnAUIJBGyj6Epvnsu16zrUyu6esO8+UQJjy3Nd1b9e5ReWm/K5t6mlfQwsLWMjAcifWom875mdzWY6Ni7+zHNu8O8zHO4A8zL0zkjYAGSuF68nltqhcPBJImsRhSYrpxZorwaar2gADoMl+131Dzi0Crb5lTEHHUBrKOmMFA0YAaGbe2k8f9OBSWwQu5iiEgL/NszuA7Nu/h+G+HUAehl7YEA0GpEEsVmd212QNNzvutg8y5AtEBrH436JUAsOie4aeHwpOyp+ajrE0oIOCYYlbvmPxt5lqH/TwZkwWyQNO4LiLOQ6VjsNx/w4gD0c/bISK0pIEkqxJawVZkyZuvH3j2ISO63IsyTZwTA1MGtyuow8TpqZjCA2pO7zKEiaAeOaZZ9YxR661dZ4WxmcmvnluZzn26d/Dds8OIA9bj2yAHgM0WVzS2kEgmW8esiodA0tWpEmGAGXICTjkeKrtEIBKnVPSMqT+hCPw8CsVD29eTcL4+jd3muUYqzHWeGM5jlMEaetue7Ac2AHkwfJ/K7WXlmTAxSt3LEfAaOLGJA6XmysuZmn5jHszkbNJQoeAVOhIO3I8dtunbm40frAIWY15XdKCbxMxN7rRjeqJGRM0rqfMhu8Acix1u+cOmgM7gDzoHthi/SWocBMNekuBgCVrsoxPej2PS84aYlFm0G+C3E2WPQW9LEYL0TMJY/kOyxEwHjt2rJ65BpqUSdvynqL+XRkHx4EdQB4c77decyzJpuImJuaNFADAmvSaosXlgNJSIO8yA0+TERn8mwDLwwSQlAiLkQJBFwXhVUkxRV8qAooWf5uQ8ZaMN4BYlviysxi3LtIbr3AHkBtn8eGsIGAJEMTWWIuA0ldvfETWGzgmcXxr0uw3AAAWFjuzkuTSIl2nlYcFIEteiNNSCgBQjNG3GwEjgPR1IuddlysnunajD0s71umL3bP7ObADyP38OKWOApIaDSRZTixKnwhjPfpxMBblBdUXtx17VZFF6V5gEKC0nzyUgQcFKsAwgJgtWigA7rIvDZmNZjWapQaO3o6xrtE9lEWT5gHG6vFdOsk4sAPIk6xDhzanBMnyWSDItbZO0mfUvK7oN3BYlSxNYMKqlON+J/4GcPqkgwJHtEUhUAqyY/Tn4xK+uiPWCBgBpS8PNdZiOSvdWI592rq752hyYAeQR7PfJqV6EZ758AWQZDX62IW4pC2X23cWWZomc9wjm/QRuwvgAEA5wNlFdAmSAdbyXNczQ84BPllSbtzigLuF3MCP2wwIr399Px1x/XrhdyxG91j+5OO+ZaqK26WTnAM7gDzJO3ho8wJSea4EKyAoNucXAP00an4J0Ew4oLQ8yHXxzExyAEegpJyy7OyX5afObJddy/O517Z9v+NYivbRYkKFe5zlOkDRx3xZihZ5izFyo9ugnvradZT17/ZPPg7sAPLk69PJWjS3LBuXmWUI+PLDV7EgTeywKMUogWVeX+SKA1WAGQuTlSnHygyxASQAFBAq990HpAJUtm3rMFYhay9AaCuzAsUWrVUUX0wGkADRsWU8ZquBZ1JDS2MqVqTt0inGgR1AnmIdPrS5AaQ8F/ByHIACkLKlQtzvAKVF58Ayi89Zl0BTBppyyu8CSHXkvH33ljn1o8l9mWW3DRjma+aADwhypQGibF92rUzqULakXKlsd31i9++U4MAOIE+Jbp6mkRVuVGn/BAwwyVpKAGhf9rUgbncbIHNP3HEWaaxK+yUA2gdM7Qy0yomhACPLj6WYmWjWIvCzJCf77pHdk9loFqa6pBOBcDcRUzPmFP23A8hTtOPHNjtA0jx/IngE4FiJAceAYsDTtfzyINfbsWv2YxXapi6gBRRl+1xpbnQyaxEwJselNvnCgpTd4zgWYdof0A/dJRjnnt321OXADiBP3b5fu+UBl66CABwXOvFGMcdklmJcbKAo515b9wUcU3YsO1vAyGpMzDFWofPOZabasf2cd83z+8tuQL48l7pS92576nJgB5Cnbt9P0vISWFJgH4DJJA1ABJiO427bX5YAHSsxrrb9HPepu6S5z/3LaNldO7k5sAPIk7t/D6R1JQCdSMDcYnOfHHc6x8ufb+KEcbeVb7887rZsTwwHnEjb7syOA/s5sAPI/fzYHU3AgW6AagrehsXWXf8OICfo2lOuiB1AnnJdfrga3A1mw2jcBugOo2h398nCgR1Aniw9eYTbscqlXtW0HUCu4tDu+lgO7AByLOd2z+04sOPASc+BHUCe9F28a+COAzsOjOXADiDHcm733I4DOw6c9BzYAeRJ38W7Bu44sOPAWA7sAHIs53bP7Tiw48BJz4EdQJ70Xbxr4I4DOw6M5cAOIMdybvfcjgM7Dpz0HPj/AcNz2CFbp5YLAAAAAElFTkSuQmCC;" parent="1" vertex="1">
                    <mxGeometry x="396" y="130" width="51.37" height="52" as="geometry"/>
                </mxCell>
                <mxCell id="Lm2ICUbB4t9jHjoM_-Ms-46" style="edgeStyle=orthogonalEdgeStyle;rounded=0;orthogonalLoop=1;jettySize=auto;html=1;entryX=0.05;entryY=0.384;entryDx=0;entryDy=0;entryPerimeter=0;" parent="1" source="Lm2ICUbB4t9jHjoM_-Ms-8" edge="1">
                    <mxGeometry relative="1" as="geometry">
                        <mxPoint x="752" y="330.9664" as="targetPoint"/>
                    </mxGeometry>
                </mxCell>
                <mxCell id="Lm2ICUbB4t9jHjoM_-Ms-47" value="OpenAI" style="text;html=1;align=center;verticalAlign=middle;whiteSpace=wrap;rounded=0;" parent="1" vertex="1">
                    <mxGeometry x="391.68" y="92" width="60" height="30" as="geometry"/>
                </mxCell>
                <mxCell id="2" value="" style="aspect=fixed;html=1;points=[];align=center;image;fontSize=12;image=img/lib/azure2/management_governance/Customer_Lockbox_for_MS_Azure.svg;" vertex="1" parent="1">
                    <mxGeometry x="752" y="295" width="68" height="66.4" as="geometry"/>
                </mxCell>
                <mxCell id="3" value="Client" style="text;html=1;align=center;verticalAlign=middle;whiteSpace=wrap;rounded=0;" vertex="1" parent="1">
                    <mxGeometry x="749" y="370" width="60" height="25" as="geometry"/>
                </mxCell>
                <mxCell id="4" value="Analytics" style="text;html=1;align=center;verticalAlign=middle;whiteSpace=wrap;rounded=0;" vertex="1" parent="1">
                    <mxGeometry x="593" y="229" width="60" height="21" as="geometry"/>
                </mxCell>
                <mxCell id="7" value="Operation" style="text;html=1;align=center;verticalAlign=middle;whiteSpace=wrap;rounded=0;" vertex="1" parent="1">
                    <mxGeometry x="602" y="295" width="60" height="21" as="geometry"/>
                </mxCell>
            </root>
        </mxGraphModel>
    </diagram>
</mxfile>